  0
SECTION
  2
HEADER
  9
$ACADVER
  1
AC1032
  9
$ACADMAINTVER
 90
      155
  9
$DWGCODEPAGE
  3
ANSI_1252
  9
$REQUIREDVERSIONS
160
                 0
  9
$INSBASE
 10
0.0
 20
0.0
 30
0.0
  9
$EXTMIN
 10
1.000000000000000E+20
 20
1.000000000000000E+20
 30
1.000000000000000E+20
  9
$EXTMAX
 10
-1.000000000000000E+20
 20
-1.000000000000000E+20
 30
-1.000000000000000E+20
  9
$LIMMIN
 10
0.0
 20
0.0
  9
$LIMMAX
 10
12.0
 20
9.0
  9
$ORTHOMODE
 70
     0
  9
$REGENMODE
 70
     1
  9
$FILLMODE
 70
     1
  9
$QTEXTMODE
 70
     0
  9
$MIRRTEXT
 70
     0
  9
$LTSCALE
 40
1.0
  9
$ATTMODE
 70
     1
  9
$TEXTSIZE
 40
0.2
  9
$TRACEWID
 40
0.05
  9
$TEXTSTYLE
  7
Standard
  9
$CLAYER
  8
0
  9
$CELTYPE
  6
ByLayer
  9
$CECOLOR
 62
   256
  9
$CELTSCALE
 40
1.0
  9
$DISPSILH
 70
     0
  9
$DIMSCALE
 40
1.0
  9
$DIMASZ
 40
0.18
  9
$DIMEXO
 40
0.0625
  9
$DIMDLI
 40
0.38
  9
$DIMRND
 40
0.0
  9
$DIMDLE
 40
0.0
  9
$DIMEXE
 40
0.18
  9
$DIMTP
 40
0.0
  9
$DIMTM
 40
0.0
  9
$DIMTXT
 40
0.18
  9
$DIMCEN
 40
0.09
  9
$DIMTSZ
 40
0.0
  9
$DIMTOL
 70
     0
  9
$DIMLIM
 70
     0
  9
$DIMTIH
 70
     1
  9
$DIMTOH
 70
     1
  9
$DIMSE1
 70
     0
  9
$DIMSE2
 70
     0
  9
$DIMTAD
 70
     0
  9
$DIMZIN
 70
     0
  9
$DIMBLK
  1

  9
$DIMASO
 70
     1
  9
$DIMSHO
 70
     1
  9
$DIMPOST
  1

  9
$DIMAPOST
  1

  9
$DIMALT
 70
     0
  9
$DIMALTD
 70
     2
  9
$DIMALTF
 40
25.4
  9
$DIMLFAC
 40
1.0
  9
$DIMTOFL
 70
     0
  9
$DIMTVP
 40
0.0
  9
$DIMTIX
 70
     0
  9
$DIMSOXD
 70
     0
  9
$DIMSAH
 70
     0
  9
$DIMBLK1
  1

  9
$DIMBLK2
  1

  9
$DIMSTYLE
  2
Standard
  9
$DIMCLRD
 70
     0
  9
$DIMCLRE
 70
     0
  9
$DIMCLRT
 70
     0
  9
$DIMTFAC
 40
1.0
  9
$DIMGAP
 40
0.09
  9
$DIMJUST
 70
     0
  9
$DIMSD1
 70
     0
  9
$DIMSD2
 70
     0
  9
$DIMTOLJ
 70
     1
  9
$DIMTZIN
 70
     0
  9
$DIMALTZ
 70
     0
  9
$DIMALTTZ
 70
     0
  9
$DIMUPT
 70
     0
  9
$DIMDEC
 70
     4
  9
$DIMTDEC
 70
     4
  9
$DIMALTU
 70
     2
  9
$DIMALTTD
 70
     2
  9
$DIMTXSTY
  7
Standard
  9
$DIMAUNIT
 70
     0
  9
$DIMADEC
 70
     0
  9
$DIMALTRND
 40
0.0
  9
$DIMAZIN
 70
     0
  9
$DIMDSEP
 70
    46
  9
$DIMATFIT
 70
     3
  9
$DIMFRAC
 70
     0
  9
$DIMLDRBLK
  1

  9
$DIMLUNIT
 70
     2
  9
$DIMLWD
 70
    -2
  9
$DIMLWE
 70
    -2
  9
$DIMTMOVE
 70
     0
  9
$DIMFXL
 40
1.0
  9
$DIMFXLON
 70
     0
  9
$DIMJOGANG
 40
0.7853981633974483
  9
$DIMTFILL
 70
     0
  9
$DIMTFILLCLR
 70
     0
  9
$DIMARCSYM
 70
     0
  9
$DIMLTYPE
  6

  9
$DIMLTEX1
  6

  9
$DIMLTEX2
  6

  9
$DIMTXTDIRECTION
 70
     0
  9
$LUNITS
 70
     2
  9
$LUPREC
 70
     4
  9
$SKETCHINC
 40
0.1
  9
$FILLETRAD
 40
0.0
  9
$AUNITS
 70
     0
  9
$AUPREC
 70
     0
  9
$MENU
  1
.
  9
$ELEVATION
 40
0.0
  9
$PELEVATION
 40
0.0
  9
$THICKNESS
 40
0.0
  9
$LIMCHECK
 70
     0
  9
$CHAMFERA
 40
0.0
  9
$CHAMFERB
 40
0.0
  9
$CHAMFERC
 40
0.0
  9
$CHAMFERD
 40
0.0
  9
$SKPOLY
 70
     0
  9
$TDCREATE
 40
2459501.474212963
  9
$TDUCREATE
 40
2459501.640879630
  9
$TDUPDATE
 40
2459501.474212963
  9
$TDUUPDATE
 40
2459501.640879630
  9
$TDINDWG
 40
0.0000000000
  9
$TDUSRTIMER
 40
0.0000000000
  9
$USRTIMER
 70
     1
  9
$ANGBASE
 50
0.0
  9
$ANGDIR
 70
     0
  9
$PDMODE
 70
     0
  9
$PDSIZE
 40
0.0
  9
$PLINEWID
 40
0.0
  9
$SPLFRAME
 70
     0
  9
$SPLINETYPE
 70
     6
  9
$SPLINESEGS
 70
     8
  9
$HANDSEED
  5
C4
  9
$SURFTAB1
 70
     6
  9
$SURFTAB2
 70
     6
  9
$SURFTYPE
 70
     6
  9
$SURFU
 70
     6
  9
$SURFV
 70
     6
  9
$UCSBASE
  2

  9
$UCSNAME
  2

  9
$UCSORG
 10
0.0
 20
0.0
 30
0.0
  9
$UCSXDIR
 10
1.0
 20
0.0
 30
0.0
  9
$UCSYDIR
 10
0.0
 20
1.0
 30
0.0
  9
$UCSORTHOREF
  2

  9
$UCSORTHOVIEW
 70
     0
  9
$UCSORGTOP
 10
0.0
 20
0.0
 30
0.0
  9
$UCSORGBOTTOM
 10
0.0
 20
0.0
 30
0.0
  9
$UCSORGLEFT
 10
0.0
 20
0.0
 30
0.0
  9
$UCSORGRIGHT
 10
0.0
 20
0.0
 30
0.0
  9
$UCSORGFRONT
 10
0.0
 20
0.0
 30
0.0
  9
$UCSORGBACK
 10
0.0
 20
0.0
 30
0.0
  9
$PUCSBASE
  2

  9
$PUCSNAME
  2

  9
$PUCSORG
 10
0.0
 20
0.0
 30
0.0
  9
$PUCSXDIR
 10
1.0
 20
0.0
 30
0.0
  9
$PUCSYDIR
 10
0.0
 20
1.0
 30
0.0
  9
$PUCSORTHOREF
  2

  9
$PUCSORTHOVIEW
 70
     0
  9
$PUCSORGTOP
 10
0.0
 20
0.0
 30
0.0
  9
$PUCSORGBOTTOM
 10
0.0
 20
0.0
 30
0.0
  9
$PUCSORGLEFT
 10
0.0
 20
0.0
 30
0.0
  9
$PUCSORGRIGHT
 10
0.0
 20
0.0
 30
0.0
  9
$PUCSORGFRONT
 10
0.0
 20
0.0
 30
0.0
  9
$PUCSORGBACK
 10
0.0
 20
0.0
 30
0.0
  9
$USERI1
 70
     0
  9
$USERI2
 70
     0
  9
$USERI3
 70
     0
  9
$USERI4
 70
     0
  9
$USERI5
 70
     0
  9
$USERR1
 40
0.0
  9
$USERR2
 40
0.0
  9
$USERR3
 40
0.0
  9
$USERR4
 40
0.0
  9
$USERR5
 40
0.0
  9
$WORLDVIEW
 70
     1
  9
$SHADEDGE
 70
     3
  9
$SHADEDIF
 70
    70
  9
$TILEMODE
 70
     1
  9
$MAXACTVP
 70
    64
  9
$PINSBASE
 10
0.0
 20
0.0
 30
0.0
  9
$PLIMCHECK
 70
     0
  9
$PEXTMIN
 10
1.000000000000000E+20
 20
1.000000000000000E+20
 30
1.000000000000000E+20
  9
$PEXTMAX
 10
-1.000000000000000E+20
 20
-1.000000000000000E+20
 30
-1.000000000000000E+20
  9
$PLIMMIN
 10
0.0
 20
0.0
  9
$PLIMMAX
 10
12.0
 20
9.0
  9
$UNITMODE
 70
     0
  9
$VISRETAIN
 70
     1
  9
$PLINEGEN
 70
     0
  9
$PSLTSCALE
 70
     1
  9
$TREEDEPTH
 70
  3020
  9
$CMLSTYLE
  2
Standard
  9
$CMLJUST
 70
     0
  9
$CMLSCALE
 40
1.0
  9
$PROXYGRAPHICS
 70
     1
  9
$MEASUREMENT
 70
     0
  9
$CELWEIGHT
370
    -1
  9
$ENDCAPS
280
     0
  9
$JOINSTYLE
280
     0
  9
$LWDISPLAY
290
     1
  9
$INSUNITS
 70
     4
  9
$HYPERLINKBASE
  1

  9
$STYLESHEET
  1

  9
$XEDIT
290
     1
  9
$CEPSNTYPE
380
     0
  9
$PSTYLEMODE
290
     1
  9
$FINGERPRINTGUID
  2
{6634F021-33B1-C040-BCC2-A9E923CEDFCA}
  9
$VERSIONGUID
  2
{15392762-FB16-814D-96C8-B1A1FF8EEA36}
  9
$EXTNAMES
290
     1
  9
$PSVPSCALE
 40
0.0
  9
$OLESTARTUP
290
     0
  9
$SORTENTS
280
   127
  9
$INDEXCTL
280
     0
  9
$HIDETEXT
280
     1
  9
$XCLIPFRAME
280
     2
  9
$HALOGAP
280
     0
  9
$OBSCOLOR
 70
   257
  9
$OBSLTYPE
280
     0
  9
$INTERSECTIONDISPLAY
280
     0
  9
$INTERSECTIONCOLOR
 70
   257
  9
$DIMASSOC
280
     2
  9
$PROJECTNAME
  1

  9
$CAMERADISPLAY
290
     0
  9
$LENSLENGTH
 40
50.0
  9
$CAMERAHEIGHT
 40
0.0
  9
$STEPSPERSEC
 40
2.0
  9
$STEPSIZE
 40
6.0
  9
$3DDWFPREC
 40
2.0
  9
$PSOLWIDTH
 40
0.25
  9
$PSOLHEIGHT
 40
4.0
  9
$LOFTANG1
 40
1.570796326794896
  9
$LOFTANG2
 40
1.570796326794896
  9
$LOFTMAG1
 40
0.0
  9
$LOFTMAG2
 40
0.0
  9
$LOFTPARAM
 70
     7
  9
$LOFTNORMALS
280
     1
  9
$LATITUDE
 40
37.795
  9
$LONGITUDE
 40
-122.394
  9
$NORTHDIRECTION
 40
0.0
  9
$TIMEZONE
 70
 -8000
  9
$LIGHTGLYPHDISPLAY
280
     1
  9
$TILEMODELIGHTSYNCH
280
     1
  9
$CMATERIAL
347
11
  9
$SOLIDHIST
280
     0
  9
$SHOWHIST
280
     1
  9
$DWFFRAME
280
     2
  9
$DGNFRAME
280
     0
  9
$REALWORLDSCALE
290
     1
  9
$INTERFERECOLOR
 62
     1
  9
$INTERFEREOBJVS
345
33
  9
$INTERFEREVPVS
346
30
  9
$CSHADOW
280
     0
  9
$SHADOWPLANELOCATION
 40
0.0
  0
ENDSEC
  0
SECTION
  2
CLASSES
  0
CLASS
  1
ACDBDICTIONARYWDFLT
  2
AcDbDictionaryWithDefault
  3
ObjectDBX Classes
 90
        0
 91
        1
280
     0
281
     0
  0
CLASS
  1
MATERIAL
  2
AcDbMaterial
  3
ObjectDBX Classes
 90
     1153
 91
        3
280
     0
281
     0
  0
CLASS
  1
VISUALSTYLE
  2
AcDbVisualStyle
  3
ObjectDBX Classes
 90
     4095
 91
       24
280
     0
281
     0
  0
CLASS
  1
SCALE
  2
AcDbScale
  3
ObjectDBX Classes
 90
     1153
 91
       17
280
     0
281
     0
  0
CLASS
  1
TABLESTYLE
  2
AcDbTableStyle
  3
ObjectDBX Classes
 90
     4095
 91
        1
280
     0
281
     0
  0
CLASS
  1
MLEADERSTYLE
  2
AcDbMLeaderStyle
  3
ACDB_MLEADERSTYLE_CLASS
 90
     4095
 91
        1
280
     0
281
     0
  0
CLASS
  1
ACDBSECTIONVIEWSTYLE
  2
AcDbSectionViewStyle
  3
ObjectDBX Classes
 90
     1025
 91
        1
280
     0
281
     0
  0
CLASS
  1
ACDBDETAILVIEWSTYLE
  2
AcDbDetailViewStyle
  3
ObjectDBX Classes
 90
     1025
 91
        1
280
     0
281
     0
  0
CLASS
  1
DICTIONARYVAR
  2
AcDbDictionaryVar
  3
ObjectDBX Classes
 90
        0
 91
        5
280
     0
281
     0
  0
CLASS
  1
CELLSTYLEMAP
  2
AcDbCellStyleMap
  3
ObjectDBX Classes
 90
     1152
 91
        1
280
     0
281
     0
  0
ENDSEC
  0
SECTION
  2
TABLES
  0
TABLE
  2
VPORT
  5
8
330
0
100
AcDbSymbolTable
 70
     1
  0
VPORT
  5
57
330
8
100
AcDbSymbolTableRecord
100
AcDbViewportTableRecord
  2
*Active
 70
     0
 10
0.0
 20
0.0
 11
1.0
 21
1.0
 12
0.0
 22
0.0
 13
0.0
 23
0.0
 14
1.0
 24
1.0
 15
0.0
 25
0.0
 16
0.0
 26
0.0
 36
1.0
 17
4.499999998874939
 27
-7.999999998000106
 37
0.0
 40
16.31999999592022
 41
0.562499999999985
 42
50.0
 43
0.0
 44
0.0
 50
0.0
 51
0.0
 71
     0
 72
   100
 73
     1
 74
     0
 75
     1
 76
     0
 77
     0
 78
     0
281
     0
 65
     1
110
0.0
120
0.0
130
0.0
111
1.0
121
0.0
131
0.0
112
0.0
122
1.0
132
0.0
 79
     0
146
0.0
 60
     3
 61
     5
292
     1
282
     1
141
0.0
142
0.0
 63
   250
421
  3355443
  0
ENDTAB
  0
TABLE
  2
LTYPE
  5
5
330
0
100
AcDbSymbolTable
 70
     1
  0
LTYPE
  5
5B
330
5
100
AcDbSymbolTableRecord
100
AcDbLinetypeTableRecord
  2
ByBlock
 70
     0
  3

 72
    65
 73
     0
 40
0.0
  0
LTYPE
  5
5C
330
5
100
AcDbSymbolTableRecord
100
AcDbLinetypeTableRecord
  2
ByLayer
 70
     0
  3

 72
    65
 73
     0
 40
0.0
  0
LTYPE
  5
5D
330
5
100
AcDbSymbolTableRecord
100
AcDbLinetypeTableRecord
  2
Continuous
 70
     0
  3
Solid line
 72
    65
 73
     0
 40
0.0
  0
ENDTAB
  0
TABLE
  2
LAYER
  5
2
330
0
100
AcDbSymbolTable
 70
     2
  0
LAYER
  5
54
330
2
100
AcDbSymbolTableRecord
100
AcDbLayerTableRecord
  2
0
 70
     0
 62
     7
  6
Continuous
370
    -3
390
F
347
21
348
0
  0
LAYER
  5
78
330
2
100
AcDbSymbolTableRecord
100
AcDbLayerTableRecord
  2
Layer 1
 70
     0
 62
     7
  6
Continuous
370
     0
390
F
347
21
348
0
  0
ENDTAB
  0
TABLE
  2
STYLE
  5
3
330
0
100
AcDbSymbolTable
 70
     2
  0
STYLE
  5
55
330
3
100
AcDbSymbolTableRecord
100
AcDbTextStyleTableRecord
  2
Standard
 70
     0
 40
0.0
 41
1.0
 50
0.0
 71
     0
 42
0.2
  3
txt
  4

  0
STYLE
  5
5A
330
3
100
AcDbSymbolTableRecord
100
AcDbTextStyleTableRecord
  2
Annotative
 70
     0
 40
0.0
 41
1.0
 50
0.0
 71
     0
 42
0.2
  3
txt
  4

1001
AcadAnnotative
1000
AnnotativeData
1002
{
1070
     1
1070
     1
1002
}
  0
ENDTAB
  0
TABLE
  2
VIEW
  5
6
330
0
100
AcDbSymbolTable
 70
     0
  0
ENDTAB
  0
TABLE
  2
UCS
  5
7
330
0
100
AcDbSymbolTable
 70
     0
  0
ENDTAB
  0
TABLE
  2
APPID
  5
9
330
0
100
AcDbSymbolTable
 70
     2
  0
APPID
  5
56
330
9
100
AcDbSymbolTableRecord
100
AcDbRegAppTableRecord
  2
ACAD
 70
     0
  0
APPID
  5
5E
330
9
100
AcDbSymbolTableRecord
100
AcDbRegAppTableRecord
  2
AcadAnnotative
 70
     0
  0
ENDTAB
  0
TABLE
  2
DIMSTYLE
  5
A
330
0
100
AcDbSymbolTable
 70
     2
100
AcDbDimStyleTable
 71
     0
  0
DIMSTYLE
105
58
330
A
100
AcDbSymbolTableRecord
100
AcDbDimStyleTableRecord
  2
Standard
 70
     0
340
55
  0
DIMSTYLE
105
59
330
A
100
AcDbSymbolTableRecord
100
AcDbDimStyleTableRecord
  2
Annotative
 70
     0
340
55
1001
AcadAnnotative
1000
AnnotativeData
1002
{
1070
     1
1070
     1
1002
}
  0
ENDTAB
  0
TABLE
  2
BLOCK_RECORD
  5
1
330
0
100
AcDbSymbolTable
 70
     9
  0
BLOCK_RECORD
  5
70
330
1
100
AcDbSymbolTableRecord
100
AcDbBlockTableRecord
  2
*Model_Space
340
73
 70
     0
280
     1
281
     0
  0
BLOCK_RECORD
  5
6C
330
1
100
AcDbSymbolTableRecord
100
AcDbBlockTableRecord
  2
*Paper_Space
340
6F
 70
     0
280
     1
281
     0
  0
BLOCK_RECORD
  5
74
330
1
100
AcDbSymbolTableRecord
100
AcDbBlockTableRecord
  2
*Paper_Space0
340
77
 70
     0
280
     1
281
     0
  0
BLOCK_RECORD
  5
79
330
1
100
AcDbSymbolTableRecord
100
AcDbBlockTableRecord
  2
Block_0
340
0
102
{BLKREFS
331
7A
102
}
 70
     0
280
     1
281
     0
  0
BLOCK_RECORD
  5
7D
330
1
100
AcDbSymbolTableRecord
100
AcDbBlockTableRecord
  2
Block_1
340
0
102
{BLKREFS
331
7E
102
}
 70
     0
280
     1
281
     0
  0
BLOCK_RECORD
  5
89
330
1
100
AcDbSymbolTableRecord
100
AcDbBlockTableRecord
  2
Block_2
340
0
102
{BLKREFS
331
8A
102
}
 70
     0
280
     1
281
     0
  0
BLOCK_RECORD
  5
8D
330
1
100
AcDbSymbolTableRecord
100
AcDbBlockTableRecord
  2
Block_3
340
0
102
{BLKREFS
331
8E
102
}
 70
     0
280
     1
281
     0
  0
BLOCK_RECORD
  5
9C
330
1
100
AcDbSymbolTableRecord
100
AcDbBlockTableRecord
  2
Block_4
340
0
102
{BLKREFS
331
9D
102
}
 70
     0
280
     1
281
     0
  0
BLOCK_RECORD
  5
A0
330
1
100
AcDbSymbolTableRecord
100
AcDbBlockTableRecord
  2
Block_5
340
0
102
{BLKREFS
331
A1
102
}
 70
     0
280
     1
281
     0
  0
BLOCK_RECORD
  5
AD
330
1
100
AcDbSymbolTableRecord
100
AcDbBlockTableRecord
  2
Block_6
340
0
102
{BLKREFS
331
AE
102
}
 70
     0
280
     1
281
     0
  0
BLOCK_RECORD
  5
B1
330
1
100
AcDbSymbolTableRecord
100
AcDbBlockTableRecord
  2
Block_7
340
0
102
{BLKREFS
331
B2
102
}
 70
     0
280
     1
281
     0
  0
ENDTAB
  0
ENDSEC
  0
SECTION
  2
BLOCKS
  0
BLOCK
  5
71
330
70
100
AcDbEntity
  8
0
100
AcDbBlockBegin
  2
*Model_Space
 70
     0
 10
0.0
 20
0.0
 30
0.0
  3
*Model_Space
  1

  0
ENDBLK
  5
72
330
70
100
AcDbEntity
  8
0
100
AcDbBlockEnd
  0
BLOCK
  5
6D
330
6C
100
AcDbEntity
 67
     1
  8
0
100
AcDbBlockBegin
  2
*Paper_Space
 70
     0
 10
0.0
 20
0.0
 30
0.0
  3
*Paper_Space
  1

  0
ENDBLK
  5
6E
330
6C
100
AcDbEntity
 67
     1
  8
0
100
AcDbBlockEnd
  0
BLOCK
  5
75
330
74
100
AcDbEntity
 67
     1
  8
0
100
AcDbBlockBegin
  2
*Paper_Space0
 70
     0
 10
0.0
 20
0.0
 30
0.0
  3
*Paper_Space0
  1

  0
ENDBLK
  5
76
330
74
100
AcDbEntity
 67
     1
  8
0
100
AcDbBlockEnd
  0
BLOCK
  5
7B
330
79
100
AcDbEntity
  8
0
100
AcDbBlockBegin
  2
Block_0
 70
     0
 10
0.0
 20
0.0
 30
0.0
  3
Block_0
  1

  0
INSERT
  5
7E
330
79
100
AcDbEntity
  8
Layer 1
100
AcDbBlockReference
  2
Block_1
 10
0.0
 20
0.0
 30
0.0
  0
ENDBLK
  5
7C
330
79
100
AcDbEntity
  8
0
100
AcDbBlockEnd
  0
BLOCK
  5
7F
330
7D
100
AcDbEntity
  8
0
100
AcDbBlockBegin
  2
Block_1
 70
     0
 10
0.0
 20
0.0
 30
0.0
  3
Block_1
  1

  0
SPLINE
  5
81
330
7D
100
AcDbEntity
  8
Layer 1
100
AcDbSpline
210
0.0
220
0.0
230
1.0
 70
     9
 71
     3
 72
    20
 73
    16
 74
     0
 42
0.0000000001
 43
0.0000000001
 40
0.0
 40
0.0
 40
0.0
 40
0.0
 40
1.0
 40
1.0
 40
1.0
 40
2.0
 40
2.0
 40
2.0
 40
3.0
 40
3.0
 40
3.0
 40
4.0
 40
4.0
 40
4.0
 40
5.0
 40
5.0
 40
5.0
 40
5.0
 10
0.8449096677575226
 20
-1.699810112422269
 30
0.0
 10
0.8850450301606832
 20
-1.710317653652281
 30
0.0
 10
0.9358601885681183
 20
-1.714624023008844
 30
0.0
 10
0.9971828882055653
 20
-1.714624023008844
 30
0.0
 10
1.219391547004179
 20
-1.714624023008844
 30
0.0
 10
1.354783799574498
 20
-1.606792534320524
 30
0.0
 10
1.354783799574498
 20
-1.410077582112758
 30
0.0
 10
1.354783799574498
 20
-1.221803113843854
 30
0.0
 10
1.221458604295329
 20
-1.130680338258996
 30
0.0
 10
1.018370225439851
 20
-1.130680338258996
 30
0.0
 10
0.9379272458592682
 20
-1.130680338258996
 30
0.0
 10
0.8766045462218212
 20
-1.137053764906708
 30
0.0
 10
0.8449096677575226
 20
-1.14549424884557
 30
0.0
 10
0.8449096677575226
 20
-1.14549424884557
 30
0.0
 10
0.8449096677575226
 20
-1.699810112422269
 30
0.0
 10
0.8449096677575226
 20
-1.699810112422269
 30
0.0
  0
SPLINE
  5
82
330
7D
100
AcDbEntity
  8
Layer 1
100
AcDbSpline
210
0.0
220
0.0
230
1.0
 70
     9
 71
     3
 72
    32
 73
    28
 74
     0
 42
0.0000000001
 43
0.0000000001
 40
0.0
 40
0.0
 40
0.0
 40
0.0
 40
1.0
 40
1.0
 40
1.0
 40
2.0
 40
2.0
 40
2.0
 40
3.0
 40
3.0
 40
3.0
 40
4.0
 40
4.0
 40
4.0
 40
5.0
 40
5.0
 40
5.0
 40
6.0
 40
6.0
 40
6.0
 40
7.0
 40
7.0
 40
7.0
 40
8.0
 40
8.0
 40
8.0
 40
9.0
 40
9.0
 40
9.0
 40
9.0
 10
0.6607693140709188
 20
-1.012341308340664
 30
0.0
 10
0.7496527775903647
 20
-0.9975273977540904
 30
0.0
 10
0.8660970049918091
 20
-0.984780544458666
 30
0.0
 10
1.014063856083289
 20
-0.984780544458666
 30
0.0
 10
1.196137152478743
 20
-0.984780544458666
 30
0.0
 10
1.329290092983649
 20
-1.027155218927239
 30
0.0
 10
1.414039441920795
 20
-1.10329182915126
 30
0.0
 10
1.492243109435967
 20
-1.170987955436419
 30
0.0
 10
1.538751898486839
 20
-1.274685329542439
 30
0.0
 10
1.538751898486839
 20
-1.401464843399633
 30
0.0
 10
1.538751898486839
 20
-1.530655924096502
 30
0.0
 10
1.500683593374829
 20
-1.63211398613711
 30
0.0
 10
1.428681097733107
 20
-1.706183539069981
 30
0.0
 10
1.331529405049062
 20
-1.809880913176002
 30
0.0
 10
1.172710503179044
 20
-1.862763128874587
 30
0.0
 10
0.9930487736232656
 20
-1.862763128874587
 30
0.0
 10
0.9379272458592682
 20
-1.862763128874587
 30
0.0
 10
0.887112087451833
 20
-1.860523816809174
 30
0.0
 10
0.8449096677575226
 20
-1.850016275579162
 30
0.0
 10
0.8449096677575226
 20
-1.850016275579162
 30
0.0
 10
0.8449096677575226
 20
-2.421213107033585
 30
0.0
 10
0.8449096677575226
 20
-2.421213107033585
 30
0.0
 10
0.8449096677575226
 20
-2.421213107033585
 30
0.0
 10
0.6607693140709188
 20
-2.421213107033585
 30
0.0
 10
0.6607693140709188
 20
-2.421213107033585
 30
0.0
 10
0.6607693140709188
 20
-2.421213107033585
 30
0.0
 10
0.6607693140709188
 20
-1.012341308340664
 30
0.0
 10
0.6607693140709188
 20
-1.012341308340664
 30
0.0
  0
SPLINE
  5
83
330
7D
100
AcDbEntity
  8
Layer 1
100
AcDbSpline
210
0.0
220
0.0
230
1.0
 70
     9
 71
     3
 72
    17
 73
    13
 74
     0
 42
0.0000000001
 43
0.0000000001
 40
0.0
 40
0.0
 40
0.0
 40
0.0
 40
1.0
 40
1.0
 40
1.0
 40
2.0
 40
2.0
 40
2.0
 40
3.0
 40
3.0
 40
3.0
 40
4.0
 40
4.0
 40
4.0
 40
4.0
 10
1.841920301188825
 20
-1.911338975216609
 30
0.0
 10
1.841920301188825
 20
-2.135614691306374
 30
0.0
 10
1.970939127111432
 20
-2.304941134406403
 30
0.0
 10
2.153012423506885
 20
-2.304941134406403
 30
0.0
 10
2.330434840997252
 20
-2.304941134406403
 30
0.0
 10
2.463760036276421
 20
-2.137681748597524
 30
0.0
 10
2.463760036276421
 20
-1.907204860634309
 30
0.0
 10
2.463760036276421
 20
-1.73374430295198
 30
0.0
 10
2.376943630048125
 20
-1.513602701444516
 30
0.0
 10
2.157146538089185
 20
-1.513602701444516
 30
0.0
 10
1.93700493658172
 20
-1.513602701444516
 30
0.0
 10
1.841920301188825
 20
-1.716691080299993
 30
0.0
 10
1.841920301188825
 20
-1.911338975216609
 30
0.0
  0
SPLINE
  5
84
330
7D
100
AcDbEntity
  8
Layer 1
100
AcDbSpline
210
0.0
220
0.0
230
1.0
 70
     9
 71
     3
 72
    17
 73
    13
 74
     0
 42
0.0000000001
 43
0.0000000001
 40
0.0
 40
0.0
 40
0.0
 40
0.0
 40
1.0
 40
1.0
 40
1.0
 40
2.0
 40
2.0
 40
2.0
 40
3.0
 40
3.0
 40
3.0
 40
4.0
 40
4.0
 40
4.0
 40
4.0
 10
2.654273816610737
 20
-1.900831433986597
 30
0.0
 10
2.654273816610737
 20
-2.279447427815554
 30
0.0
 10
2.391757540634699
 20
-2.444467501559022
 30
0.0
 10
2.144399684793761
 20
-2.444467501559022
 30
0.0
 10
1.867241753005411
 20
-2.444467501559022
 30
0.0
 10
1.653645832919921
 20
-2.241379122703544
 30
0.0
 10
1.653645832919921
 20
-1.917712401864321
 30
0.0
 10
1.653645832919921
 20
-1.574925401081963
 30
0.0
 10
1.877749294235423
 20
-1.374076334291897
 30
0.0
 10
2.161280652671485
 20
-1.374076334291897
 30
0.0
 10
2.455491807111821
 20
-1.374076334291897
 30
0.0
 10
2.654273816610737
 20
-1.587672254377387
 30
0.0
 10
2.654273816610737
 20
-1.900831433986597
 30
0.0
  0
SPLINE
  5
85
330
7D
100
AcDbEntity
  8
Layer 1
100
AcDbSpline
210
0.0
220
0.0
230
1.0
 70
    11
 71
     3
 72
    71
 73
    67
 74
     0
 42
0.0000000001
 43
0.0000000001
 40
0.0
 40
0.0
 40
0.0
 40
0.0
 40
1.0
 40
1.0
 40
1.0
 40
2.0
 40
2.0
 40
2.0
 40
3.0
 40
3.0
 40
3.0
 40
4.0
 40
4.0
 40
4.0
 40
5.0
 40
5.0
 40
5.0
 40
6.0
 40
6.0
 40
6.0
 40
7.0
 40
7.0
 40
7.0
 40
8.0
 40
8.0
 40
8.0
 40
9.0
 40
9.0
 40
9.0
 40
10.0
 40
10.0
 40
10.0
 40
11.0
 40
11.0
 40
11.0
 40
12.0
 40
12.0
 40
12.0
 40
13.0
 40
13.0
 40
13.0
 40
14.0
 40
14.0
 40
14.0
 40
15.0
 40
15.0
 40
15.0
 40
16.0
 40
16.0
 40
16.0
 40
17.0
 40
17.0
 40
17.0
 40
18.0
 40
18.0
 40
18.0
 40
19.0
 40
19.0
 40
19.0
 40
20.0
 40
20.0
 40
20.0
 40
21.0
 40
21.0
 40
21.0
 40
22.0
 40
22.0
 40
22.0
 40
22.0
 10
2.948829480599598
 20
-1.397330728817333
 30
0.0
 10
2.948829480599598
 20
-1.397330728817333
 30
0.0
 10
3.084221733169917
 20
-1.917712401864321
 30
0.0
 10
3.084221733169917
 20
-1.917712401864321
 30
0.0
 10
3.113849554343065
 20
-2.031917317200353
 30
0.0
 10
3.141410318225064
 20
-2.137681748597524
 30
0.0
 10
3.160358343393938
 20
-2.243446179994694
 30
0.0
 10
3.160358343393938
 20
-2.243446179994694
 30
0.0
 10
3.166904024815913
 20
-2.243446179994694
 30
0.0
 10
3.166904024815913
 20
-2.243446179994694
 30
0.0
 10
3.189986164567086
 20
-2.139921060662936
 30
0.0
 10
3.223748100322535
 20
-2.029850259909204
 30
0.0
 10
3.257854545626508
 20
-1.919779459155471
 30
0.0
 10
3.257854545626508
 20
-1.919779459155471
 30
0.0
 10
3.424941676661125
 20
-1.397330728817333
 30
0.0
 10
3.424941676661125
 20
-1.397330728817333
 30
0.0
 10
3.424941676661125
 20
-1.397330728817333
 30
0.0
 10
3.581349011691468
 20
-1.397330728817333
 30
0.0
 10
3.581349011691468
 20
-1.397330728817333
 30
0.0
 10
3.581349011691468
 20
-1.397330728817333
 30
0.0
 10
3.740167913561486
 20
-1.909271917925459
 30
0.0
 10
3.740167913561486
 20
-1.909271917925459
 30
0.0
 10
3.778063963899234
 20
-2.031917317200353
 30
0.0
 10
3.807691785072382
 20
-2.139921060662936
 30
0.0
 10
3.831118434372081
 20
-2.243446179994694
 30
0.0
 10
3.831118434372081
 20
-2.243446179994694
 30
0.0
 10
3.837319606245531
 20
-2.243446179994694
 30
0.0
 10
3.837319606245531
 20
-2.243446179994694
 30
0.0
 10
3.854200574123255
 20
-2.139921060662936
 30
0.0
 10
3.881761338005254
 20
-2.031917317200353
 30
0.0
 10
3.915523273760702
 20
-1.911338975216609
 30
0.0
 10
3.915523273760702
 20
-1.911338975216609
 30
0.0
 10
4.061595322335295
 20
-1.397330728817333
 30
0.0
 10
4.061595322335295
 20
-1.397330728817333
 30
0.0
 10
4.061595322335295
 20
-1.397330728817333
 30
0.0
 10
4.245563421247637
 20
-1.397330728817333
 30
0.0
 10
4.245563421247637
 20
-1.397330728817333
 30
0.0
 10
4.245563421247637
 20
-1.397330728817333
 30
0.0
 10
3.915523273760702
 20
-2.421213107033585
 30
0.0
 10
3.915523273760702
 20
-2.421213107033585
 30
0.0
 10
3.915523273760702
 20
-2.421213107033585
 30
0.0
 10
3.746369085434935
 20
-2.421213107033585
 30
0.0
 10
3.746369085434935
 20
-2.421213107033585
 30
0.0
 10
3.746369085434935
 20
-2.421213107033585
 30
0.0
 10
3.589961750404592
 20
-1.932526312450896
 30
0.0
 10
3.589961750404592
 20
-1.932526312450896
 30
0.0
 10
3.553788247809469
 20
-1.818321397114864
 30
0.0
 10
3.524160426636321
 20
-1.716691080299993
 30
0.0
 10
3.499011229593997
 20
-1.596112738316249
 30
0.0
 10
3.499011229593997
 20
-1.596112738316249
 30
0.0
 10
3.494532605463172
 20
-1.596112738316249
 30
0.0
 10
3.494532605463172
 20
-1.596112738316249
 30
0.0
 10
3.469383408420848
 20
-1.718930392365406
 30
0.0
 10
3.43768852995655
 20
-1.824694823762576
 30
0.0
 10
3.401515027361426
 20
-1.934593369742046
 30
0.0
 10
3.401515027361426
 20
-1.934593369742046
 30
0.0
 10
3.236494953617959
 20
-2.421213107033585
 30
0.0
 10
3.236494953617959
 20
-2.421213107033585
 30
0.0
 10
3.236494953617959
 20
-2.421213107033585
 30
0.0
 10
3.067340765292192
 20
-2.421213107033585
 30
0.0
 10
3.067340765292192
 20
-2.421213107033585
 30
0.0
 10
3.067340765292192
 20
-2.421213107033585
 30
0.0
 10
2.758660209813807
 20
-1.397330728817333
 30
0.0
 10
2.758660209813807
 20
-1.397330728817333
 30
0.0
 10
2.758660209813807
 20
-1.397330728817333
 30
0.0
 10
2.948829480599598
 20
-1.397330728817333
 30
0.0
 10
2.948829480599598
 20
-1.397330728817333
 30
0.0
  0
SPLINE
  5
86
330
7D
100
AcDbEntity
  8
Layer 1
100
AcDbSpline
210
0.0
220
0.0
230
1.0
 70
     9
 71
     3
 72
    14
 73
    10
 74
     0
 42
0.0000000001
 43
0.0000000001
 40
0.0
 40
0.0
 40
0.0
 40
0.0
 40
1.0
 40
1.0
 40
1.0
 40
2.0
 40
2.0
 40
2.0
 40
3.0
 40
3.0
 40
3.0
 40
3.0
 10
5.061189777380536
 20
-1.809880913176002
 30
0.0
 10
5.06360134422021
 20
-1.691369628483407
 30
0.0
 10
5.012613931038513
 20
-1.507401529571066
 30
0.0
 10
4.802979870761061
 20
-1.507401529571066
 30
0.0
 10
4.614877657266419
 20
-1.507401529571066
 30
0.0
 10
4.532195365620423
 20
-1.680862087253395
 30
0.0
 10
4.517381455033849
 20
-1.809880913176002
 30
0.0
 10
4.517381455033849
 20
-1.809880913176002
 30
0.0
 10
5.061189777380536
 20
-1.809880913176002
 30
0.0
 10
5.061189777380536
 20
-1.809880913176002
 30
0.0
  0
SPLINE
  5
87
330
7D
100
AcDbEntity
  8
Layer 1
100
AcDbSpline
210
0.0
220
0.0
230
1.0
 70
     9
 71
     3
 72
    32
 73
    28
 74
     0
 42
0.0000000001
 43
0.0000000001
 40
0.0
 40
0.0
 40
0.0
 40
0.0
 40
1.0
 40
1.0
 40
1.0
 40
2.0
 40
2.0
 40
2.0
 40
3.0
 40
3.0
 40
3.0
 40
4.0
 40
4.0
 40
4.0
 40
5.0
 40
5.0
 40
5.0
 40
6.0
 40
6.0
 40
6.0
 40
7.0
 40
7.0
 40
7.0
 40
8.0
 40
8.0
 40
8.0
 40
9.0
 40
9.0
 40
9.0
 40
9.0
 10
4.515314397742699
 20
-1.943033853680908
 30
0.0
 10
4.519448512324999
 20
-2.194870333652671
 30
0.0
 10
4.680334471486166
 20
-2.298567707758691
 30
0.0
 10
4.866369627689658
 20
-2.298567707758691
 30
0.0
 10
4.999867077743089
 20
-2.298567707758691
 30
0.0
 10
5.080482312097934
 20
-2.275313313233255
 30
0.0
 10
5.150073240899981
 20
-2.245685492060106
 30
0.0
 10
5.150073240899981
 20
-2.245685492060106
 30
0.0
 10
5.18176811936428
 20
-2.378838432565012
 30
0.0
 10
5.18176811936428
 20
-2.378838432565012
 30
0.0
 10
5.116311305144533
 20
-2.408466253738161
 30
0.0
 10
5.004345701873913
 20
-2.442400444267872
 30
0.0
 10
4.841220430647333
 20
-2.442400444267872
 30
0.0
 10
4.525994193746973
 20
-2.442400444267872
 30
0.0
 10
4.337547470703808
 20
-2.235005696055832
 30
0.0
 10
4.337547470703808
 20
-1.926152885803183
 30
0.0
 10
4.337547470703808
 20
-1.617300075550536
 30
0.0
 10
4.519448512324999
 20
-1.374076334291897
 30
0.0
 10
4.817793781347635
 20
-1.374076334291897
 30
0.0
 10
5.152140298191131
 20
-1.374076334291897
 30
0.0
 10
5.241023761710577
 20
-1.668115233957971
 30
0.0
 10
5.241023761710577
 20
-1.856389702226874
 30
0.0
 10
5.241023761710577
 20
-1.894458007338885
 30
0.0
 10
5.236889647128277
 20
-1.924085828512034
 30
0.0
 10
5.234822589837127
 20
-1.943033853680908
 30
0.0
 10
5.234822589837127
 20
-1.943033853680908
 30
0.0
 10
4.515314397742699
 20
-1.943033853680908
 30
0.0
 10
4.515314397742699
 20
-1.943033853680908
 30
0.0
  0
SPLINE
  5
88
330
7D
100
AcDbEntity
  8
Layer 1
100
AcDbSpline
210
0.0
220
0.0
230
1.0
 70
     9
 71
     3
 72
    44
 73
    40
 74
     0
 42
0.0000000001
 43
0.0000000001
 40
0.0
 40
0.0
 40
0.0
 40
0.0
 40
1.0
 40
1.0
 40
1.0
 40
2.0
 40
2.0
 40
2.0
 40
3.0
 40
3.0
 40
3.0
 40
4.0
 40
4.0
 40
4.0
 40
5.0
 40
5.0
 40
5.0
 40
6.0
 40
6.0
 40
6.0
 40
7.0
 40
7.0
 40
7.0
 40
8.0
 40
8.0
 40
8.0
 40
9.0
 40
9.0
 40
9.0
 40
10.0
 40
10.0
 40
10.0
 40
11.0
 40
11.0
 40
11.0
 40
12.0
 40
12.0
 40
12.0
 40
13.0
 40
13.0
 40
13.0
 40
13.0
 10
5.472189668770841
 20
-1.716691080299993
 30
0.0
 10
5.472189668770841
 20
-1.596112738316249
 30
0.0
 10
5.470122611479691
 20
-1.492587618984491
 30
0.0
 10
5.463921439606242
 20
-1.397330728817333
 30
0.0
 10
5.463921439606242
 20
-1.397330728817333
 30
0.0
 10
5.626874456058559
 20
-1.397330728817333
 30
0.0
 10
5.626874456058559
 20
-1.397330728817333
 30
0.0
 10
5.626874456058559
 20
-1.397330728817333
 30
0.0
 10
5.633075627932009
 20
-1.598352050381662
 30
0.0
 10
5.633075627932009
 20
-1.598352050381662
 30
0.0
 10
5.633075627932009
 20
-1.598352050381662
 30
0.0
 10
5.641688366645134
 20
-1.598352050381662
 30
0.0
 10
5.641688366645134
 20
-1.598352050381662
 30
0.0
 10
5.688197155696006
 20
-1.460720485745931
 30
0.0
 10
5.800162758966625
 20
-1.374076334291897
 30
0.0
 10
5.92487521553267
 20
-1.374076334291897
 30
0.0
 10
5.946234807541219
 20
-1.374076334291897
 30
0.0
 10
5.961048718127793
 20
-1.376143391583047
 30
0.0
 10
5.977929686005517
 20
-1.380449760939609
 30
0.0
 10
5.977929686005517
 20
-1.380449760939609
 30
0.0
 10
5.977929686005517
 20
-1.555977375913089
 30
0.0
 10
5.977929686005517
 20
-1.555977375913089
 30
0.0
 10
5.958981660836643
 20
-1.551671006556526
 30
0.0
 10
5.939689126119244
 20
-1.549603949265376
 30
0.0
 10
5.91453992907692
 20
-1.549603949265376
 30
0.0
 10
5.783281791088901
 20
-1.549603949265376
 30
0.0
 10
5.690264212987156
 20
-1.648994954014834
 30
0.0
 10
5.664770506396307
 20
-1.788693575941715
 30
0.0
 10
5.660636391814008
 20
-1.814015027758301
 30
0.0
 10
5.656157767683183
 20
-1.84364284893145
 30
0.0
 10
5.656157767683183
 20
-1.875337727395748
 30
0.0
 10
5.656157767683183
 20
-1.875337727395748
 30
0.0
 10
5.656157767683183
 20
-2.421213107033585
 30
0.0
 10
5.656157767683183
 20
-2.421213107033585
 30
0.0
 10
5.656157767683183
 20
-2.421213107033585
 30
0.0
 10
5.472189668770841
 20
-2.421213107033585
 30
0.0
 10
5.472189668770841
 20
-2.421213107033585
 30
0.0
 10
5.472189668770841
 20
-2.421213107033585
 30
0.0
 10
5.472189668770841
 20
-1.716691080299993
 30
0.0
 10
5.472189668770841
 20
-1.716691080299993
 30
0.0
  0
ENDBLK
  5
80
330
7D
100
AcDbEntity
  8
0
100
AcDbBlockEnd
  0
BLOCK
  5
8B
330
89
100
AcDbEntity
  8
0
100
AcDbBlockBegin
  2
Block_2
 70
     0
 10
0.0
 20
0.0
 30
0.0
  3
Block_2
  1

  0
INSERT
  5
8E
330
89
100
AcDbEntity
  8
Layer 1
100
AcDbBlockReference
  2
Block_3
 10
0.0
 20
0.0
 30
0.0
  0
ENDBLK
  5
8C
330
89
100
AcDbEntity
  8
0
100
AcDbBlockEnd
  0
BLOCK
  5
8F
330
8D
100
AcDbEntity
  8
0
100
AcDbBlockBegin
  2
Block_3
 70
     0
 10
0.0
 20
0.0
 30
0.0
  3
Block_3
  1

  0
SPLINE
  5
91
330
8D
100
AcDbEntity
  8
Layer 1
100
AcDbSpline
210
0.0
220
0.0
230
1.0
 70
    11
 71
     3
 72
    41
 73
    37
 74
     0
 42
0.0000000001
 43
0.0000000001
 40
0.0
 40
0.0
 40
0.0
 40
0.0
 40
1.0
 40
1.0
 40
1.0
 40
2.0
 40
2.0
 40
2.0
 40
3.0
 40
3.0
 40
3.0
 40
4.0
 40
4.0
 40
4.0
 40
5.0
 40
5.0
 40
5.0
 40
6.0
 40
6.0
 40
6.0
 40
7.0
 40
7.0
 40
7.0
 40
8.0
 40
8.0
 40
8.0
 40
9.0
 40
9.0
 40
9.0
 40
10.0
 40
10.0
 40
10.0
 40
11.0
 40
11.0
 40
11.0
 40
12.0
 40
12.0
 40
12.0
 40
12.0
 10
1.398881021785696
 20
-5.885945636549346
 30
0.0
 10
1.398881021785696
 20
-5.885945636549346
 30
0.0
 10
0.8445651582089976
 20
-5.885945636549346
 30
0.0
 10
0.8445651582089976
 20
-5.885945636549346
 30
0.0
 10
0.8445651582089976
 20
-5.885945636549346
 30
0.0
 10
0.8445651582089976
 20
-6.399953882948622
 30
0.0
 10
0.8445651582089976
 20
-6.399953882948622
 30
0.0
 10
0.8445651582089976
 20
-6.399953882948622
 30
0.0
 10
1.462270778714293
 20
-6.399953882948622
 30
0.0
 10
1.462270778714293
 20
-6.399953882948622
 30
0.0
 10
1.462270778714293
 20
-6.399953882948622
 30
0.0
 10
1.462270778714293
 20
-6.554466415462077
 30
0.0
 10
1.462270778714293
 20
-6.554466415462077
 30
0.0
 10
1.462270778714293
 20
-6.554466415462077
 30
0.0
 10
0.6604248045223939
 20
-6.554466415462077
 30
0.0
 10
0.6604248045223939
 20
-6.554466415462077
 30
0.0
 10
0.6604248045223939
 20
-6.554466415462077
 30
0.0
 10
0.6604248045223939
 20
-5.12854139411717
 30
0.0
 10
0.6604248045223939
 20
-5.12854139411717
 30
0.0
 10
0.6604248045223939
 20
-5.12854139411717
 30
0.0
 10
1.430575900249994
 20
-5.12854139411717
 30
0.0
 10
1.430575900249994
 20
-5.12854139411717
 30
0.0
 10
1.430575900249994
 20
-5.12854139411717
 30
0.0
 10
1.430575900249994
 20
-5.283053926630625
 30
0.0
 10
1.430575900249994
 20
-5.283053926630625
 30
0.0
 10
1.430575900249994
 20
-5.283053926630625
 30
0.0
 10
0.8445651582089976
 20
-5.283053926630625
 30
0.0
 10
0.8445651582089976
 20
-5.283053926630625
 30
0.0
 10
0.8445651582089976
 20
-5.283053926630625
 30
0.0
 10
0.8445651582089976
 20
-5.733672416101303
 30
0.0
 10
0.8445651582089976
 20
-5.733672416101303
 30
0.0
 10
0.8445651582089976
 20
-5.733672416101303
 30
0.0
 10
1.398881021785696
 20
-5.733672416101303
 30
0.0
 10
1.398881021785696
 20
-5.733672416101303
 30
0.0
 10
1.398881021785696
 20
-5.733672416101303
 30
0.0
 10
1.398881021785696
 20
-5.885945636549346
 30
0.0
 10
1.398881021785696
 20
-5.885945636549346
 30
0.0
  0
SPLINE
  5
92
330
8D
100
AcDbEntity
  8
Layer 1
100
AcDbSpline
210
0.0
220
0.0
230
1.0
 70
     9
 71
     3
 72
    50
 73
    46
 74
     0
 42
0.0000000001
 43
0.0000000001
 40
0.0
 40
0.0
 40
0.0
 40
0.0
 40
1.0
 40
1.0
 40
1.0
 40
2.0
 40
2.0
 40
2.0
 40
3.0
 40
3.0
 40
3.0
 40
4.0
 40
4.0
 40
4.0
 40
5.0
 40
5.0
 40
5.0
 40
6.0
 40
6.0
 40
6.0
 40
7.0
 40
7.0
 40
7.0
 40
8.0
 40
8.0
 40
8.0
 40
9.0
 40
9.0
 40
9.0
 40
10.0
 40
10.0
 40
10.0
 40
11.0
 40
11.0
 40
11.0
 40
12.0
 40
12.0
 40
12.0
 40
13.0
 40
13.0
 40
13.0
 40
14.0
 40
14.0
 40
14.0
 40
15.0
 40
15.0
 40
15.0
 40
15.0
 10
1.69567599783997
 20
-5.807741969034175
 30
0.0
 10
1.69567599783997
 20
-5.701977537637005
 30
0.0
 10
1.693436685774557
 20
-5.61516113140871
 30
0.0
 10
1.687063259126845
 20
-5.530584037245826
 30
0.0
 10
1.687063259126845
 20
-5.530584037245826
 30
0.0
 10
1.852083332870312
 20
-5.530584037245826
 30
0.0
 10
1.852083332870312
 20
-5.530584037245826
 30
0.0
 10
1.852083332870312
 20
-5.530584037245826
 30
0.0
 10
1.862763128874587
 20
-5.699738225571593
 30
0.0
 10
1.862763128874587
 20
-5.699738225571593
 30
0.0
 10
1.862763128874587
 20
-5.699738225571593
 30
0.0
 10
1.866897243456886
 20
-5.699738225571593
 30
0.0
 10
1.866897243456886
 20
-5.699738225571593
 30
0.0
 10
1.917712401864321
 20
-5.602414278113285
 30
0.0
 10
2.036223686556916
 20
-5.50732964272039
 30
0.0
 10
2.205377874882683
 20
-5.50732964272039
 30
0.0
 10
2.347143554100714
 20
-5.50732964272039
 30
0.0
 10
2.567112900833916
 20
-5.591906736883273
 30
0.0
 10
2.567112900833916
 20
-5.943134221604494
 30
0.0
 10
2.567112900833916
 20
-5.943134221604494
 30
0.0
 10
2.567112900833916
 20
-6.554466415462077
 30
0.0
 10
2.567112900833916
 20
-6.554466415462077
 30
0.0
 10
2.567112900833916
 20
-6.554466415462077
 30
0.0
 10
2.381077744630425
 20
-6.554466415462077
 30
0.0
 10
2.381077744630425
 20
-6.554466415462077
 30
0.0
 10
2.381077744630425
 20
-6.554466415462077
 30
0.0
 10
2.381077744630425
 20
-5.96432155883878
 30
0.0
 10
2.381077744630425
 20
-5.96432155883878
 30
0.0
 10
2.381077744630425
 20
-5.799301485095313
 30
0.0
 10
2.319582790218715
 20
-5.661669920459583
 30
0.0
 10
2.144055175245236
 20
-5.661669920459583
 30
0.0
 10
2.021409775970341
 20
-5.661669920459583
 30
0.0
 10
1.926152885803183
 20
-5.748486326687878
 30
0.0
 10
1.894458007338885
 20
-5.852183700793898
 30
0.0
 10
1.886017523400023
 20
-5.875438095319335
 30
0.0
 10
1.881711154043461
 20
-5.907132973783634
 30
0.0
 10
1.881711154043461
 20
-5.938827852247932
 30
0.0
 10
1.881711154043461
 20
-5.938827852247932
 30
0.0
 10
1.881711154043461
 20
-6.554466415462077
 30
0.0
 10
1.881711154043461
 20
-6.554466415462077
 30
0.0
 10
1.881711154043461
 20
-6.554466415462077
 30
0.0
 10
1.69567599783997
 20
-6.554466415462077
 30
0.0
 10
1.69567599783997
 20
-6.554466415462077
 30
0.0
 10
1.69567599783997
 20
-6.554466415462077
 30
0.0
 10
1.69567599783997
 20
-5.807741969034175
 30
0.0
 10
1.69567599783997
 20
-5.807741969034175
 30
0.0
  0
SPLINE
  5
93
330
8D
100
AcDbEntity
  8
Layer 1
100
AcDbSpline
210
0.0
220
0.0
230
1.0
 70
     9
 71
     3
 72
    20
 73
    16
 74
     0
 42
0.0000000001
 43
0.0000000001
 40
0.0
 40
0.0
 40
0.0
 40
0.0
 40
1.0
 40
1.0
 40
1.0
 40
2.0
 40
2.0
 40
2.0
 40
3.0
 40
3.0
 40
3.0
 40
4.0
 40
4.0
 40
4.0
 40
5.0
 40
5.0
 40
5.0
 40
5.0
 10
3.409611001751764
 20
-6.03201768512394
 30
0.0
 10
3.206522622896286
 20
-6.027711315767377
 30
0.0
 10
2.976045734933072
 20
-6.063712563588238
 30
0.0
 10
2.976045734933072
 20
-6.262494573087154
 30
0.0
 10
2.976045734933072
 20
-6.383072915070898
 30
0.0
 10
3.056316459739393
 20
-6.440261500126045
 30
0.0
 10
3.151573349906551
 20
-6.440261500126045
 30
0.0
 10
3.284898545185719
 20
-6.440261500126045
 30
0.0
 10
3.369475639348603
 20
-6.355684405963162
 30
0.0
 10
3.399103460521752
 20
-6.268867999734866
 30
0.0
 10
3.405476887169464
 20
-6.24974771979173
 30
0.0
 10
3.409611001751764
 20
-6.228732637331706
 30
0.0
 10
3.409611001751764
 20
-6.209612357388569
 30
0.0
 10
3.409611001751764
 20
-6.209612357388569
 30
0.0
 10
3.409611001751764
 20
-6.03201768512394
 30
0.0
 10
3.409611001751764
 20
-6.03201768512394
 30
0.0
  0
SPLINE
  5
94
330
8D
100
AcDbEntity
  8
Layer 1
100
AcDbSpline
210
0.0
220
0.0
230
1.0
 70
    11
 71
     3
 72
    47
 73
    43
 74
     0
 42
0.0000000001
 43
0.0000000001
 40
0.0
 40
0.0
 40
0.0
 40
0.0
 40
1.0
 40
1.0
 40
1.0
 40
2.0
 40
2.0
 40
2.0
 40
3.0
 40
3.0
 40
3.0
 40
4.0
 40
4.0
 40
4.0
 40
5.0
 40
5.0
 40
5.0
 40
6.0
 40
6.0
 40
6.0
 40
7.0
 40
7.0
 40
7.0
 40
8.0
 40
8.0
 40
8.0
 40
9.0
 40
9.0
 40
9.0
 40
10.0
 40
10.0
 40
10.0
 40
11.0
 40
11.0
 40
11.0
 40
12.0
 40
12.0
 40
12.0
 40
13.0
 40
13.0
 40
13.0
 40
14.0
 40
14.0
 40
14.0
 40
14.0
 10
3.437171765633762
 20
-6.554466415462077
 30
0.0
 10
3.437171765633762
 20
-6.554466415462077
 30
0.0
 10
3.422357855047188
 20
-6.425447589539471
 30
0.0
 10
3.422357855047188
 20
-6.425447589539471
 30
0.0
 10
3.422357855047188
 20
-6.425447589539471
 30
0.0
 10
3.415984428399476
 20
-6.425447589539471
 30
0.0
 10
3.415984428399476
 20
-6.425447589539471
 30
0.0
 10
3.358968098118591
 20
-6.505890569120055
 30
0.0
 10
3.248897297364859
 20
-6.577720809987514
 30
0.0
 10
3.102825248790265
 20
-6.577720809987514
 30
0.0
 10
2.895602755352488
 20
-6.577720809987514
 30
0.0
 10
2.789838323955318
 20
-6.431821016187184
 30
0.0
 10
2.789838323955318
 20
-6.28368191032144
 30
0.0
 10
2.789838323955318
 20
-6.03615179970624
 30
0.0
 10
3.00980767068852
 20
-5.900759547135921
 30
0.0
 10
3.405476887169464
 20
-5.902826604427071
 30
0.0
 10
3.405476887169464
 20
-5.902826604427071
 30
0.0
 10
3.405476887169464
 20
-5.881811521967047
 30
0.0
 10
3.405476887169464
 20
-5.881811521967047
 30
0.0
 10
3.405476887169464
 20
-5.797062173029901
 30
0.0
 10
3.382222492644027
 20
-5.644788952581858
 30
0.0
 10
3.172760687140837
 20
-5.644788952581858
 30
0.0
 10
3.077503796973679
 20
-5.644788952581858
 30
0.0
 10
2.978112792224222
 20
-5.674416773755007
 30
0.0
 10
2.9061102965825
 20
-5.72092556280588
 30
0.0
 10
2.9061102965825
 20
-5.72092556280588
 30
0.0
 10
2.863907876888189
 20
-5.598280163530986
 30
0.0
 10
2.863907876888189
 20
-5.598280163530986
 30
0.0
 10
2.948484971051073
 20
-5.54333089054125
 30
0.0
 10
3.071130370325967
 20
-5.50732964272039
 30
0.0
 10
3.200149196248573
 20
-5.50732964272039
 30
0.0
 10
3.513308375857784
 20
-5.50732964272039
 30
0.0
 10
3.589444986081805
 20
-5.72092556280588
 30
0.0
 10
3.589444986081805
 20
-5.926080998952508
 30
0.0
 10
3.589444986081805
 20
-5.926080998952508
 30
0.0
 10
3.589444986081805
 20
-6.309003362138026
 30
0.0
 10
3.589444986081805
 20
-6.309003362138026
 30
0.0
 10
3.589444986081805
 20
-6.397886825657472
 30
0.0
 10
3.593751355438367
 20
-6.484703231885768
 30
0.0
 10
3.606325953959529
 20
-6.554466415462077
 30
0.0
 10
3.606325953959529
 20
-6.554466415462077
 30
0.0
 10
3.437171765633762
 20
-6.554466415462077
 30
0.0
 10
3.437171765633762
 20
-6.554466415462077
 30
0.0
  0
SPLINE
  5
95
330
8D
100
AcDbEntity
  8
Layer 1
100
AcDbSpline
210
0.0
220
0.0
230
1.0
 70
     9
 71
     3
 72
    26
 73
    22
 74
     0
 42
0.0000000001
 43
0.0000000001
 40
0.0
 40
0.0
 40
0.0
 40
0.0
 40
1.0
 40
1.0
 40
1.0
 40
2.0
 40
2.0
 40
2.0
 40
3.0
 40
3.0
 40
3.0
 40
4.0
 40
4.0
 40
4.0
 40
5.0
 40
5.0
 40
5.0
 40
6.0
 40
6.0
 40
6.0
 40
7.0
 40
7.0
 40
7.0
 40
7.0
 10
4.074514430404982
 20
-6.14398328839456
 30
0.0
 10
4.074514430404982
 20
-6.167409937694259
 30
0.0
 10
4.078993054535807
 20
-6.190664332219695
 30
0.0
 10
4.083127169118107
 20
-6.211679414679719
 30
0.0
 10
4.118956162164705
 20
-6.340870495376588
 30
0.0
 10
4.22713216040155
 20
-6.429581704121771
 30
0.0
 10
4.362524412971868
 20
-6.429581704121771
 30
0.0
 10
4.557172307888484
 20
-6.429581704121771
 30
0.0
 10
4.673272025741404
 20
-6.270935057026016
 30
0.0
 10
4.673272025741404
 20
-6.03615179970624
 30
0.0
 10
4.673272025741404
 20
-5.830996363559612
 30
0.0
 10
4.567507594344234
 20
-5.65529649381187
 30
0.0
 10
4.368725584845318
 20
-5.65529649381187
 30
0.0
 10
4.241946070988125
 20
-5.65529649381187
 30
0.0
 10
4.12343478629553
 20
-5.742112900040166
 30
0.0
 10
4.085194226409257
 20
-5.883878579258197
 30
0.0
 10
4.081060111826957
 20
-5.905065916492484
 30
0.0
 10
4.074514430404982
 20
-5.930387368309069
 30
0.0
 10
4.074514430404982
 20
-5.960015189482218
 30
0.0
 10
4.074514430404982
 20
-5.960015189482218
 30
0.0
 10
4.074514430404982
 20
-6.14398328839456
 30
0.0
 10
4.074514430404982
 20
-6.14398328839456
 30
0.0
  0
SPLINE
  5
96
330
8D
100
AcDbEntity
  8
Layer 1
100
AcDbSpline
210
0.0
220
0.0
230
1.0
 70
     9
 71
     3
 72
    41
 73
    37
 74
     0
 42
0.0000000001
 43
0.0000000001
 40
0.0
 40
0.0
 40
0.0
 40
0.0
 40
1.0
 40
1.0
 40
1.0
 40
2.0
 40
2.0
 40
2.0
 40
3.0
 40
3.0
 40
3.0
 40
4.0
 40
4.0
 40
4.0
 40
5.0
 40
5.0
 40
5.0
 40
6.0
 40
6.0
 40
6.0
 40
7.0
 40
7.0
 40
7.0
 40
8.0
 40
8.0
 40
8.0
 40
9.0
 40
9.0
 40
9.0
 40
10.0
 40
10.0
 40
10.0
 40
11.0
 40
11.0
 40
11.0
 40
12.0
 40
12.0
 40
12.0
 40
12.0
 10
3.882278102328042
 20
-6.554466415462077
 30
0.0
 10
3.886412216910341
 20
-6.484703231885768
 30
0.0
 10
3.890546331492641
 20
-6.381005857779748
 30
0.0
 10
3.890546331492641
 20
-6.290055336969152
 30
0.0
 10
3.890546331492641
 20
-6.290055336969152
 30
0.0
 10
3.890546331492641
 20
-5.052404783893148
 30
0.0
 10
3.890546331492641
 20
-5.052404783893148
 30
0.0
 10
3.890546331492641
 20
-5.052404783893148
 30
0.0
 10
4.074514430404982
 20
-5.052404783893148
 30
0.0
 10
4.074514430404982
 20
-5.052404783893148
 30
0.0
 10
4.074514430404982
 20
-5.052404783893148
 30
0.0
 10
4.074514430404982
 20
-5.695604110989293
 30
0.0
 10
4.074514430404982
 20
-5.695604110989293
 30
0.0
 10
4.074514430404982
 20
-5.695604110989293
 30
0.0
 10
4.078993054535807
 20
-5.695604110989293
 30
0.0
 10
4.078993054535807
 20
-5.695604110989293
 30
0.0
 10
4.144449868755554
 20
-5.581399195653261
 30
0.0
 10
4.262961153448149
 20
-5.50732964272039
 30
0.0
 10
4.427981227191615
 20
-5.50732964272039
 30
0.0
 10
4.681884764454529
 20
-5.50732964272039
 30
0.0
 10
4.86171874878457
 20
-5.71885850551473
 30
0.0
 10
4.85965169149342
 20
-6.029778373058527
 30
0.0
 10
4.85965169149342
 20
-6.395819768366322
 30
0.0
 10
4.628830293981681
 20
-6.577720809987514
 30
0.0
 10
4.400420463309616
 20
-6.577720809987514
 30
0.0
 10
4.252281357443874
 20
-6.577720809987514
 30
0.0
 10
4.133770072751279
 20
-6.520532224932367
 30
0.0
 10
4.057633462527258
 20
-6.385139972362048
 30
0.0
 10
4.057633462527258
 20
-6.385139972362048
 30
0.0
 10
4.051432290653808
 20
-6.385139972362048
 30
0.0
 10
4.051432290653808
 20
-6.385139972362048
 30
0.0
 10
4.051432290653808
 20
-6.385139972362048
 30
0.0
 10
4.042819551940683
 20
-6.554466415462077
 30
0.0
 10
4.042819551940683
 20
-6.554466415462077
 30
0.0
 10
4.042819551940683
 20
-6.554466415462077
 30
0.0
 10
3.882278102328042
 20
-6.554466415462077
 30
0.0
 10
3.882278102328042
 20
-6.554466415462077
 30
0.0
  0
SPLINE
  5
97
330
8D
100
AcDbEntity
  8
Layer 1
100
AcDbSpline
210
0.0
220
0.0
230
1.0
 70
    11
 71
     3
 72
    17
 73
    13
 74
     0
 42
0.0000000001
 43
0.0000000001
 40
0.0
 40
0.0
 40
0.0
 40
0.0
 40
1.0
 40
1.0
 40
1.0
 40
2.0
 40
2.0
 40
2.0
 40
3.0
 40
3.0
 40
3.0
 40
4.0
 40
4.0
 40
4.0
 40
4.0
 10
5.094607203587459
 20
-5.052404783893148
 30
0.0
 10
5.094607203587459
 20
-5.052404783893148
 30
0.0
 10
5.280986869339475
 20
-5.052404783893148
 30
0.0
 10
5.280986869339475
 20
-5.052404783893148
 30
0.0
 10
5.280986869339475
 20
-5.052404783893148
 30
0.0
 10
5.280986869339475
 20
-6.554466415462077
 30
0.0
 10
5.280986869339475
 20
-6.554466415462077
 30
0.0
 10
5.280986869339475
 20
-6.554466415462077
 30
0.0
 10
5.094607203587459
 20
-6.554466415462077
 30
0.0
 10
5.094607203587459
 20
-6.554466415462077
 30
0.0
 10
5.094607203587459
 20
-6.554466415462077
 30
0.0
 10
5.094607203587459
 20
-5.052404783893148
 30
0.0
 10
5.094607203587459
 20
-5.052404783893148
 30
0.0
  0
SPLINE
  5
98
330
8D
100
AcDbEntity
  8
Layer 1
100
AcDbSpline
210
0.0
220
0.0
230
1.0
 70
     9
 71
     3
 72
    14
 73
    10
 74
     0
 42
0.0000000001
 43
0.0000000001
 40
0.0
 40
0.0
 40
0.0
 40
0.0
 40
1.0
 40
1.0
 40
1.0
 40
2.0
 40
2.0
 40
2.0
 40
3.0
 40
3.0
 40
3.0
 40
3.0
 10
6.243546547918279
 20
-5.943134221604494
 30
0.0
 10
6.245958114757955
 20
-5.824622936911899
 30
0.0
 10
6.194970701576257
 20
-5.640654837999559
 30
0.0
 10
5.985508896073067
 20
-5.640654837999559
 30
0.0
 10
5.797406682578426
 20
-5.640654837999559
 30
0.0
 10
5.714724390932429
 20
-5.814115395681888
 30
0.0
 10
5.699910480345855
 20
-5.943134221604494
 30
0.0
 10
5.699910480345855
 20
-5.943134221604494
 30
0.0
 10
6.243546547918279
 20
-5.943134221604494
 30
0.0
 10
6.243546547918279
 20
-5.943134221604494
 30
0.0
  0
SPLINE
  5
99
330
8D
100
AcDbEntity
  8
Layer 1
100
AcDbSpline
210
0.0
220
0.0
230
1.0
 70
     9
 71
     3
 72
    32
 73
    28
 74
     0
 42
0.0000000001
 43
0.0000000001
 40
0.0
 40
0.0
 40
0.0
 40
0.0
 40
1.0
 40
1.0
 40
1.0
 40
2.0
 40
2.0
 40
2.0
 40
3.0
 40
3.0
 40
3.0
 40
4.0
 40
4.0
 40
4.0
 40
5.0
 40
5.0
 40
5.0
 40
6.0
 40
6.0
 40
6.0
 40
7.0
 40
7.0
 40
7.0
 40
8.0
 40
8.0
 40
8.0
 40
9.0
 40
9.0
 40
9.0
 40
9.0
 10
5.697843423054705
 20
-6.0762871621094
 30
0.0
 10
5.701977537637005
 20
-6.328123642081163
 30
0.0
 10
5.862863496798173
 20
-6.431821016187184
 30
0.0
 10
6.049243162550189
 20
-6.431821016187184
 30
0.0
 10
6.182223848280833
 20
-6.431821016187184
 30
0.0
 10
6.262839082635679
 20
-6.408566621661747
 30
0.0
 10
6.332430011437725
 20
-6.378938800488598
 30
0.0
 10
6.332430011437725
 20
-6.378938800488598
 30
0.0
 10
6.364124889902024
 20
-6.512091740993505
 30
0.0
 10
6.364124889902024
 20
-6.512091740993505
 30
0.0
 10
6.298668075682277
 20
-6.541719562166654
 30
0.0
 10
6.186702472411657
 20
-6.575653752696364
 30
0.0
 10
6.02374945595934
 20
-6.575653752696364
 30
0.0
 10
5.70852321905898
 20
-6.575653752696364
 30
0.0
 10
5.520076496015814
 20
-6.368259004484324
 30
0.0
 10
5.520076496015814
 20
-6.059406194231676
 30
0.0
 10
5.520076496015814
 20
-5.750553383979028
 30
0.0
 10
5.701977537637005
 20
-5.50732964272039
 30
0.0
 10
6.000322806659641
 20
-5.50732964272039
 30
0.0
 10
6.334497068728875
 20
-5.50732964272039
 30
0.0
 10
6.423380532248321
 20
-5.801368542386463
 30
0.0
 10
6.423380532248321
 20
-5.989643010655367
 30
0.0
 10
6.423380532248321
 20
-6.027711315767377
 30
0.0
 10
6.419246417666021
 20
-6.057339136940526
 30
0.0
 10
6.417179360374872
 20
-6.0762871621094
 30
0.0
 10
6.417179360374872
 20
-6.0762871621094
 30
0.0
 10
5.697843423054705
 20
-6.0762871621094
 30
0.0
 10
5.697843423054705
 20
-6.0762871621094
 30
0.0
  0
SPLINE
  5
9A
330
8D
100
AcDbEntity
  8
Layer 1
100
AcDbSpline
210
0.0
220
0.0
230
1.0
 70
     9
 71
     3
 72
    26
 73
    22
 74
     0
 42
0.0000000001
 43
0.0000000001
 40
0.0
 40
0.0
 40
0.0
 40
0.0
 40
1.0
 40
1.0
 40
1.0
 40
2.0
 40
2.0
 40
2.0
 40
3.0
 40
3.0
 40
3.0
 40
4.0
 40
4.0
 40
4.0
 40
5.0
 40
5.0
 40
5.0
 40
6.0
 40
6.0
 40
6.0
 40
7.0
 40
7.0
 40
7.0
 40
7.0
 10
7.352867294168728
 20
-5.947268336186794
 30
0.0
 10
7.352867294168728
 20
-5.924013941661358
 30
0.0
 10
7.350800236877578
 20
-5.892319063197059
 30
0.0
 10
7.344254555455603
 20
-5.869064668671622
 30
0.0
 10
7.316693791573604
 20
-5.750553383979028
 30
0.0
 10
7.215407984307259
 20
-5.65322943652072
 30
0.0
 10
7.075537107606115
 20
-5.65322943652072
 30
0.0
 10
6.88295626998065
 20
-5.65322943652072
 30
0.0
 10
6.76892360941888
 20
-5.822555879620749
 30
0.0
 10
6.76892360941888
 20
-6.048898653001664
 30
0.0
 10
6.76892360941888
 20
-6.256121146439442
 30
0.0
 10
6.870553926233751
 20
-6.427514646830621
 30
0.0
 10
7.071402993023816
 20
-6.427514646830621
 30
0.0
 10
7.19611544958986
 20
-6.427514646830621
 30
0.0
 10
7.310492619700155
 20
-6.345004609958888
 30
0.0
 10
7.344254555455603
 20
-6.205478242806269
 30
0.0
 10
7.350800236877578
 20
-6.17998453621542
 30
0.0
 10
7.352867294168728
 20
-6.154663084398834
 30
0.0
 10
7.352867294168728
 20
-6.125035263225686
 30
0.0
 10
7.352867294168728
 20
-6.125035263225686
 30
0.0
 10
7.352867294168728
 20
-5.947268336186794
 30
0.0
 10
7.352867294168728
 20
-5.947268336186794
 30
0.0
  0
SPLINE
  5
9B
330
8D
100
AcDbEntity
  8
Layer 1
100
AcDbSpline
210
0.0
220
0.0
230
1.0
 70
    11
 71
     3
 72
    41
 73
    37
 74
     0
 42
0.0000000001
 43
0.0000000001
 40
0.0
 40
0.0
 40
0.0
 40
0.0
 40
1.0
 40
1.0
 40
1.0
 40
2.0
 40
2.0
 40
2.0
 40
3.0
 40
3.0
 40
3.0
 40
4.0
 40
4.0
 40
4.0
 40
5.0
 40
5.0
 40
5.0
 40
6.0
 40
6.0
 40
6.0
 40
7.0
 40
7.0
 40
7.0
 40
8.0
 40
8.0
 40
8.0
 40
9.0
 40
9.0
 40
9.0
 40
10.0
 40
10.0
 40
10.0
 40
11.0
 40
11.0
 40
11.0
 40
12.0
 40
12.0
 40
12.0
 40
12.0
 10
7.538902450372218
 20
-5.052404783893148
 30
0.0
 10
7.538902450372218
 20
-5.052404783893148
 30
0.0
 10
7.538902450372218
 20
-6.290055336969152
 30
0.0
 10
7.538902450372218
 20
-6.290055336969152
 30
0.0
 10
7.538902450372218
 20
-6.381005857779748
 30
0.0
 10
7.540969507663368
 20
-6.484703231885768
 30
0.0
 10
7.547515189085343
 20
-6.554466415462077
 30
0.0
 10
7.547515189085343
 20
-6.554466415462077
 30
0.0
 10
7.380428058050726
 20
-6.554466415462077
 30
0.0
 10
7.380428058050726
 20
-6.554466415462077
 30
0.0
 10
7.380428058050726
 20
-6.554466415462077
 30
0.0
 10
7.371815319337602
 20
-6.376699488423186
 30
0.0
 10
7.371815319337602
 20
-6.376699488423186
 30
0.0
 10
7.371815319337602
 20
-6.376699488423186
 30
0.0
 10
7.367681204755302
 20
-6.376699488423186
 30
0.0
 10
7.367681204755302
 20
-6.376699488423186
 30
0.0
 10
7.310492619700155
 20
-6.49107665853348
 30
0.0
 10
7.18578016313411
 20
-6.577720809987514
 30
0.0
 10
7.018348522550968
 20
-6.577720809987514
 30
0.0
 10
6.77099066671003
 20
-6.577720809987514
 30
0.0
 10
6.580476886375714
 20
-6.368259004484324
 30
0.0
 10
6.580476886375714
 20
-6.057339136940526
 30
0.0
 10
6.578409829084564
 20
-5.716791448223579
 30
0.0
 10
6.789938691878904
 20
-5.50732964272039
 30
0.0
 10
7.039708114559517
 20
-5.50732964272039
 30
0.0
 10
7.19611544958986
 20
-5.50732964272039
 30
0.0
 10
7.30187988098703
 20
-5.581399195653261
 30
0.0
 10
7.348388670037903
 20
-5.663909232524995
 30
0.0
 10
7.348388670037903
 20
-5.663909232524995
 30
0.0
 10
7.352867294168728
 20
-5.663909232524995
 30
0.0
 10
7.352867294168728
 20
-5.663909232524995
 30
0.0
 10
7.352867294168728
 20
-5.663909232524995
 30
0.0
 10
7.352867294168728
 20
-5.052404783893148
 30
0.0
 10
7.352867294168728
 20
-5.052404783893148
 30
0.0
 10
7.352867294168728
 20
-5.052404783893148
 30
0.0
 10
7.538902450372218
 20
-5.052404783893148
 30
0.0
 10
7.538902450372218
 20
-5.052404783893148
 30
0.0
  0
ENDBLK
  5
90
330
8D
100
AcDbEntity
  8
0
100
AcDbBlockEnd
  0
BLOCK
  5
9E
330
9C
100
AcDbEntity
  8
0
100
AcDbBlockBegin
  2
Block_4
 70
     0
 10
0.0
 20
0.0
 30
0.0
  3
Block_4
  1

  0
INSERT
  5
A1
330
9C
100
AcDbEntity
  8
Layer 1
100
AcDbBlockReference
  2
Block_5
 10
0.0
 20
0.0
 30
0.0
  0
ENDBLK
  5
9F
330
9C
100
AcDbEntity
  8
0
100
AcDbBlockEnd
  0
BLOCK
  5
A2
330
A0
100
AcDbEntity
  8
0
100
AcDbBlockBegin
  2
Block_5
 70
     0
 10
0.0
 20
0.0
 30
0.0
  3
Block_5
  1

  0
SPLINE
  5
A4
330
A0
100
AcDbEntity
  8
Layer 1
100
AcDbSpline
210
0.0
220
0.0
230
1.0
 70
    11
 71
     3
 72
    29
 73
    25
 74
     0
 42
0.0000000001
 43
0.0000000001
 40
0.0
 40
0.0
 40
0.0
 40
0.0
 40
1.0
 40
1.0
 40
1.0
 40
2.0
 40
2.0
 40
2.0
 40
3.0
 40
3.0
 40
3.0
 40
4.0
 40
4.0
 40
4.0
 40
5.0
 40
5.0
 40
5.0
 40
6.0
 40
6.0
 40
6.0
 40
7.0
 40
7.0
 40
7.0
 40
8.0
 40
8.0
 40
8.0
 40
8.0
 10
0.9334486217284434
 20
-9.418546547124529
 30
0.0
 10
0.9334486217284434
 20
-9.418546547124529
 30
0.0
 10
0.4998833549097514
 20
-9.418546547124529
 30
0.0
 10
0.4998833549097514
 20
-9.418546547124529
 30
0.0
 10
0.4998833549097514
 20
-9.418546547124529
 30
0.0
 10
0.4998833549097514
 20
-9.262139212094187
 30
0.0
 10
0.4998833549097514
 20
-9.262139212094187
 30
0.0
 10
0.4998833549097514
 20
-9.262139212094187
 30
0.0
 10
1.555460611590301
 20
-9.262139212094187
 30
0.0
 10
1.555460611590301
 20
-9.262139212094187
 30
0.0
 10
1.555460611590301
 20
-9.262139212094187
 30
0.0
 10
1.555460611590301
 20
-9.418546547124529
 30
0.0
 10
1.555460611590301
 20
-9.418546547124529
 30
0.0
 10
1.555460611590301
 20
-9.418546547124529
 30
0.0
 10
1.119656032706197
 20
-9.418546547124529
 30
0.0
 10
1.119656032706197
 20
-9.418546547124529
 30
0.0
 10
1.119656032706197
 20
-9.418546547124529
 30
0.0
 10
1.119656032706197
 20
-10.68806423343909
 30
0.0
 10
1.119656032706197
 20
-10.68806423343909
 30
0.0
 10
1.119656032706197
 20
-10.68806423343909
 30
0.0
 10
0.9334486217284434
 20
-10.68806423343909
 30
0.0
 10
0.9334486217284434
 20
-10.68806423343909
 30
0.0
 10
0.9334486217284434
 20
-10.68806423343909
 30
0.0
 10
0.9334486217284434
 20
-9.418546547124529
 30
0.0
 10
0.9334486217284434
 20
-9.418546547124529
 30
0.0
  0
SPLINE
  5
A5
330
A0
100
AcDbEntity
  8
Layer 1
100
AcDbSpline
210
0.0
220
0.0
230
1.0
 70
     9
 71
     3
 72
    20
 73
    16
 74
     0
 42
0.0000000001
 43
0.0000000001
 40
0.0
 40
0.0
 40
0.0
 40
0.0
 40
1.0
 40
1.0
 40
1.0
 40
2.0
 40
2.0
 40
2.0
 40
3.0
 40
3.0
 40
3.0
 40
4.0
 40
4.0
 40
4.0
 40
5.0
 40
5.0
 40
5.0
 40
5.0
 10
2.112360296780937
 20
-10.16544324832669
 30
0.0
 10
1.909271917925459
 20
-10.16130913374439
 30
0.0
 10
1.678795029962245
 20
-10.19713812679099
 30
0.0
 10
1.678795029962245
 20
-10.39626464583843
 30
0.0
 10
1.678795029962245
 20
-10.51684298782218
 30
0.0
 10
1.759065754768567
 20
-10.5736870633288
 30
0.0
 10
1.854322644935725
 20
-10.5736870633288
 30
0.0
 10
1.987647840214893
 20
-10.5736870633288
 30
0.0
 10
2.072224934377777
 20
-10.48928222394018
 30
0.0
 10
2.101852755550925
 20
-10.40246581771188
 30
0.0
 10
2.108226182198638
 20
-10.38351779254301
 30
0.0
 10
2.112360296780937
 20
-10.36215820053446
 30
0.0
 10
2.112360296780937
 20
-10.34321017536558
 30
0.0
 10
2.112360296780937
 20
-10.34321017536558
 30
0.0
 10
2.112360296780937
 20
-10.16544324832669
 30
0.0
 10
2.112360296780937
 20
-10.16544324832669
 30
0.0
  0
SPLINE
  5
A6
330
A0
100
AcDbEntity
  8
Layer 1
100
AcDbSpline
210
0.0
220
0.0
230
1.0
 70
    11
 71
     3
 72
    47
 73
    43
 74
     0
 42
0.0000000001
 43
0.0000000001
 40
0.0
 40
0.0
 40
0.0
 40
0.0
 40
1.0
 40
1.0
 40
1.0
 40
2.0
 40
2.0
 40
2.0
 40
3.0
 40
3.0
 40
3.0
 40
4.0
 40
4.0
 40
4.0
 40
5.0
 40
5.0
 40
5.0
 40
6.0
 40
6.0
 40
6.0
 40
7.0
 40
7.0
 40
7.0
 40
8.0
 40
8.0
 40
8.0
 40
9.0
 40
9.0
 40
9.0
 40
10.0
 40
10.0
 40
10.0
 40
11.0
 40
11.0
 40
11.0
 40
12.0
 40
12.0
 40
12.0
 40
13.0
 40
13.0
 40
13.0
 40
14.0
 40
14.0
 40
14.0
 40
14.0
 10
2.139921060662936
 20
-10.68806423343909
 30
0.0
 10
2.139921060662936
 20
-10.68806423343909
 30
0.0
 10
2.125107150076362
 20
-10.55887315274222
 30
0.0
 10
2.125107150076362
 20
-10.55887315274222
 30
0.0
 10
2.125107150076362
 20
-10.55887315274222
 30
0.0
 10
2.11873372342865
 20
-10.55887315274222
 30
0.0
 10
2.11873372342865
 20
-10.55887315274222
 30
0.0
 10
2.061717393147765
 20
-10.63948838709707
 30
0.0
 10
1.951646592394032
 20
-10.71149088273879
 30
0.0
 10
1.805574543819439
 20
-10.71149088273879
 30
0.0
 10
1.598352050381662
 20
-10.71149088273879
 30
0.0
 10
1.492587618984491
 20
-10.5654188341642
 30
0.0
 10
1.492587618984491
 20
-10.41727972829846
 30
0.0
 10
1.492587618984491
 20
-10.16992187245752
 30
0.0
 10
1.712556965717694
 20
-10.0345296198872
 30
0.0
 10
2.108226182198638
 20
-10.03659667717835
 30
0.0
 10
2.108226182198638
 20
-10.03659667717835
 30
0.0
 10
2.108226182198638
 20
-10.0152370851698
 30
0.0
 10
2.108226182198638
 20
-10.0152370851698
 30
0.0
 10
2.108226182198638
 20
-9.93083224578118
 30
0.0
 10
2.084971787673201
 20
-9.778559025333137
 30
0.0
 10
1.875509982170011
 20
-9.778559025333137
 30
0.0
 10
1.780253092002853
 20
-9.778559025333137
 30
0.0
 10
1.680862087253395
 20
-9.807842336957762
 30
0.0
 10
1.608859591611674
 20
-9.85469563555716
 30
0.0
 10
1.608859591611674
 20
-9.85469563555716
 30
0.0
 10
1.566657171917363
 20
-9.731705726733741
 30
0.0
 10
1.566657171917363
 20
-9.731705726733741
 30
0.0
 10
1.651234266080247
 20
-9.676928708518268
 30
0.0
 10
1.773879665355141
 20
-9.640755205923145
 30
0.0
 10
1.902898491277747
 20
-9.640755205923145
 30
0.0
 10
2.216057670886957
 20
-9.640755205923145
 30
0.0
 10
2.292194281110979
 20
-9.85469563555716
 30
0.0
 10
2.292194281110979
 20
-10.05967881692952
 30
0.0
 10
2.292194281110979
 20
-10.05967881692952
 30
0.0
 10
2.292194281110979
 20
-10.4427734348893
 30
0.0
 10
2.292194281110979
 20
-10.4427734348893
 30
0.0
 10
2.292194281110979
 20
-10.53165689840875
 30
0.0
 10
2.296500650467541
 20
-10.61812879508852
 30
0.0
 10
2.309075248988703
 20
-10.68806423343909
 30
0.0
 10
2.309075248988703
 20
-10.68806423343909
 30
0.0
 10
2.139921060662936
 20
-10.68806423343909
 30
0.0
 10
2.139921060662936
 20
-10.68806423343909
 30
0.0
  0
SPLINE
  5
A7
330
A0
100
AcDbEntity
  8
Layer 1
100
AcDbSpline
210
0.0
220
0.0
230
1.0
 70
     9
 71
     3
 72
    44
 73
    40
 74
     0
 42
0.0000000001
 43
0.0000000001
 40
0.0
 40
0.0
 40
0.0
 40
0.0
 40
1.0
 40
1.0
 40
1.0
 40
2.0
 40
2.0
 40
2.0
 40
3.0
 40
3.0
 40
3.0
 40
4.0
 40
4.0
 40
4.0
 40
5.0
 40
5.0
 40
5.0
 40
6.0
 40
6.0
 40
6.0
 40
7.0
 40
7.0
 40
7.0
 40
8.0
 40
8.0
 40
8.0
 40
9.0
 40
9.0
 40
9.0
 40
10.0
 40
10.0
 40
10.0
 40
11.0
 40
11.0
 40
11.0
 40
12.0
 40
12.0
 40
12.0
 40
13.0
 40
13.0
 40
13.0
 40
13.0
 10
2.593123371747552
 20
-9.983542206705504
 30
0.0
 10
2.593123371747552
 20
-9.862963864721759
 30
0.0
 10
2.59088405968214
 20
-9.75926649061574
 30
0.0
 10
2.584510633034427
 20
-9.664181855222844
 30
0.0
 10
2.584510633034427
 20
-9.664181855222844
 30
0.0
 10
2.747463649486745
 20
-9.664181855222844
 30
0.0
 10
2.747463649486745
 20
-9.664181855222844
 30
0.0
 10
2.747463649486745
 20
-9.664181855222844
 30
0.0
 10
2.753837076134457
 20
-9.865030922012909
 30
0.0
 10
2.753837076134457
 20
-9.865030922012909
 30
0.0
 10
2.753837076134457
 20
-9.865030922012909
 30
0.0
 10
2.762277560073319
 20
-9.865030922012909
 30
0.0
 10
2.762277560073319
 20
-9.865030922012909
 30
0.0
 10
2.808786349124192
 20
-9.727571612151441
 30
0.0
 10
2.920924207169074
 20
-9.640755205923145
 30
0.0
 10
3.045808918509381
 20
-9.640755205923145
 30
0.0
 10
3.066996255743667
 20
-9.640755205923145
 30
0.0
 10
3.081810166330241
 20
-9.642822263214295
 30
0.0
 10
3.098691134207966
 20
-9.647300887345119
 30
0.0
 10
3.098691134207966
 20
-9.647300887345119
 30
0.0
 10
3.098691134207966
 20
-9.822656247544335
 30
0.0
 10
3.098691134207966
 20
-9.822656247544335
 30
0.0
 10
3.079570854264829
 20
-9.818522132962035
 30
0.0
 10
3.060622829095955
 20
-9.816455075670885
 30
0.0
 10
3.035129122505106
 20
-9.816455075670885
 30
0.0
 10
2.90404323929135
 20
-9.816455075670885
 30
0.0
 10
2.811025661189604
 20
-9.916018335194607
 30
0.0
 10
2.785531954598756
 20
-10.05554470234722
 30
0.0
 10
2.781397840016456
 20
-10.08103840893807
 30
0.0
 10
2.777091470659894
 20
-10.11066623011122
 30
0.0
 10
2.777091470659894
 20
-10.14236110857552
 30
0.0
 10
2.777091470659894
 20
-10.14236110857552
 30
0.0
 10
2.777091470659894
 20
-10.68806423343909
 30
0.0
 10
2.777091470659894
 20
-10.68806423343909
 30
0.0
 10
2.777091470659894
 20
-10.68806423343909
 30
0.0
 10
2.593123371747552
 20
-10.68806423343909
 30
0.0
 10
2.593123371747552
 20
-10.68806423343909
 30
0.0
 10
2.593123371747552
 20
-10.68806423343909
 30
0.0
 10
2.593123371747552
 20
-9.983542206705504
 30
0.0
 10
2.593123371747552
 20
-9.983542206705504
 30
0.0
  0
SPLINE
  5
A8
330
A0
100
AcDbEntity
  8
Layer 1
100
AcDbSpline
210
0.0
220
0.0
230
1.0
 70
     9
 71
     3
 72
    26
 73
    22
 74
     0
 42
0.0000000001
 43
0.0000000001
 40
0.0
 40
0.0
 40
0.0
 40
0.0
 40
1.0
 40
1.0
 40
1.0
 40
2.0
 40
2.0
 40
2.0
 40
3.0
 40
3.0
 40
3.0
 40
4.0
 40
4.0
 40
4.0
 40
5.0
 40
5.0
 40
5.0
 40
6.0
 40
6.0
 40
6.0
 40
7.0
 40
7.0
 40
7.0
 40
7.0
 10
3.957897948229275
 20
-10.06829155564265
 30
0.0
 10
3.957897948229275
 20
-10.03659667717835
 30
0.0
 10
3.955830890938125
 20
-10.00903591329635
 30
0.0
 10
3.947218152225001
 20
-9.983542206705504
 30
0.0
 10
3.913456216469553
 20
-9.875710718017183
 30
0.0
 10
3.822505695658957
 20
-9.786827254497737
 30
0.0
 10
3.687113443088638
 20
-9.786827254497737
 30
0.0
 10
3.509518770824009
 20
-9.786827254497737
 30
0.0
 10
3.382567002192552
 20
-9.93703341765463
 30
0.0
 10
3.382567002192552
 20
-10.17405598703982
 30
0.0
 10
3.382567002192552
 20
-10.37490505382988
 30
0.0
 10
3.48402506423316
 20
-10.5419921848645
 30
0.0
 10
3.685046385797488
 20
-10.5419921848645
 30
0.0
 10
3.799423555907783
 20
-10.5419921848645
 30
0.0
 10
3.902776420465278
 20
-10.4703341987713
 30
0.0
 10
3.943084037642701
 20
-10.35182291407871
 30
0.0
 10
3.953763833646975
 20
-10.32012803561441
 30
0.0
 10
3.957897948229275
 20
-10.28395453301929
 30
0.0
 10
3.957897948229275
 20
-10.25225965455499
 30
0.0
 10
3.957897948229275
 20
-10.25225965455499
 30
0.0
 10
3.957897948229275
 20
-10.06829155564265
 30
0.0
 10
3.957897948229275
 20
-10.06829155564265
 30
0.0
  0
SPLINE
  5
A9
330
A0
100
AcDbEntity
  8
Layer 1
100
AcDbSpline
210
0.0
220
0.0
230
1.0
 70
     9
 71
     3
 72
    56
 73
    52
 74
     0
 42
0.0000000001
 43
0.0000000001
 40
0.0
 40
0.0
 40
0.0
 40
0.0
 40
1.0
 40
1.0
 40
1.0
 40
2.0
 40
2.0
 40
2.0
 40
3.0
 40
3.0
 40
3.0
 40
4.0
 40
4.0
 40
4.0
 40
5.0
 40
5.0
 40
5.0
 40
6.0
 40
6.0
 40
6.0
 40
7.0
 40
7.0
 40
7.0
 40
8.0
 40
8.0
 40
8.0
 40
9.0
 40
9.0
 40
9.0
 40
10.0
 40
10.0
 40
10.0
 40
11.0
 40
11.0
 40
11.0
 40
12.0
 40
12.0
 40
12.0
 40
13.0
 40
13.0
 40
13.0
 40
14.0
 40
14.0
 40
14.0
 40
15.0
 40
15.0
 40
15.0
 40
16.0
 40
16.0
 40
16.0
 40
17.0
 40
17.0
 40
17.0
 40
17.0
 10
4.150478785854741
 20
-9.664181855222844
 30
0.0
 10
4.146344671272442
 20
-9.738251408155715
 30
0.0
 10
4.141866047141617
 20
-9.820589190253185
 30
0.0
 10
4.141866047141617
 20
-9.945646156367756
 30
0.0
 10
4.141866047141617
 20
-9.945646156367756
 30
0.0
 10
4.141866047141617
 20
-10.53992512757335
 30
0.0
 10
4.141866047141617
 20
-10.53992512757335
 30
0.0
 10
4.141866047141617
 20
-10.77488063966739
 30
0.0
 10
4.095357258090744
 20
-10.91854112140231
 30
0.0
 10
3.996138508115548
 20
-11.00742458492175
 30
0.0
 10
3.896575248591828
 20
-11.1004421630235
 30
0.0
 10
3.752570257308385
 20
-11.13006998419665
 30
0.0
 10
3.623723686160041
 20
-11.13006998419665
 30
0.0
 10
3.500906032110884
 20
-11.13006998419665
 30
0.0
 10
3.365513779540566
 20
-11.1004421630235
 30
0.0
 10
3.283003742668832
 20
-11.04566514480803
 30
0.0
 10
3.283003742668832
 20
-11.04566514480803
 30
0.0
 10
3.329684786493968
 20
-10.90372721081573
 30
0.0
 10
3.329684786493968
 20
-10.90372721081573
 30
0.0
 10
3.397380912779127
 20
-10.94610188528431
 30
0.0
 10
3.503145344176297
 20
-10.98434244517058
 30
0.0
 10
3.630097112807753
 20
-10.98434244517058
 30
0.0
 10
3.820438638367807
 20
-10.98434244517058
 30
0.0
 10
3.959965005520425
 20
-10.88477918564686
 30
0.0
 10
3.959965005520425
 20
-10.62674153380165
 30
0.0
 10
3.959965005520425
 20
-10.62674153380165
 30
0.0
 10
3.959965005520425
 20
-10.51236436369135
 30
0.0
 10
3.959965005520425
 20
-10.51236436369135
 30
0.0
 10
3.959965005520425
 20
-10.51236436369135
 30
0.0
 10
3.955830890938125
 20
-10.51236436369135
 30
0.0
 10
3.955830890938125
 20
-10.51236436369135
 30
0.0
 10
3.898642305882978
 20
-10.60779350863277
 30
0.0
 10
3.788743759903508
 20
-10.68393011885679
 30
0.0
 10
3.630097112807753
 20
-10.68393011885679
 30
0.0
 10
3.37619357554484
 20
-10.68393011885679
 30
0.0
 10
3.194292533923649
 20
-10.46792263193163
 30
0.0
 10
3.194292533923649
 20
-10.18473578304409
 30
0.0
 10
3.194292533923649
 20
-9.83747015813091
 30
0.0
 10
3.420635307304563
 20
-9.640755205923145
 30
0.0
 10
3.655418564624339
 20
-9.640755205923145
 30
0.0
 10
3.833185491663231
 20
-9.640755205923145
 30
0.0
 10
3.930337184347277
 20
-9.734117293573415
 30
0.0
 10
3.974778916106999
 20
-9.818522132962035
 30
0.0
 10
3.974778916106999
 20
-9.818522132962035
 30
0.0
 10
3.979257540237824
 20
-9.818522132962035
 30
0.0
 10
3.979257540237824
 20
-9.818522132962035
 30
0.0
 10
3.979257540237824
 20
-9.818522132962035
 30
0.0
 10
3.987525769402424
 20
-9.664181855222844
 30
0.0
 10
3.987525769402424
 20
-9.664181855222844
 30
0.0
 10
3.987525769402424
 20
-9.664181855222844
 30
0.0
 10
4.150478785854741
 20
-9.664181855222844
 30
0.0
 10
4.150478785854741
 20
-9.664181855222844
 30
0.0
  0
SPLINE
  5
AA
330
A0
100
AcDbEntity
  8
Layer 1
100
AcDbSpline
210
0.0
220
0.0
230
1.0
 70
     9
 71
     3
 72
    14
 73
    10
 74
     0
 42
0.0000000001
 43
0.0000000001
 40
0.0
 40
0.0
 40
0.0
 40
0.0
 40
1.0
 40
1.0
 40
1.0
 40
2.0
 40
2.0
 40
2.0
 40
3.0
 40
3.0
 40
3.0
 40
3.0
 10
5.101152885009434
 20
-10.07655978480725
 30
0.0
 10
5.103564451849108
 20
-9.958048500114655
 30
0.0
 10
5.052577038667411
 20
-9.774080401202313
 30
0.0
 10
4.842942978389959
 20
-9.774080401202313
 30
0.0
 10
4.654840764895317
 20
-9.774080401202313
 30
0.0
 10
4.572158473249321
 20
-9.947713213658905
 30
0.0
 10
4.557344562662747
 20
-10.07655978480725
 30
0.0
 10
4.557344562662747
 20
-10.07655978480725
 30
0.0
 10
5.101152885009434
 20
-10.07655978480725
 30
0.0
 10
5.101152885009434
 20
-10.07655978480725
 30
0.0
  0
SPLINE
  5
AB
330
A0
100
AcDbEntity
  8
Layer 1
100
AcDbSpline
210
0.0
220
0.0
230
1.0
 70
     9
 71
     3
 72
    32
 73
    28
 74
     0
 42
0.0000000001
 43
0.0000000001
 40
0.0
 40
0.0
 40
0.0
 40
0.0
 40
1.0
 40
1.0
 40
1.0
 40
2.0
 40
2.0
 40
2.0
 40
3.0
 40
3.0
 40
3.0
 40
4.0
 40
4.0
 40
4.0
 40
5.0
 40
5.0
 40
5.0
 40
6.0
 40
6.0
 40
6.0
 40
7.0
 40
7.0
 40
7.0
 40
8.0
 40
8.0
 40
8.0
 40
9.0
 40
9.0
 40
9.0
 40
9.0
 10
4.555277505371597
 20
-10.20988498008642
 30
0.0
 10
4.559411619953896
 20
-10.46172146005818
 30
0.0
 10
4.720297579115064
 20
-10.5654188341642
 30
0.0
 10
4.90667724486708
 20
-10.5654188341642
 30
0.0
 10
5.039830185371987
 20
-10.5654188341642
 30
0.0
 10
5.120445419726832
 20
-10.5419921848645
 30
0.0
 10
5.190036348528879
 20
-10.51236436369135
 30
0.0
 10
5.190036348528879
 20
-10.51236436369135
 30
0.0
 10
5.221731226993178
 20
-10.64568955897052
 30
0.0
 10
5.221731226993178
 20
-10.64568955897052
 30
0.0
 10
5.156274412773431
 20
-10.67531738014367
 30
0.0
 10
5.044308809502812
 20
-10.70907931589912
 30
0.0
 10
4.881183538276232
 20
-10.70907931589912
 30
0.0
 10
4.565957301375871
 20
-10.70907931589912
 30
0.0
 10
4.377510578332706
 20
-10.5020290772356
 30
0.0
 10
4.377510578332706
 20
-10.19300401220869
 30
0.0
 10
4.377510578332706
 20
-9.884323456730308
 30
0.0
 10
4.559411619953896
 20
-9.640755205923145
 30
0.0
 10
4.857756888976533
 20
-9.640755205923145
 30
0.0
 10
5.19210340582003
 20
-9.640755205923145
 30
0.0
 10
5.280986869339475
 20
-9.93496636036348
 30
0.0
 10
5.280986869339475
 20
-10.12306857385812
 30
0.0
 10
5.280986869339475
 20
-10.16130913374439
 30
0.0
 10
5.276852754757175
 20
-10.19093695491754
 30
0.0
 10
5.274785697466025
 20
-10.20988498008642
 30
0.0
 10
5.274785697466025
 20
-10.20988498008642
 30
0.0
 10
4.555277505371597
 20
-10.20988498008642
 30
0.0
 10
4.555277505371597
 20
-10.20988498008642
 30
0.0
  0
SPLINE
  5
AC
330
A0
100
AcDbEntity
  8
Layer 1
100
AcDbSpline
210
0.0
220
0.0
230
1.0
 70
    11
 71
     3
 72
    56
 73
    52
 74
     0
 42
0.0000000001
 43
0.0000000001
 40
0.0
 40
0.0
 40
0.0
 40
0.0
 40
1.0
 40
1.0
 40
1.0
 40
2.0
 40
2.0
 40
2.0
 40
3.0
 40
3.0
 40
3.0
 40
4.0
 40
4.0
 40
4.0
 40
5.0
 40
5.0
 40
5.0
 40
6.0
 40
6.0
 40
6.0
 40
7.0
 40
7.0
 40
7.0
 40
8.0
 40
8.0
 40
8.0
 40
9.0
 40
9.0
 40
9.0
 40
10.0
 40
10.0
 40
10.0
 40
11.0
 40
11.0
 40
11.0
 40
12.0
 40
12.0
 40
12.0
 40
13.0
 40
13.0
 40
13.0
 40
14.0
 40
14.0
 40
14.0
 40
15.0
 40
15.0
 40
15.0
 40
16.0
 40
16.0
 40
16.0
 40
17.0
 40
17.0
 40
17.0
 40
17.0
 10
5.736428492489504
 20
-9.369970700782507
 30
0.0
 10
5.736428492489504
 20
-9.369970700782507
 30
0.0
 10
5.736428492489504
 20
-9.664181855222844
 30
0.0
 10
5.736428492489504
 20
-9.664181855222844
 30
0.0
 10
5.736428492489504
 20
-9.664181855222844
 30
0.0
 10
6.003078883047841
 20
-9.664181855222844
 30
0.0
 10
6.003078883047841
 20
-9.664181855222844
 30
0.0
 10
6.003078883047841
 20
-9.664181855222844
 30
0.0
 10
6.003078883047841
 20
-9.805775279666612
 30
0.0
 10
6.003078883047841
 20
-9.805775279666612
 30
0.0
 10
6.003078883047841
 20
-9.805775279666612
 30
0.0
 10
5.736428492489504
 20
-9.805775279666612
 30
0.0
 10
5.736428492489504
 20
-9.805775279666612
 30
0.0
 10
5.736428492489504
 20
-9.805775279666612
 30
0.0
 10
5.736428492489504
 20
-10.35802408595216
 30
0.0
 10
5.736428492489504
 20
-10.35802408595216
 30
0.0
 10
5.736428492489504
 20
-10.48514810935788
 30
0.0
 10
5.772601995084627
 20
-10.55680609545107
 30
0.0
 10
5.875954859642122
 20
-10.55680609545107
 30
0.0
 10
5.92487521553267
 20
-10.55680609545107
 30
0.0
 10
5.960704208579268
 20
-10.55060492357762
 30
0.0
 10
5.984130857878967
 20
-10.54405924215565
 30
0.0
 10
5.984130857878967
 20
-10.54405924215565
 30
0.0
 10
5.992399087043566
 20
-10.68393011885679
 30
0.0
 10
5.992399087043566
 20
-10.68393011885679
 30
0.0
 10
5.956570093996968
 20
-10.69874402944337
 30
0.0
 10
5.899381508941821
 20
-10.70907931589912
 30
0.0
 10
5.8273790133001
 20
-10.70907931589912
 30
0.0
 10
5.740562607071804
 20
-10.70907931589912
 30
0.0
 10
5.670971678269757
 20
-10.68186306156564
 30
0.0
 10
5.626529946510034
 20
-10.63087564838395
 30
0.0
 10
5.573475476037186
 20
-10.57609863016847
 30
0.0
 10
5.554527450868312
 20
-10.48514810935788
 30
0.0
 10
5.554527450868312
 20
-10.36422525782561
 30
0.0
 10
5.554527450868312
 20
-10.36422525782561
 30
0.0
 10
5.554527450868312
 20
-9.805775279666612
 30
0.0
 10
5.554527450868312
 20
-9.805775279666612
 30
0.0
 10
5.554527450868312
 20
-9.805775279666612
 30
0.0
 10
5.39605305854682
 20
-9.805775279666612
 30
0.0
 10
5.39605305854682
 20
-9.805775279666612
 30
0.0
 10
5.39605305854682
 20
-9.805775279666612
 30
0.0
 10
5.39605305854682
 20
-9.664181855222844
 30
0.0
 10
5.39605305854682
 20
-9.664181855222844
 30
0.0
 10
5.39605305854682
 20
-9.664181855222844
 30
0.0
 10
5.554527450868312
 20
-9.664181855222844
 30
0.0
 10
5.554527450868312
 20
-9.664181855222844
 30
0.0
 10
5.554527450868312
 20
-9.664181855222844
 30
0.0
 10
5.554527450868312
 20
-9.418546547124529
 30
0.0
 10
5.554527450868312
 20
-9.418546547124529
 30
0.0
 10
5.554527450868312
 20
-9.418546547124529
 30
0.0
 10
5.736428492489504
 20
-9.369970700782507
 30
0.0
 10
5.736428492489504
 20
-9.369970700782507
 30
0.0
  0
ENDBLK
  5
A3
330
A0
100
AcDbEntity
  8
0
100
AcDbBlockEnd
  0
BLOCK
  5
AF
330
AD
100
AcDbEntity
  8
0
100
AcDbBlockBegin
  2
Block_6
 70
     0
 10
0.0
 20
0.0
 30
0.0
  3
Block_6
  1

  0
INSERT
  5
B2
330
AD
100
AcDbEntity
  8
Layer 1
100
AcDbBlockReference
  2
Block_7
 10
0.0
 20
0.0
 30
0.0
  0
ENDBLK
  5
B0
330
AD
100
AcDbEntity
  8
0
100
AcDbBlockEnd
  0
BLOCK
  5
B3
330
B1
100
AcDbEntity
  8
0
100
AcDbBlockBegin
  2
Block_7
 70
     0
 10
0.0
 20
0.0
 30
0.0
  3
Block_7
  1

  0
SPLINE
  5
B5
330
B1
100
AcDbEntity
  8
Layer 1
100
AcDbSpline
210
0.0
220
0.0
230
1.0
 70
     9
 71
     3
 72
    35
 73
    31
 74
     0
 42
0.0000000001
 43
0.0000000001
 40
0.0
 40
0.0
 40
0.0
 40
0.0
 40
1.0
 40
1.0
 40
1.0
 40
2.0
 40
2.0
 40
2.0
 40
3.0
 40
3.0
 40
3.0
 40
4.0
 40
4.0
 40
4.0
 40
5.0
 40
5.0
 40
5.0
 40
6.0
 40
6.0
 40
6.0
 40
7.0
 40
7.0
 40
7.0
 40
8.0
 40
8.0
 40
8.0
 40
9.0
 40
9.0
 40
9.0
 40
10.0
 40
10.0
 40
10.0
 40
10.0
 10
1.657090928405171
 20
-14.77498100759097
 30
0.0
 10
1.589394802120012
 20
-14.80874294334642
 30
0.0
 10
1.454002549549693
 20
-14.84250487910187
 30
0.0
 10
1.280541991867364
 20
-14.84250487910187
 30
0.0
 10
0.8784993487387085
 20
-14.84250487910187
 30
0.0
 10
0.5760199651337729
 20
-14.58894585138748
 30
0.0
 10
0.5760199651337729
 20
-14.12110188449056
 30
0.0
 10
0.5760199651337729
 20
-13.6749620191507
 30
0.0
 10
0.8784993487387085
 20
-13.37248263554577
 30
0.0
 10
1.320677354270525
 20
-13.37248263554577
 30
0.0
 10
1.498444281309416
 20
-13.37248263554577
 30
0.0
 10
1.610582139354298
 20
-13.41037868588351
 30
0.0
 10
1.659157985696321
 20
-13.43587239247436
 30
0.0
 10
1.659157985696321
 20
-13.43587239247436
 30
0.0
 10
1.614716253936598
 20
-13.58607855563126
 30
0.0
 10
1.614716253936598
 20
-13.58607855563126
 30
0.0
 10
1.544953070360289
 20
-13.55231661987581
 30
0.0
 10
1.445562065610831
 20
-13.52682291328496
 30
0.0
 10
1.327050780918237
 20
-13.52682291328496
 30
0.0
 10
0.9928765188490032
 20
-13.52682291328496
 30
0.0
 10
0.7706678600503887
 20
-13.74041883337045
 30
0.0
 10
0.7706678600503887
 20
-14.11490071261711
 30
0.0
 10
0.7706678600503887
 20
-14.46388888527291
 30
0.0
 10
0.9716891816147166
 20
-14.68816460136268
 30
0.0
 10
1.318610296979375
 20
-14.68816460136268
 30
0.0
 10
1.430748155024257
 20
-14.68816460136268
 30
0.0
 10
1.544953070360289
 20
-14.66508246161151
 30
0.0
 10
1.619022623293161
 20
-14.62890895901638
 30
0.0
 10
1.619022623293161
 20
-14.62890895901638
 30
0.0
 10
1.657090928405171
 20
-14.77498100759097
 30
0.0
 10
1.657090928405171
 20
-14.77498100759097
 30
0.0
  0
SPLINE
  5
B6
330
B1
100
AcDbEntity
  8
Layer 1
100
AcDbSpline
210
0.0
220
0.0
230
1.0
 70
     9
 71
     3
 72
    17
 73
    13
 74
     0
 42
0.0000000001
 43
0.0000000001
 40
0.0
 40
0.0
 40
0.0
 40
0.0
 40
1.0
 40
1.0
 40
1.0
 40
2.0
 40
2.0
 40
2.0
 40
3.0
 40
3.0
 40
3.0
 40
4.0
 40
4.0
 40
4.0
 40
4.0
 10
1.973006184402581
 20
-14.31161566482487
 30
0.0
 10
1.973006184402581
 20
-14.53589138091464
 30
0.0
 10
2.102025010325188
 20
-14.7050455692404
 30
0.0
 10
2.283926051946379
 20
-14.7050455692404
 30
0.0
 10
2.461692978985271
 20
-14.7050455692404
 30
0.0
 10
2.594845919490177
 20
-14.53795843820579
 30
0.0
 10
2.594845919490177
 20
-14.30748155024257
 30
0.0
 10
2.594845919490177
 20
-14.13384873778598
 30
0.0
 10
2.508201768036144
 20
-13.91405164582704
 30
0.0
 10
2.288232421302942
 20
-13.91405164582704
 30
0.0
 10
2.068090819795477
 20
-13.91405164582704
 30
0.0
 10
1.973006184402581
 20
-14.11696776990826
 30
0.0
 10
1.973006184402581
 20
-14.31161566482487
 30
0.0
  0
SPLINE
  5
B7
330
B1
100
AcDbEntity
  8
Layer 1
100
AcDbSpline
210
0.0
220
0.0
230
1.0
 70
     9
 71
     3
 72
    17
 73
    13
 74
     0
 42
0.0000000001
 43
0.0000000001
 40
0.0
 40
0.0
 40
0.0
 40
0.0
 40
1.0
 40
1.0
 40
1.0
 40
2.0
 40
2.0
 40
2.0
 40
3.0
 40
3.0
 40
3.0
 40
4.0
 40
4.0
 40
4.0
 40
4.0
 10
2.785359699824493
 20
-14.3009358688206
 30
0.0
 10
2.785359699824493
 20
-14.67989637219808
 30
0.0
 10
2.523015678622718
 20
-14.84491644594155
 30
0.0
 10
2.275485568007517
 20
-14.84491644594155
 30
0.0
 10
1.998327636219168
 20
-14.84491644594155
 30
0.0
 10
1.784731716133678
 20
-14.64165581231181
 30
0.0
 10
1.784731716133678
 20
-14.31816134624685
 30
0.0
 10
1.784731716133678
 20
-13.97537434546449
 30
0.0
 10
2.009007432223442
 20
-13.7741807691259
 30
0.0
 10
2.292366535885241
 20
-13.7741807691259
 30
0.0
 10
2.586405435551315
 20
-13.7741807691259
 30
0.0
 10
2.785359699824493
 20
-13.98812119875991
 30
0.0
 10
2.785359699824493
 20
-14.3009358688206
 30
0.0
  0
SPLINE
  5
B8
330
B1
100
AcDbEntity
  8
Layer 1
100
AcDbSpline
210
0.0
220
0.0
230
1.0
 70
     9
 71
     3
 72
    80
 73
    76
 74
     0
 42
0.0000000001
 43
0.0000000001
 40
0.0
 40
0.0
 40
0.0
 40
0.0
 40
1.0
 40
1.0
 40
1.0
 40
2.0
 40
2.0
 40
2.0
 40
3.0
 40
3.0
 40
3.0
 40
4.0
 40
4.0
 40
4.0
 40
5.0
 40
5.0
 40
5.0
 40
6.0
 40
6.0
 40
6.0
 40
7.0
 40
7.0
 40
7.0
 40
8.0
 40
8.0
 40
8.0
 40
9.0
 40
9.0
 40
9.0
 40
10.0
 40
10.0
 40
10.0
 40
11.0
 40
11.0
 40
11.0
 40
12.0
 40
12.0
 40
12.0
 40
13.0
 40
13.0
 40
13.0
 40
14.0
 40
14.0
 40
14.0
 40
15.0
 40
15.0
 40
15.0
 40
16.0
 40
16.0
 40
16.0
 40
17.0
 40
17.0
 40
17.0
 40
18.0
 40
18.0
 40
18.0
 40
19.0
 40
19.0
 40
19.0
 40
20.0
 40
20.0
 40
20.0
 40
21.0
 40
21.0
 40
21.0
 40
22.0
 40
22.0
 40
22.0
 40
23.0
 40
23.0
 40
23.0
 40
24.0
 40
24.0
 40
24.0
 40
25.0
 40
25.0
 40
25.0
 40
25.0
 10
3.02083197624132
 20
-14.07459309543968
 30
0.0
 10
3.02083197624132
 20
-13.96882866404251
 30
0.0
 10
3.018592664175907
 20
-13.88235676736274
 30
0.0
 10
3.012219237528195
 20
-13.7976074184256
 30
0.0
 10
3.012219237528195
 20
-13.7976074184256
 30
0.0
 10
3.175172253980512
 20
-13.7976074184256
 30
0.0
 10
3.175172253980512
 20
-13.7976074184256
 30
0.0
 10
3.175172253980512
 20
-13.7976074184256
 30
0.0
 10
3.183612737919374
 20
-13.96262749216906
 30
0.0
 10
3.183612737919374
 20
-13.96262749216906
 30
0.0
 10
3.183612737919374
 20
-13.96262749216906
 30
0.0
 10
3.189986164567086
 20
-13.96262749216906
 30
0.0
 10
3.189986164567086
 20
-13.96262749216906
 30
0.0
 10
3.247174749622234
 20
-13.86513128993649
 30
0.0
 10
3.342259385015129
 20
-13.7741807691259
 30
0.0
 10
3.511413573340896
 20
-13.7741807691259
 30
0.0
 10
3.65128445004204
 20
-13.7741807691259
 30
0.0
 10
3.75704888143921
 20
-13.85893011806304
 30
0.0
 10
3.801490613198933
 20
-13.97950846004679
 30
0.0
 10
3.801490613198933
 20
-13.97950846004679
 30
0.0
 10
3.805624727781232
 20
-13.97950846004679
 30
0.0
 10
3.805624727781232
 20
-13.97950846004679
 30
0.0
 10
3.837319606245531
 20
-13.92231987499164
 30
0.0
 10
3.877627223422954
 20
-13.87787814323192
 30
0.0
 10
3.920001897891527
 20
-13.84618326476762
 30
0.0
 10
3.981324597528974
 20
-13.79967447571675
 30
0.0
 10
4.048848469039871
 20
-13.7741807691259
 30
0.0
 10
4.146344671272442
 20
-13.7741807691259
 30
0.0
 10
4.28173692384276
 20
-13.7741807691259
 30
0.0
 10
4.482585990632825
 20
-13.86306423264535
 30
0.0
 10
4.482585990632825
 20
-14.21859808672313
 30
0.0
 10
4.482585990632825
 20
-14.21859808672313
 30
0.0
 10
4.482585990632825
 20
-14.82148979664185
 30
0.0
 10
4.482585990632825
 20
-14.82148979664185
 30
0.0
 10
4.482585990632825
 20
-14.82148979664185
 30
0.0
 10
4.300684949011634
 20
-14.82148979664185
 30
0.0
 10
4.300684949011634
 20
-14.82148979664185
 30
0.0
 10
4.300684949011634
 20
-14.82148979664185
 30
0.0
 10
4.300684949011634
 20
-14.2416802264743
 30
0.0
 10
4.300684949011634
 20
-14.2416802264743
 30
0.0
 10
4.300684949011634
 20
-14.04496527426654
 30
0.0
 10
4.228682453369913
 20
-13.92679849912247
 30
0.0
 10
4.07847629021302
 20
-13.92679849912247
 30
0.0
 10
3.972711858815849
 20
-13.92679849912247
 30
0.0
 10
3.890374076718378
 20
-14.00500216663764
 30
0.0
 10
3.858334688705555
 20
-14.09595268744823
 30
0.0
 10
3.850066459540956
 20
-14.12110188449056
 30
0.0
 10
3.84352077811898
 20
-14.15520832979453
 30
0.0
 10
3.84352077811898
 20
-14.18897026554998
 30
0.0
 10
3.84352077811898
 20
-14.18897026554998
 30
0.0
 10
3.84352077811898
 20
-14.82148979664185
 30
0.0
 10
3.84352077811898
 20
-14.82148979664185
 30
0.0
 10
3.84352077811898
 20
-14.82148979664185
 30
0.0
 10
3.661619736497789
 20
-14.82148979664185
 30
0.0
 10
3.661619736497789
 20
-14.82148979664185
 30
0.0
 10
3.661619736497789
 20
-14.82148979664185
 30
0.0
 10
3.661619736497789
 20
-14.20791829071885
 30
0.0
 10
3.661619736497789
 20
-14.20791829071885
 30
0.0
 10
3.661619736497789
 20
-14.04496527426654
 30
0.0
 10
3.589961750404592
 20
-13.92679849912247
 30
0.0
 10
3.448023816412299
 20
-13.92679849912247
 30
0.0
 10
3.331751843785117
 20
-13.92679849912247
 30
0.0
 10
3.247174749622234
 20
-14.01981607722421
 30
0.0
 10
3.217546928449085
 20
-14.11283365532596
 30
0.0
 10
3.206867132444811
 20
-14.14039441920795
 30
0.0
 10
3.202733017862511
 20
-14.17208929767225
 30
0.0
 10
3.202733017862511
 20
-14.20378417613655
 30
0.0
 10
3.202733017862511
 20
-14.20378417613655
 30
0.0
 10
3.202733017862511
 20
-14.82148979664185
 30
0.0
 10
3.202733017862511
 20
-14.82148979664185
 30
0.0
 10
3.202733017862511
 20
-14.82148979664185
 30
0.0
 10
3.02083197624132
 20
-14.82148979664185
 30
0.0
 10
3.02083197624132
 20
-14.82148979664185
 30
0.0
 10
3.02083197624132
 20
-14.82148979664185
 30
0.0
 10
3.02083197624132
 20
-14.07459309543968
 30
0.0
 10
3.02083197624132
 20
-14.07459309543968
 30
0.0
  0
SPLINE
  5
B9
330
B1
100
AcDbEntity
  8
Layer 1
100
AcDbSpline
210
0.0
220
0.0
230
1.0
 70
     9
 71
     3
 72
    80
 73
    76
 74
     0
 42
0.0000000001
 43
0.0000000001
 40
0.0
 40
0.0
 40
0.0
 40
0.0
 40
1.0
 40
1.0
 40
1.0
 40
2.0
 40
2.0
 40
2.0
 40
3.0
 40
3.0
 40
3.0
 40
4.0
 40
4.0
 40
4.0
 40
5.0
 40
5.0
 40
5.0
 40
6.0
 40
6.0
 40
6.0
 40
7.0
 40
7.0
 40
7.0
 40
8.0
 40
8.0
 40
8.0
 40
9.0
 40
9.0
 40
9.0
 40
10.0
 40
10.0
 40
10.0
 40
11.0
 40
11.0
 40
11.0
 40
12.0
 40
12.0
 40
12.0
 40
13.0
 40
13.0
 40
13.0
 40
14.0
 40
14.0
 40
14.0
 40
15.0
 40
15.0
 40
15.0
 40
16.0
 40
16.0
 40
16.0
 40
17.0
 40
17.0
 40
17.0
 40
18.0
 40
18.0
 40
18.0
 40
19.0
 40
19.0
 40
19.0
 40
20.0
 40
20.0
 40
20.0
 40
21.0
 40
21.0
 40
21.0
 40
22.0
 40
22.0
 40
22.0
 40
23.0
 40
23.0
 40
23.0
 40
24.0
 40
24.0
 40
24.0
 40
25.0
 40
25.0
 40
25.0
 40
25.0
 10
4.786098902883336
 20
-14.07459309543968
 30
0.0
 10
4.786098902883336
 20
-13.96882866404251
 30
0.0
 10
4.784031845592187
 20
-13.88235676736274
 30
0.0
 10
4.777830673718736
 20
-13.7976074184256
 30
0.0
 10
4.777830673718736
 20
-13.7976074184256
 30
0.0
 10
4.940955944945316
 20
-13.7976074184256
 30
0.0
 10
4.940955944945316
 20
-13.7976074184256
 30
0.0
 10
4.940955944945316
 20
-13.7976074184256
 30
0.0
 10
4.949224174109916
 20
-13.96262749216906
 30
0.0
 10
4.949224174109916
 20
-13.96262749216906
 30
0.0
 10
4.949224174109916
 20
-13.96262749216906
 30
0.0
 10
4.95576985553189
 20
-13.96262749216906
 30
0.0
 10
4.95576985553189
 20
-13.96262749216906
 30
0.0
 10
5.012613931038513
 20
-13.86513128993649
 30
0.0
 10
5.108043075979933
 20
-13.7741807691259
 30
0.0
 10
5.277197264305701
 20
-13.7741807691259
 30
0.0
 10
5.416723631458319
 20
-13.7741807691259
 30
0.0
 10
5.522488062855489
 20
-13.85893011806304
 30
0.0
 10
5.566929794615211
 20
-13.97950846004679
 30
0.0
 10
5.566929794615211
 20
-13.97950846004679
 30
0.0
 10
5.571063909197512
 20
-13.97950846004679
 30
0.0
 10
5.571063909197512
 20
-13.97950846004679
 30
0.0
 10
5.603103297210335
 20
-13.92231987499164
 30
0.0
 10
5.643066404839233
 20
-13.87787814323192
 30
0.0
 10
5.685441079307806
 20
-13.84618326476762
 30
0.0
 10
5.746763778945253
 20
-13.79967447571675
 30
0.0
 10
5.814632160004675
 20
-13.7741807691259
 30
0.0
 10
5.911783852688721
 20
-13.7741807691259
 30
0.0
 10
6.047176105259039
 20
-13.7741807691259
 30
0.0
 10
6.248025172049104
 20
-13.86306423264535
 30
0.0
 10
6.248025172049104
 20
-14.21859808672313
 30
0.0
 10
6.248025172049104
 20
-14.21859808672313
 30
0.0
 10
6.248025172049104
 20
-14.82148979664185
 30
0.0
 10
6.248025172049104
 20
-14.82148979664185
 30
0.0
 10
6.248025172049104
 20
-14.82148979664185
 30
0.0
 10
6.066124130427914
 20
-14.82148979664185
 30
0.0
 10
6.066124130427914
 20
-14.82148979664185
 30
0.0
 10
6.066124130427914
 20
-14.82148979664185
 30
0.0
 10
6.066124130427914
 20
-14.2416802264743
 30
0.0
 10
6.066124130427914
 20
-14.2416802264743
 30
0.0
 10
6.066124130427914
 20
-14.04496527426654
 30
0.0
 10
5.994466144334716
 20
-13.92679849912247
 30
0.0
 10
5.844259981177824
 20
-13.92679849912247
 30
0.0
 10
5.738495549780654
 20
-13.92679849912247
 30
0.0
 10
5.655813258134657
 20
-14.00500216663764
 30
0.0
 10
5.624118379670359
 20
-14.09595268744823
 30
0.0
 10
5.615505640957234
 20
-14.12110188449056
 30
0.0
 10
5.609304469083784
 20
-14.15520832979453
 30
0.0
 10
5.609304469083784
 20
-14.18897026554998
 30
0.0
 10
5.609304469083784
 20
-14.18897026554998
 30
0.0
 10
5.609304469083784
 20
-14.82148979664185
 30
0.0
 10
5.609304469083784
 20
-14.82148979664185
 30
0.0
 10
5.609304469083784
 20
-14.82148979664185
 30
0.0
 10
5.427403427462594
 20
-14.82148979664185
 30
0.0
 10
5.427403427462594
 20
-14.82148979664185
 30
0.0
 10
5.427403427462594
 20
-14.82148979664185
 30
0.0
 10
5.427403427462594
 20
-14.20791829071885
 30
0.0
 10
5.427403427462594
 20
-14.20791829071885
 30
0.0
 10
5.427403427462594
 20
-14.04496527426654
 30
0.0
 10
5.355400931820872
 20
-13.92679849912247
 30
0.0
 10
5.213807507377103
 20
-13.92679849912247
 30
0.0
 10
5.097363279975659
 20
-13.92679849912247
 30
0.0
 10
5.012613931038513
 20
-14.01981607722421
 30
0.0
 10
4.982986109865365
 20
-14.11283365532596
 30
0.0
 10
4.972650823409614
 20
-14.14039441920795
 30
0.0
 10
4.96817219927879
 20
-14.17208929767225
 30
0.0
 10
4.96817219927879
 20
-14.20378417613655
 30
0.0
 10
4.96817219927879
 20
-14.20378417613655
 30
0.0
 10
4.96817219927879
 20
-14.82148979664185
 30
0.0
 10
4.96817219927879
 20
-14.82148979664185
 30
0.0
 10
4.96817219927879
 20
-14.82148979664185
 30
0.0
 10
4.786098902883336
 20
-14.82148979664185
 30
0.0
 10
4.786098902883336
 20
-14.82148979664185
 30
0.0
 10
4.786098902883336
 20
-14.82148979664185
 30
0.0
 10
4.786098902883336
 20
-14.07459309543968
 30
0.0
 10
4.786098902883336
 20
-14.07459309543968
 30
0.0
  0
SPLINE
  5
BA
330
B1
100
AcDbEntity
  8
Layer 1
100
AcDbSpline
210
0.0
220
0.0
230
1.0
 70
     9
 71
     3
 72
    47
 73
    43
 74
     0
 42
0.0000000001
 43
0.0000000001
 40
0.0
 40
0.0
 40
0.0
 40
0.0
 40
1.0
 40
1.0
 40
1.0
 40
2.0
 40
2.0
 40
2.0
 40
3.0
 40
3.0
 40
3.0
 40
4.0
 40
4.0
 40
4.0
 40
5.0
 40
5.0
 40
5.0
 40
6.0
 40
6.0
 40
6.0
 40
7.0
 40
7.0
 40
7.0
 40
8.0
 40
8.0
 40
8.0
 40
9.0
 40
9.0
 40
9.0
 40
10.0
 40
10.0
 40
10.0
 40
11.0
 40
11.0
 40
11.0
 40
12.0
 40
12.0
 40
12.0
 40
13.0
 40
13.0
 40
13.0
 40
14.0
 40
14.0
 40
14.0
 40
14.0
 10
6.526388887257292
 20
-14.63097601630753
 30
0.0
 10
6.581165905472764
 20
-14.66714951890265
 30
0.0
 10
6.678662107705334
 20
-14.7050455692404
 30
0.0
 10
6.77167968580708
 20
-14.7050455692404
 30
0.0
 10
6.907071938377399
 20
-14.7050455692404
 30
0.0
 10
6.970461695305996
 20
-14.63752169772951
 30
0.0
 10
6.970461695305996
 20
-14.55277234879236
 30
0.0
 10
6.970461695305996
 20
-14.46388888527291
 30
0.0
 10
6.917751734381673
 20
-14.41531303893089
 30
0.0
 10
6.779947914971679
 20
-14.36467013529772
 30
0.0
 10
6.595979816059339
 20
-14.29886881152945
 30
0.0
 10
6.509163409831042
 20
-14.1975830042631
 30
0.0
 10
6.509163409831042
 20
-14.07459309543968
 30
0.0
 10
6.509163409831042
 20
-13.90957302169622
 30
0.0
 10
6.642488605110211
 20
-13.7741807691259
 30
0.0
 10
6.862630206617676
 20
-13.7741807691259
 30
0.0
 10
6.966327580723696
 20
-13.7741807691259
 30
0.0
 10
7.057278101534292
 20
-13.80380859029905
 30
0.0
 10
7.114466686589438
 20
-13.83791503560302
 30
0.0
 10
7.114466686589438
 20
-13.83791503560302
 30
0.0
 10
7.067957897538566
 20
-13.97330728817334
 30
0.0
 10
7.067957897538566
 20
-13.97330728817334
 30
0.0
 10
7.027650280361143
 20
-13.94781358158249
 30
0.0
 10
6.953580727428271
 20
-13.91405164582704
 30
0.0
 10
6.858496092035376
 20
-13.91405164582704
 30
0.0
 10
6.748253036507381
 20
-13.91405164582704
 30
0.0
 10
6.686930336869933
 20
-13.97744140275564
 30
0.0
 10
6.686930336869933
 20
-14.05357801297966
 30
0.0
 10
6.686930336869933
 20
-14.13832736191681
 30
0.0
 10
6.748253036507381
 20
-14.17622341225455
 30
0.0
 10
6.88157823178655
 20
-14.22686631588773
 30
0.0
 10
7.059345158825442
 20
-14.29473469694715
 30
0.0
 10
7.150295679636037
 20
-14.3836181604666
 30
0.0
 10
7.150295679636037
 20
-14.53589138091464
 30
0.0
 10
7.150295679636037
 20
-14.71572536524468
 30
0.0
 10
7.010769312483419
 20
-14.84250487910187
 30
0.0
 10
6.76754557122478
 20
-14.84250487910187
 30
0.0
 10
6.655235458405635
 20
-14.84250487910187
 30
0.0
 10
6.551538084299616
 20
-14.8152886247684
 30
0.0
 10
6.479535588657894
 20
-14.77291395029983
 30
0.0
 10
6.479535588657894
 20
-14.77291395029983
 30
0.0
 10
6.526388887257292
 20
-14.63097601630753
 30
0.0
 10
6.526388887257292
 20
-14.63097601630753
 30
0.0
  0
ENDBLK
  5
B4
330
B1
100
AcDbEntity
  8
0
100
AcDbBlockEnd
  0
ENDSEC
  0
SECTION
  2
ENTITIES
  0
INSERT
  5
7A
330
70
100
AcDbEntity
  8
Layer 1
100
AcDbBlockReference
  2
Block_0
 10
0.0
 20
0.0
 30
0.0
  0
INSERT
  5
8A
330
70
100
AcDbEntity
  8
Layer 1
100
AcDbBlockReference
  2
Block_2
 10
0.0
 20
0.0
 30
0.0
  0
INSERT
  5
9D
330
70
100
AcDbEntity
  8
Layer 1
100
AcDbBlockReference
  2
Block_4
 10
0.0
 20
0.0
 30
0.0
  0
INSERT
  5
AE
330
70
100
AcDbEntity
  8
Layer 1
100
AcDbBlockReference
  2
Block_6
 10
0.0
 20
0.0
 30
0.0
  0
ENDSEC
  0
SECTION
  2
OBJECTS
  0
DICTIONARY
  5
C
330
0
100
AcDbDictionary
281
     1
  3
ACAD_COLOR
350
63
  3
ACAD_DETAILVIEWSTYLE
350
6A
  3
ACAD_GROUP
350
D
  3
ACAD_LAYOUT
350
62
  3
ACAD_MATERIAL
350
10
  3
ACAD_MLEADERSTYLE
350
66
  3
ACAD_MLINESTYLE
350
5F
  3
ACAD_PLOTSETTINGS
350
61
  3
ACAD_PLOTSTYLENAME
350
E
  3
ACAD_SCALELIST
350
42
  3
ACAD_SECTIONVIEWSTYLE
350
68
  3
ACAD_TABLESTYLE
350
64
  3
ACAD_VISUALSTYLE
350
29
  3
ACDB_RECOMPOSE_DATA
350
C3
  3
AcDbVariableDictionary
350
BB
  0
DICTIONARY
  5
63
102
{ACAD_REACTORS
330
C
102
}
330
C
100
AcDbDictionary
281
     1
  0
DICTIONARY
  5
6A
102
{ACAD_REACTORS
330
C
102
}
330
C
100
AcDbDictionary
281
     1
  3
Imperial24
350
6B
  0
DICTIONARY
  5
D
102
{ACAD_REACTORS
330
C
102
}
330
C
100
AcDbDictionary
281
     1
  0
DICTIONARY
  5
62
102
{ACAD_REACTORS
330
C
102
}
330
C
100
AcDbDictionary
281
     1
  3
Layout1
350
6F
  3
Layout2
350
77
  3
Model
350
73
  0
DICTIONARY
  5
10
102
{ACAD_REACTORS
330
C
102
}
330
C
100
AcDbDictionary
281
     1
  3
ByBlock
350
19
  3
ByLayer
350
11
  3
Global
350
21
  0
DICTIONARY
  5
66
102
{ACAD_REACTORS
330
C
102
}
330
C
100
AcDbDictionary
281
     1
  3
Standard
350
67
  0
DICTIONARY
  5
5F
102
{ACAD_REACTORS
330
C
102
}
330
C
100
AcDbDictionary
281
     1
  3
Standard
350
60
  0
DICTIONARY
  5
61
102
{ACAD_REACTORS
330
C
102
}
330
C
100
AcDbDictionary
281
     1
  0
ACDBDICTIONARYWDFLT
  5
E
102
{ACAD_REACTORS
330
C
102
}
330
C
100
AcDbDictionary
281
     1
  3
Normal
350
F
100
AcDbDictionaryWithDefault
340
F
  0
DICTIONARY
  5
42
102
{ACAD_REACTORS
330
C
102
}
330
C
100
AcDbDictionary
281
     1
  3
A0
350
43
  3
A1
350
44
  3
A2
350
45
  3
A3
350
46
  3
A4
350
47
  3
A5
350
48
  3
A6
350
49
  3
A7
350
4A
  3
A8
350
4B
  3
A9
350
4C
  3
B0
350
4D
  3
B1
350
4E
  3
B2
350
4F
  3
B3
350
50
  3
B4
350
51
  3
B5
350
52
  3
B6
350
53
  0
DICTIONARY
  5
68
102
{ACAD_REACTORS
330
C
102
}
330
C
100
AcDbDictionary
281
     1
  3
Imperial24
350
69
  0
DICTIONARY
  5
64
102
{ACAD_REACTORS
330
C
102
}
330
C
100
AcDbDictionary
281
     1
  3
Standard
350
65
  0
DICTIONARY
  5
29
102
{ACAD_REACTORS
330
C
102
}
330
C
100
AcDbDictionary
281
     1
  3
2dWireframe
350
2F
  3
Basic
350
2E
  3
Brighten
350
35
  3
ColorChange
350
39
  3
Conceptual
350
32
  3
Dim
350
34
  3
EdgeColorOff
350
41
  3
Facepattern
350
38
  3
Flat
350
2A
  3
FlatWithEdges
350
2B
  3
Gouraud
350
2C
  3
GouraudWithEdges
350
2D
  3
Hidden
350
31
  3
JitterOff
350
3F
  3
Linepattern
350
37
  3
OverhangOff
350
40
  3
Realistic
350
33
  3
Shaded
350
3E
  3
Shaded with edges
350
3D
  3
Shades of Gray
350
3A
  3
Sketchy
350
3B
  3
Thicken
350
36
  3
Wireframe
350
30
  3
X-Ray
350
3C
  0
XRECORD
  5
C3
102
{ACAD_REACTORS
330
C
102
}
330
C
100
AcDbXrecord
280
     1
 90
        1
330
65
  0
DICTIONARY
  5
BB
102
{ACAD_REACTORS
330
C
102
}
330
C
100
AcDbDictionary
281
     1
  3
CANNOSCALE
350
C0
  3
CMLEADERSTYLE
350
BD
  3
CTABLESTYLE
350
BC
  3
CVIEWDETAILSTYLE
350
BE
  3
CVIEWSECTIONSTYLE
350
BF
  0
ACDBDETAILVIEWSTYLE
  5
6B
102
{ACAD_REACTORS
330
6A
102
}
330
6A
100
AcDbModelDocViewStyle
 70
     0
  3
Imperial24
290
     1
300
Imperial24
 90
        0
100
AcDbDetailViewStyle
 70
     0
 71
     0
 90
        3
 71
     1
340
55
 62
   256
 40
0.24
340
0
 62
   256
 40
0.24
300

 40
0.36
280
     3
 71
     2
340
5D
 90
       25
 62
   256
 71
     3
340
55
 62
   256
 40
0.24
 90
        1
 40
0.75
 90
        1
300
%<\AcVar ViewType \f "%tc1">% %<\AcVar ViewDetailId>%\PSCALE %<\AcVar ViewScale \f "%sn">%
 71
     4
340
5D
 90
       25
 62
   256
340
5D
 90
       25
 62
   256
280
     0
  0
LAYOUT
  5
6F
102
{ACAD_REACTORS
330
62
102
}
330
62
100
AcDbPlotSettings
  1

  2

  4

  6

 40
0.0
 41
0.0
 42
0.0
 43
0.0
 44
0.0
 45
0.0
 46
0.0
 47
0.0
 48
0.0
 49
0.0
140
0.0
141
0.0
142
1.0
143
1.0
 70
   688
 72
     0
 73
     0
 74
     5
  7

 75
    16
147
1.0
 76
     0
 77
     2
 78
   300
148
0.0
149
0.0
100
AcDbLayout
  1
Layout1
 70
     1
 71
     1
 10
0.0
 20
0.0
 11
12.0
 21
9.0
 12
0.0
 22
0.0
 32
0.0
 14
0.0
 24
0.0
 34
0.0
 15
0.0
 25
0.0
 35
0.0
146
0.0
 13
0.0
 23
0.0
 33
0.0
 16
1.0
 26
0.0
 36
0.0
 17
0.0
 27
1.0
 37
0.0
 76
     0
330
6C
  0
LAYOUT
  5
77
102
{ACAD_REACTORS
330
62
102
}
330
62
100
AcDbPlotSettings
  1

  2

  4

  6

 40
0.0
 41
0.0
 42
0.0
 43
0.0
 44
0.0
 45
0.0
 46
0.0
 47
0.0
 48
0.0
 49
0.0
140
0.0
141
0.0
142
1.0
143
1.0
 70
   688
 72
     0
 73
     0
 74
     5
  7

 75
    16
147
1.0
 76
     0
 77
     2
 78
   300
148
0.0
149
0.0
100
AcDbLayout
  1
Layout2
 70
     1
 71
     2
 10
0.0
 20
0.0
 11
12.0
 21
9.0
 12
0.0
 22
0.0
 32
0.0
 14
0.0
 24
0.0
 34
0.0
 15
0.0
 25
0.0
 35
0.0
146
0.0
 13
0.0
 23
0.0
 33
0.0
 16
1.0
 26
0.0
 36
0.0
 17
0.0
 27
1.0
 37
0.0
 76
     0
330
74
  0
LAYOUT
  5
73
102
{ACAD_REACTORS
330
62
102
}
330
62
100
AcDbPlotSettings
  1

  2

  4

  6

 40
0.0
 41
0.0
 42
0.0
 43
0.0
 44
0.0
 45
0.0
 46
0.0
 47
0.0
 48
0.0
 49
0.0
140
0.0
141
0.0
142
1.0
143
1.0
 70
  1712
 72
     0
 73
     0
 74
     0
  7

 75
     0
147
1.0
 76
     0
 77
     2
 78
   300
148
0.0
149
0.0
100
AcDbLayout
  1
Model
 70
     1
 71
     0
 10
0.0
 20
0.0
 11
12.0
 21
9.0
 12
0.0
 22
0.0
 32
0.0
 14
0.0
 24
0.0
 34
0.0
 15
0.0
 25
0.0
 35
0.0
146
0.0
 13
0.0
 23
0.0
 33
0.0
 16
1.0
 26
0.0
 36
0.0
 17
0.0
 27
1.0
 37
0.0
 76
     0
330
70
  0
MATERIAL
  5
19
102
{ACAD_XDICTIONARY
360
1A
102
}
102
{ACAD_REACTORS
330
10
102
}
330
10
100
AcDbMaterial
  1
ByBlock
 72
     0
 43
0.0208333333333333
 43
0.0
 43
0.0
 43
0.0
 43
0.0
 43
0.0208333333333333
 43
0.0
 43
0.0
 43
0.0
 43
0.0
 43
1.0
 43
0.0
 43
0.0
 43
0.0
 43
0.0
 43
1.0
 77
     0
 47
0.0208333333333333
 47
0.0
 47
0.0
 47
0.0
 47
0.0
 47
0.0208333333333333
 47
0.0
 47
0.0
 47
0.0
 47
0.0
 47
1.0
 47
0.0
 47
0.0
 47
0.0
 47
0.0
 47
1.0
171
     0
 49
0.0208333333333333
 49
0.0
 49
0.0
 49
0.0
 49
0.0
 49
0.0208333333333333
 49
0.0
 49
0.0
 49
0.0
 49
0.0
 49
1.0
 49
0.0
 49
0.0
 49
0.0
 49
0.0
 49
1.0
175
     0
142
0.0208333333333333
142
0.0
142
0.0
142
0.0
142
0.0
142
0.0208333333333333
142
0.0
142
0.0
142
0.0
142
0.0
142
1.0
142
0.0
142
0.0
142
0.0
142
0.0
142
1.0
179
     0
144
0.0208333333333333
144
0.0
144
0.0
144
0.0
144
0.0
144
0.0208333333333333
144
0.0
144
0.0
144
0.0
144
0.0
144
1.0
144
0.0
144
0.0
144
0.0
144
0.0
144
1.0
147
0.0208333333333333
147
0.0
147
0.0
147
0.0
147
0.0
147
0.0208333333333333
147
0.0
147
0.0
147
0.0
147
0.0
147
1.0
147
0.0
147
0.0
147
0.0
147
0.0
147
1.0
  0
MATERIAL
  5
11
102
{ACAD_XDICTIONARY
360
12
102
}
102
{ACAD_REACTORS
330
10
102
}
330
10
100
AcDbMaterial
  1
ByLayer
 72
     0
 43
0.0208333333333333
 43
0.0
 43
0.0
 43
0.0
 43
0.0
 43
0.0208333333333333
 43
0.0
 43
0.0
 43
0.0
 43
0.0
 43
1.0
 43
0.0
 43
0.0
 43
0.0
 43
0.0
 43
1.0
 77
     0
 47
0.0208333333333333
 47
0.0
 47
0.0
 47
0.0
 47
0.0
 47
0.0208333333333333
 47
0.0
 47
0.0
 47
0.0
 47
0.0
 47
1.0
 47
0.0
 47
0.0
 47
0.0
 47
0.0
 47
1.0
171
     0
 49
0.0208333333333333
 49
0.0
 49
0.0
 49
0.0
 49
0.0
 49
0.0208333333333333
 49
0.0
 49
0.0
 49
0.0
 49
0.0
 49
1.0
 49
0.0
 49
0.0
 49
0.0
 49
0.0
 49
1.0
175
     0
142
0.0208333333333333
142
0.0
142
0.0
142
0.0
142
0.0
142
0.0208333333333333
142
0.0
142
0.0
142
0.0
142
0.0
142
1.0
142
0.0
142
0.0
142
0.0
142
0.0
142
1.0
179
     0
144
0.0208333333333333
144
0.0
144
0.0
144
0.0
144
0.0
144
0.0208333333333333
144
0.0
144
0.0
144
0.0
144
0.0
144
1.0
144
0.0
144
0.0
144
0.0
144
0.0
144
1.0
147
0.0208333333333333
147
0.0
147
0.0
147
0.0
147
0.0
147
0.0208333333333333
147
0.0
147
0.0
147
0.0
147
0.0
147
1.0
147
0.0
147
0.0
147
0.0
147
0.0
147
1.0
  0
MATERIAL
  5
21
102
{ACAD_XDICTIONARY
360
22
102
}
102
{ACAD_REACTORS
330
10
102
}
330
10
100
AcDbMaterial
  1
Global
 72
     0
 43
0.0208333333333333
 43
0.0
 43
0.0
 43
0.0
 43
0.0
 43
0.0208333333333333
 43
0.0
 43
0.0
 43
0.0
 43
0.0
 43
1.0
 43
0.0
 43
0.0
 43
0.0
 43
0.0
 43
1.0
 77
     0
 47
0.0208333333333333
 47
0.0
 47
0.0
 47
0.0
 47
0.0
 47
0.0208333333333333
 47
0.0
 47
0.0
 47
0.0
 47
0.0
 47
1.0
 47
0.0
 47
0.0
 47
0.0
 47
0.0
 47
1.0
171
     0
 49
0.0208333333333333
 49
0.0
 49
0.0
 49
0.0
 49
0.0
 49
0.0208333333333333
 49
0.0
 49
0.0
 49
0.0
 49
0.0
 49
1.0
 49
0.0
 49
0.0
 49
0.0
 49
0.0
 49
1.0
175
     0
142
0.0208333333333333
142
0.0
142
0.0
142
0.0
142
0.0
142
0.0208333333333333
142
0.0
142
0.0
142
0.0
142
0.0
142
1.0
142
0.0
142
0.0
142
0.0
142
0.0
142
1.0
179
     0
144
0.0208333333333333
144
0.0
144
0.0
144
0.0
144
0.0
144
0.0208333333333333
144
0.0
144
0.0
144
0.0
144
0.0
144
1.0
144
0.0
144
0.0
144
0.0
144
0.0
144
1.0
147
0.0208333333333333
147
0.0
147
0.0
147
0.0
147
0.0
147
0.0208333333333333
147
0.0
147
0.0
147
0.0
147
0.0
147
1.0
147
0.0
147
0.0
147
0.0
147
0.0
147
1.0
  0
MLEADERSTYLE
  5
67
102
{ACAD_REACTORS
330
66
102
}
330
66
100
AcDbMLeaderStyle
179
     2
170
     2
171
     1
172
     0
 90
        2
 40
0.0
 41
0.0
173
     1
 91
-1056964608
340
5B
 92
       -2
290
     1
 42
0.09
291
     1
 43
0.36
  3
Standard
 44
0.18
300

342
55
174
     1
178
     6
175
     1
176
     0
 93
-1056964608
 45
0.18
292
     0
297
     0
 46
0.18
 94
-1056964608
 47
1.0
 49
1.0
140
1.0
293
     1
141
0.0
294
     1
177
     0
142
1.0
295
     1
296
     0
143
0.125
271
     0
272
     9
273
     9
298
     1
  0
MLINESTYLE
  5
60
102
{ACAD_REACTORS
330
5F
102
}
330
5F
100
AcDbMlineStyle
  2
STANDARD
 70
     0
  3

 62
   256
 51
90.0
 52
90.0
 71
     2
 49
0.5
 62
   256
  6
BYLAYER
 49
-0.5
 62
   256
  6
BYLAYER
  0
ACDBPLACEHOLDER
  5
F
102
{ACAD_REACTORS
330
E
102
}
330
E
  0
SCALE
  5
43
102
{ACAD_REACTORS
330
42
102
}
330
42
100
AcDbScale
 70
     0
300
1:1
140
1.0
141
1.0
290
     1
  0
SCALE
  5
44
102
{ACAD_REACTORS
330
42
102
}
330
42
100
AcDbScale
 70
     0
300
1/128" = 1'-0"
140
0.0078125
141
12.0
290
     0
  0
SCALE
  5
45
102
{ACAD_REACTORS
330
42
102
}
330
42
100
AcDbScale
 70
     0
300
1/64" = 1'-0"
140
0.015625
141
12.0
290
     0
  0
SCALE
  5
46
102
{ACAD_REACTORS
330
42
102
}
330
42
100
AcDbScale
 70
     0
300
1/32" = 1'-0"
140
0.03125
141
12.0
290
     0
  0
SCALE
  5
47
102
{ACAD_REACTORS
330
42
102
}
330
42
100
AcDbScale
 70
     0
300
1/16" = 1'-0"
140
0.0625
141
12.0
290
     0
  0
SCALE
  5
48
102
{ACAD_REACTORS
330
42
102
}
330
42
100
AcDbScale
 70
     0
300
3/32" = 1'-0"
140
0.09375
141
12.0
290
     0
  0
SCALE
  5
49
102
{ACAD_REACTORS
330
42
102
}
330
42
100
AcDbScale
 70
     0
300
1/8" = 1'-0"
140
0.125
141
12.0
290
     0
  0
SCALE
  5
4A
102
{ACAD_REACTORS
330
42
102
}
330
42
100
AcDbScale
 70
     0
300
3/16" = 1'-0"
140
0.1875
141
12.0
290
     0
  0
SCALE
  5
4B
102
{ACAD_REACTORS
330
42
102
}
330
42
100
AcDbScale
 70
     0
300
1/4" = 1'-0"
140
0.25
141
12.0
290
     0
  0
SCALE
  5
4C
102
{ACAD_REACTORS
330
42
102
}
330
42
100
AcDbScale
 70
     0
300
3/8" = 1'-0"
140
0.375
141
12.0
290
     0
  0
SCALE
  5
4D
102
{ACAD_REACTORS
330
42
102
}
330
42
100
AcDbScale
 70
     0
300
1/2" = 1'-0"
140
0.5
141
12.0
290
     0
  0
SCALE
  5
4E
102
{ACAD_REACTORS
330
42
102
}
330
42
100
AcDbScale
 70
     0
300
3/4" = 1'-0"
140
0.75
141
12.0
290
     0
  0
SCALE
  5
4F
102
{ACAD_REACTORS
330
42
102
}
330
42
100
AcDbScale
 70
     0
300
1" = 1'-0"
140
1.0
141
12.0
290
     0
  0
SCALE
  5
50
102
{ACAD_REACTORS
330
42
102
}
330
42
100
AcDbScale
 70
     0
300
1-1/2" = 1'-0"
140
1.5
141
12.0
290
     0
  0
SCALE
  5
51
102
{ACAD_REACTORS
330
42
102
}
330
42
100
AcDbScale
 70
     0
300
3" = 1'-0"
140
3.0
141
12.0
290
     0
  0
SCALE
  5
52
102
{ACAD_REACTORS
330
42
102
}
330
42
100
AcDbScale
 70
     0
300
6" = 1'-0"
140
6.0
141
12.0
290
     0
  0
SCALE
  5
53
102
{ACAD_REACTORS
330
42
102
}
330
42
100
AcDbScale
 70
     0
300
1'-0" = 1'-0"
140
12.0
141
12.0
290
     0
  0
ACDBSECTIONVIEWSTYLE
  5
69
102
{ACAD_REACTORS
330
68
102
}
330
68
100
AcDbModelDocViewStyle
 70
     0
  3
Imperial24
290
     1
300
Imperial24
 90
        0
100
AcDbSectionViewStyle
 70
     0
 71
     0
 90
       78
 71
     1
340
55
 62
   256
 40
0.24
340
0
340
0
 62
   256
 40
0.24
300
I, O, Q, S, X, Z
 40
0.48
 90
        3
 40
0.18
 90
        1
 71
     2
340
5D
 90
       25
 62
   256
340
5D
 90
       50
 62
   256
 40
0.24
 40
0.0
 40
0.24
 71
     3
340
55
 62
   256
 40
0.24
 90
        1
 40
0.75
 90
        1
300
%<\AcVar ViewType \f "%tc1">% %<\AcVar ViewSectionStartId>%-%<\AcVar ViewSectionEndId>%\PSCALE %<\AcVar ViewScale \f "%sn">%
 71
     4
 62
   256
 62
   257
300
ANSI31
 40
1.0
 90
        0
290
     0
290
     0
 90
        6
 40
0.0
 40
1.570796326794896
 40
0.2617993877991494
 40
1.308996938995747
 40
-0.2617993877991494
 40
1.832595714594046
  0
TABLESTYLE
  5
65
102
{ACAD_XDICTIONARY
360
C1
102
}
102
{ACAD_REACTORS
330
64
102
}
330
64
100
AcDbTableStyle
280
     0
  3
Standard
 70
     0
 71
     0
 40
0.06
 41
0.06
280
     0
281
     0
  7
Standard
140
0.18
170
     2
 62
     0
 63
     7
283
     0
 90
      512
 91
        0
  1

274
    -2
284
     1
 64
     0
275
    -2
285
     1
 65
     0
276
    -2
286
     1
 66
     0
277
    -2
287
     1
 67
     0
278
    -2
288
     1
 68
     0
279
    -2
289
     1
 69
     0
  7
Standard
140
0.25
170
     5
 62
     0
 63
     7
283
     0
 90
      512
 91
        0
  1

274
    -2
284
     1
 64
     0
275
    -2
285
     1
 65
     0
276
    -2
286
     1
 66
     0
277
    -2
287
     1
 67
     0
278
    -2
288
     1
 68
     0
279
    -2
289
     1
 69
     0
  7
Standard
140
0.18
170
     5
 62
     0
 63
     7
283
     0
 90
      512
 91
        0
  1

274
    -2
284
     1
 64
     0
275
    -2
285
     1
 65
     0
276
    -2
286
     1
 66
     0
277
    -2
287
     1
 67
     0
278
    -2
288
     1
 68
     0
279
    -2
289
     1
 69
     0
  0
VISUALSTYLE
  5
2F
102
{ACAD_REACTORS
330
29
102
}
330
29
100
AcDbVisualStyle
  2
2dWireframe
 70
     4
177
     3
291
     0
 70
    58
 90
        0
176
     1
 90
        2
176
     1
 90
        0
176
     1
 90
        0
176
     1
 40
0.6
176
     1
 40
30.0
176
     1
 62
     7
420
 16777215
176
     1
 90
        1
176
     1
 90
        4
176
     1
 62
     7
176
     1
 62
   257
176
     1
 90
        1
176
     1
 90
        1
176
     1
 40
1.0
176
     1
 90
        0
176
     1
 62
   257
176
     1
 40
1.0
176
     1
 90
        1
176
     1
 90
        6
176
     1
 90
        2
176
     1
 62
     7
176
     1
 90
        5
176
     1
 90
        0
176
     1
 90
        0
176
     1
290
     0
176
     1
 90
        1
176
     1
 40
0.0
176
     1
 90
        0
176
     1
290
     1
176
     1
290
     1
176
     1
290
     0
176
     1
290
     0
176
     1
290
     0
176
     1
290
     0
176
     1
290
     0
176
     1
290
     0
176
     1
290
     0
176
     1
 90
       50
176
     1
 40
0.0
176
     1
 40
1.0
176
     1
 90
        0
176
     1
 62
    18
420
        0
176
     1
 90
       50
176
     1
 90
        3
176
     1
 62
     5
420
      255
176
     1
290
     0
176
     1
 90
       50
176
     1
 90
       50
176
     1
 90
       50
176
     1
290
     0
176
     1
 90
       50
176
     1
 62
   256
176
     0
 40
1.0
176
     0
 90
        2
176
     1
  1
strokes_ogs.tif
176
     1
290
     0
176
     1
 40
1.0
176
     1
 40
1.0
176
     1
  0
VISUALSTYLE
  5
2E
102
{ACAD_REACTORS
330
29
102
}
330
29
100
AcDbVisualStyle
  2
Basic
 70
     7
177
     3
291
     1
 70
    58
 90
        1
176
     1
 90
        0
176
     1
 90
        1
176
     1
 90
        0
176
     1
 40
0.6
176
     1
 40
30.0
176
     1
 62
     7
420
 16777215
176
     1
 90
        0
176
     1
 90
        4
176
     1
 62
     7
176
     1
 62
   257
176
     1
 90
        1
176
     1
 90
        1
176
     1
 40
1.0
176
     1
 90
        8
176
     1
 62
     7
176
     1
 40
1.0
176
     1
 90
        1
176
     1
 90
        6
176
     1
 90
        2
176
     1
 62
     7
176
     1
 90
        5
176
     1
 90
        0
176
     1
 90
        0
176
     1
290
     0
176
     1
 90
        1
176
     1
 40
0.0
176
     1
 90
        0
176
     1
290
     0
176
     1
290
     1
176
     1
290
     1
176
     1
290
     0
176
     1
290
     0
176
     1
290
     0
176
     1
290
     0
176
     1
290
     0
176
     1
290
     0
176
     1
 90
       50
176
     1
 40
0.0
176
     1
 40
1.0
176
     1
 90
        0
176
     1
 62
    18
420
        0
176
     1
 90
       50
176
     1
 90
        3
176
     1
 62
     5
420
      255
176
     1
290
     0
176
     1
 90
       50
176
     1
 90
       50
176
     1
 90
       50
176
     1
290
     0
176
     1
 90
       50
176
     1
 62
   256
176
     0
 40
1.0
176
     0
 90
        2
176
     1
  1
strokes_ogs.tif
176
     1
290
     0
176
     1
 40
1.0
176
     1
 40
1.0
176
     1
  0
VISUALSTYLE
  5
35
102
{ACAD_REACTORS
330
29
102
}
330
29
100
AcDbVisualStyle
  2
Brighten
 70
    12
177
     3
291
     1
 70
    58
 90
        2
176
     1
 90
        2
176
     1
 90
        0
176
     1
 90
        0
176
     1
 40
0.6
176
     1
 40
30.0
176
     1
 62
     7
420
 16777215
176
     1
 90
        1
176
     1
 90
        4
176
     1
 62
     7
176
     1
 62
   257
176
     1
 90
        1
176
     1
 90
        1
176
     1
 40
1.0
176
     1
 90
        8
176
     1
 62
     7
176
     1
 40
1.0
176
     1
 90
        1
176
     1
 90
        6
176
     1
 90
        2
176
     1
 62
     7
176
     1
 90
        5
176
     1
 90
        0
176
     1
 90
        0
176
     1
290
     0
176
     1
 90
        1
176
     1
 40
50.0
176
     1
 90
        0
176
     1
290
     0
176
     1
290
     1
176
     1
290
     1
176
     1
290
     0
176
     1
290
     0
176
     1
290
     0
176
     1
290
     0
176
     1
290
     0
176
     1
290
     0
176
     1
 90
       50
176
     1
 40
0.0
176
     1
 40
1.0
176
     1
 90
        0
176
     1
 62
    18
420
        0
176
     1
 90
       50
176
     1
 90
        3
176
     1
 62
     5
420
      255
176
     1
290
     0
176
     1
 90
       50
176
     1
 90
       50
176
     1
 90
       50
176
     1
290
     0
176
     1
 90
       50
176
     1
 62
   256
176
     0
 40
1.0
176
     0
 90
        2
176
     1
  1
strokes_ogs.tif
176
     1
290
     0
176
     1
 40
1.0
176
     1
 40
1.0
176
     1
  0
VISUALSTYLE
  5
39
102
{ACAD_REACTORS
330
29
102
}
330
29
100
AcDbVisualStyle
  2
ColorChange
 70
    16
177
     3
291
     1
 70
    58
 90
        2
176
     1
 90
        2
176
     1
 90
        3
176
     1
 90
        0
176
     1
 40
0.6
176
     1
 40
30.0
176
     1
 62
     8
420
  8421504
176
     1
 90
        1
176
     1
 90
        4
176
     1
 62
     7
176
     1
 62
   257
176
     1
 90
        1
176
     1
 90
        1
176
     1
 40
1.0
176
     1
 90
        8
176
     1
 62
     8
420
  8421504
176
     1
 40
1.0
176
     1
 90
        1
176
     1
 90
        6
176
     1
 90
        2
176
     1
 62
     7
176
     1
 90
        5
176
     1
 90
        0
176
     1
 90
        0
176
     1
290
     0
176
     1
 90
        1
176
     1
 40
0.0
176
     1
 90
        0
176
     1
290
     0
176
     1
290
     1
176
     1
290
     1
176
     1
290
     0
176
     1
290
     0
176
     1
290
     0
176
     1
290
     0
176
     1
290
     0
176
     1
290
     0
176
     1
 90
       50
176
     1
 40
0.0
176
     1
 40
1.0
176
     1
 90
        0
176
     1
 62
    18
420
        0
176
     1
 90
       50
176
     1
 90
        3
176
     1
 62
     5
420
      255
176
     1
290
     0
176
     1
 90
       50
176
     1
 90
       50
176
     1
 90
       50
176
     1
290
     0
176
     1
 90
       50
176
     1
 62
   256
176
     0
 40
1.0
176
     0
 90
        2
176
     1
  1
strokes_ogs.tif
176
     1
290
     0
176
     1
 40
1.0
176
     1
 40
1.0
176
     1
  0
VISUALSTYLE
  5
32
102
{ACAD_REACTORS
330
29
102
}
330
29
100
AcDbVisualStyle
  2
Conceptual
 70
     9
177
     3
291
     0
 70
    58
 90
        3
176
     1
 90
        2
176
     1
 90
        0
176
     1
 90
        0
176
     1
 40
0.6
176
     1
 40
30.0
176
     1
 62
     7
420
 16777215
176
     1
 90
        2
176
     1
 90
        2
176
     1
 62
     7
176
     1
 62
   257
176
     1
 90
        1
176
     1
 90
        1
176
     1
 40
179.0
176
     1
 90
        8
176
     1
 62
     7
176
     1
 40
1.0
176
     1
 90
        1
176
     1
 90
        6
176
     1
 90
        2
176
     1
 62
     7
176
     1
 90
        3
176
     1
 90
        0
176
     1
 90
        0
176
     1
290
     0
176
     1
 90
        1
176
     1
 40
0.0
176
     1
 90
        0
176
     1
290
     0
176
     1
290
     1
176
     1
290
     1
176
     1
290
     0
176
     1
290
     0
176
     1
290
     0
176
     1
290
     0
176
     1
290
     0
176
     1
290
     0
176
     1
 90
       50
176
     1
 40
0.0
176
     1
 40
1.0
176
     1
 90
        0
176
     1
 62
    18
420
        0
176
     1
 90
       50
176
     1
 90
        3
176
     1
 62
     5
420
      255
176
     1
290
     0
176
     1
 90
       50
176
     1
 90
       50
176
     1
 90
       50
176
     1
290
     0
176
     1
 90
       50
176
     1
 62
   256
176
     0
 40
1.0
176
     0
 90
        2
176
     1
  1
strokes_ogs.tif
176
     1
290
     0
176
     1
 40
1.0
176
     1
 40
1.0
176
     1
  0
VISUALSTYLE
  5
34
102
{ACAD_REACTORS
330
29
102
}
330
29
100
AcDbVisualStyle
  2
Dim
 70
    11
177
     3
291
     1
 70
    58
 90
        2
176
     1
 90
        2
176
     1
 90
        0
176
     1
 90
        0
176
     1
 40
0.6
176
     1
 40
30.0
176
     1
 62
     7
420
 16777215
176
     1
 90
        1
176
     1
 90
        4
176
     1
 62
     7
176
     1
 62
   257
176
     1
 90
        1
176
     1
 90
        1
176
     1
 40
1.0
176
     1
 90
        8
176
     1
 62
     7
176
     1
 40
1.0
176
     1
 90
        1
176
     1
 90
        6
176
     1
 90
        2
176
     1
 62
     7
176
     1
 90
        5
176
     1
 90
        0
176
     1
 90
        0
176
     1
290
     0
176
     1
 90
        1
176
     1
 40
-50.0
176
     1
 90
        0
176
     1
290
     0
176
     1
290
     1
176
     1
290
     1
176
     1
290
     0
176
     1
290
     0
176
     1
290
     0
176
     1
290
     0
176
     1
290
     0
176
     1
290
     0
176
     1
 90
       50
176
     1
 40
0.0
176
     1
 40
1.0
176
     1
 90
        0
176
     1
 62
    18
420
        0
176
     1
 90
       50
176
     1
 90
        3
176
     1
 62
     5
420
      255
176
     1
290
     0
176
     1
 90
       50
176
     1
 90
       50
176
     1
 90
       50
176
     1
290
     0
176
     1
 90
       50
176
     1
 62
   256
176
     0
 40
1.0
176
     0
 90
        2
176
     1
  1
strokes_ogs.tif
176
     1
290
     0
176
     1
 40
1.0
176
     1
 40
1.0
176
     1
  0
VISUALSTYLE
  5
41
102
{ACAD_REACTORS
330
29
102
}
330
29
100
AcDbVisualStyle
  2
EdgeColorOff
 70
    22
177
     3
291
     1
 70
    58
 90
        2
176
     0
 90
        2
176
     0
 90
        0
176
     0
 90
        0
176
     0
 40
0.6
176
     0
 40
30.0
176
     0
 62
     7
420
 16777215
176
     0
 90
        1
176
     0
 90
        4
176
     0
 62
     7
176
     0
 62
   257
176
     0
 90
        1
176
     0
 90
        1
176
     0
 40
1.0
176
     0
 90
        8
176
     2
 62
     7
176
     0
 40
1.0
176
     0
 90
        1
176
     0
 90
        6
176
     0
 90
        2
176
     0
 62
     7
176
     0
 90
        5
176
     0
 90
        0
176
     0
 90
        0
176
     0
290
     0
176
     0
 90
        1
176
     0
 40
0.0
176
     0
 90
        0
176
     0
290
     0
176
     0
290
     1
176
     0
290
     1
176
     0
290
     0
176
     0
290
     0
176
     0
290
     0
176
     0
290
     0
176
     0
290
     0
176
     0
290
     0
176
     0
 90
       50
176
     0
 40
0.0
176
     0
 40
1.0
176
     0
 90
        0
176
     0
 62
    18
420
        0
176
     0
 90
       50
176
     0
 90
        3
176
     0
 62
     5
420
      255
176
     0
290
     0
176
     0
 90
       50
176
     0
 90
       50
176
     0
 90
       50
176
     0
290
     0
176
     0
 90
       50
176
     0
 62
   256
176
     0
 40
1.0
176
     0
 90
        2
176
     0
  1
strokes_ogs.tif
176
     0
290
     0
176
     0
 40
1.0
176
     0
 40
1.0
176
     0
  0
VISUALSTYLE
  5
38
102
{ACAD_REACTORS
330
29
102
}
330
29
100
AcDbVisualStyle
  2
Facepattern
 70
    15
177
     3
291
     1
 70
    58
 90
        2
176
     1
 90
        2
176
     1
 90
        0
176
     1
 90
        0
176
     1
 40
0.6
176
     1
 40
30.0
176
     1
 62
     7
420
 16777215
176
     1
 90
        1
176
     1
 90
        4
176
     1
 62
     7
176
     1
 62
   257
176
     1
 90
        1
176
     1
 90
        1
176
     1
 40
1.0
176
     1
 90
        8
176
     1
 62
     7
176
     1
 40
1.0
176
     1
 90
        1
176
     1
 90
        6
176
     1
 90
        2
176
     1
 62
     7
176
     1
 90
        5
176
     1
 90
        0
176
     1
 90
        0
176
     1
290
     0
176
     1
 90
        1
176
     1
 40
0.0
176
     1
 90
        0
176
     1
290
     0
176
     1
290
     1
176
     1
290
     1
176
     1
290
     0
176
     1
290
     0
176
     1
290
     0
176
     1
290
     0
176
     1
290
     0
176
     1
290
     0
176
     1
 90
       50
176
     1
 40
0.0
176
     1
 40
1.0
176
     1
 90
        0
176
     1
 62
    18
420
        0
176
     1
 90
       50
176
     1
 90
        3
176
     1
 62
     5
420
      255
176
     1
290
     0
176
     1
 90
       50
176
     1
 90
       50
176
     1
 90
       50
176
     1
290
     0
176
     1
 90
       50
176
     1
 62
   256
176
     0
 40
1.0
176
     0
 90
        2
176
     1
  1
strokes_ogs.tif
176
     1
290
     0
176
     1
 40
1.0
176
     1
 40
1.0
176
     1
  0
VISUALSTYLE
  5
2A
102
{ACAD_REACTORS
330
29
102
}
330
29
100
AcDbVisualStyle
  2
Flat
 70
     0
177
     3
291
     1
 70
    58
 90
        2
176
     1
 90
        1
176
     1
 90
        1
176
     1
 90
        2
176
     1
 40
0.6
176
     1
 40
30.0
176
     1
 62
     7
420
 16777215
176
     1
 90
        0
176
     1
 90
        0
176
     1
 62
     7
176
     1
 62
   257
176
     1
 90
        1
176
     1
 90
        1
176
     1
 40
1.0
176
     1
 90
        8
176
     1
 62
     7
176
     1
 40
1.0
176
     1
 90
        1
176
     1
 90
        6
176
     1
 90
        2
176
     1
 62
     7
176
     1
 90
        5
176
     1
 90
        0
176
     1
 90
        0
176
     1
290
     0
176
     1
 90
       13
176
     1
 40
0.0
176
     1
 90
        0
176
     1
290
     0
176
     1
290
     1
176
     1
290
     1
176
     1
290
     0
176
     1
290
     0
176
     1
290
     0
176
     1
290
     0
176
     1
290
     0
176
     1
290
     0
176
     1
 90
       50
176
     1
 40
0.0
176
     1
 40
1.0
176
     1
 90
        0
176
     1
 62
    18
420
        0
176
     1
 90
       50
176
     1
 90
        3
176
     1
 62
     5
420
      255
176
     1
290
     0
176
     1
 90
       50
176
     1
 90
       50
176
     1
 90
       50
176
     1
290
     0
176
     1
 90
       50
176
     1
 62
   256
176
     0
 40
1.0
176
     0
 90
        2
176
     1
  1
strokes_ogs.tif
176
     1
290
     0
176
     1
 40
1.0
176
     1
 40
1.0
176
     1
  0
VISUALSTYLE
  5
2B
102
{ACAD_REACTORS
330
29
102
}
330
29
100
AcDbVisualStyle
  2
FlatWithEdges
 70
     1
177
     3
291
     1
 70
    58
 90
        2
176
     1
 90
        1
176
     1
 90
        1
176
     1
 90
        2
176
     1
 40
0.6
176
     1
 40
30.0
176
     1
 62
     7
420
 16777215
176
     1
 90
        1
176
     1
 90
        0
176
     1
 62
     7
176
     1
 62
   257
176
     1
 90
        1
176
     1
 90
        1
176
     1
 40
1.0
176
     1
 90
        0
176
     1
 62
   257
176
     1
 40
1.0
176
     1
 90
        1
176
     1
 90
        6
176
     1
 90
        2
176
     1
 62
     7
176
     1
 90
        5
176
     1
 90
        0
176
     1
 90
        0
176
     1
290
     0
176
     1
 90
       13
176
     1
 40
0.0
176
     1
 90
        0
176
     1
290
     0
176
     1
290
     1
176
     1
290
     1
176
     1
290
     0
176
     1
290
     0
176
     1
290
     0
176
     1
290
     0
176
     1
290
     0
176
     1
290
     0
176
     1
 90
       50
176
     1
 40
0.0
176
     1
 40
1.0
176
     1
 90
        0
176
     1
 62
    18
420
        0
176
     1
 90
       50
176
     1
 90
        3
176
     1
 62
     5
420
      255
176
     1
290
     0
176
     1
 90
       50
176
     1
 90
       50
176
     1
 90
       50
176
     1
290
     0
176
     1
 90
       50
176
     1
 62
   256
176
     0
 40
1.0
176
     0
 90
        2
176
     1
  1
strokes_ogs.tif
176
     1
290
     0
176
     1
 40
1.0
176
     1
 40
1.0
176
     1
  0
VISUALSTYLE
  5
2C
102
{ACAD_REACTORS
330
29
102
}
330
29
100
AcDbVisualStyle
  2
Gouraud
 70
     2
177
     3
291
     1
 70
    58
 90
        2
176
     1
 90
        2
176
     1
 90
        1
176
     1
 90
        2
176
     1
 40
0.6
176
     1
 40
30.0
176
     1
 62
     7
420
 16777215
176
     1
 90
        0
176
     1
 90
        0
176
     1
 62
     7
176
     1
 62
   257
176
     1
 90
        1
176
     1
 90
        1
176
     1
 40
1.0
176
     1
 90
        0
176
     1
 62
     7
176
     1
 40
1.0
176
     1
 90
        1
176
     1
 90
        6
176
     1
 90
        2
176
     1
 62
     7
176
     1
 90
        5
176
     1
 90
        0
176
     1
 90
        0
176
     1
290
     0
176
     1
 90
       13
176
     1
 40
0.0
176
     1
 90
        0
176
     1
290
     0
176
     1
290
     1
176
     1
290
     1
176
     1
290
     0
176
     1
290
     0
176
     1
290
     0
176
     1
290
     0
176
     1
290
     0
176
     1
290
     0
176
     1
 90
       50
176
     1
 40
0.0
176
     1
 40
1.0
176
     1
 90
        0
176
     1
 62
    18
420
        0
176
     1
 90
       50
176
     1
 90
        3
176
     1
 62
     5
420
      255
176
     1
290
     0
176
     1
 90
       50
176
     1
 90
       50
176
     1
 90
       50
176
     1
290
     0
176
     1
 90
       50
176
     1
 62
   256
176
     0
 40
1.0
176
     0
 90
        2
176
     1
  1
strokes_ogs.tif
176
     1
290
     0
176
     1
 40
1.0
176
     1
 40
1.0
176
     1
  0
VISUALSTYLE
  5
2D
102
{ACAD_REACTORS
330
29
102
}
330
29
100
AcDbVisualStyle
  2
GouraudWithEdges
 70
     3
177
     3
291
     1
 70
    58
 90
        2
176
     1
 90
        2
176
     1
 90
        1
176
     1
 90
        2
176
     1
 40
0.6
176
     1
 40
30.0
176
     1
 62
     7
420
 16777215
176
     1
 90
        1
176
     1
 90
        0
176
     1
 62
     7
176
     1
 62
   257
176
     1
 90
        1
176
     1
 90
        1
176
     1
 40
1.0
176
     1
 90
        0
176
     1
 62
   257
176
     1
 40
1.0
176
     1
 90
        1
176
     1
 90
        6
176
     1
 90
        2
176
     1
 62
     7
176
     1
 90
        5
176
     1
 90
        0
176
     1
 90
        0
176
     1
290
     0
176
     1
 90
       13
176
     1
 40
0.0
176
     1
 90
        0
176
     1
290
     0
176
     1
290
     1
176
     1
290
     1
176
     1
290
     0
176
     1
290
     0
176
     1
290
     0
176
     1
290
     0
176
     1
290
     0
176
     1
290
     0
176
     1
 90
       50
176
     1
 40
0.0
176
     1
 40
1.0
176
     1
 90
        0
176
     1
 62
    18
420
        0
176
     1
 90
       50
176
     1
 90
        3
176
     1
 62
     5
420
      255
176
     1
290
     0
176
     1
 90
       50
176
     1
 90
       50
176
     1
 90
       50
176
     1
290
     0
176
     1
 90
       50
176
     1
 62
   256
176
     0
 40
1.0
176
     0
 90
        2
176
     1
  1
strokes_ogs.tif
176
     1
290
     0
176
     1
 40
1.0
176
     1
 40
1.0
176
     1
  0
VISUALSTYLE
  5
31
102
{ACAD_REACTORS
330
29
102
}
330
29
100
AcDbVisualStyle
  2
Hidden
 70
     6
177
     3
291
     0
 70
    58
 90
        1
176
     1
 90
        2
176
     1
 90
        2
176
     1
 90
        0
176
     1
 40
0.6
176
     1
 40
30.0
176
     1
 62
     7
420
 16777215
176
     1
 90
        2
176
     1
 90
        2
176
     1
 62
     7
176
     1
 62
   257
176
     1
 90
        2
176
     1
 90
        1
176
     1
 40
40.0
176
     1
 90
        0
176
     1
 62
   257
176
     1
 40
1.0
176
     1
 90
        1
176
     1
 90
        6
176
     1
 90
        2
176
     1
 62
     7
176
     1
 90
        3
176
     1
 90
        0
176
     1
 90
        0
176
     1
290
     0
176
     1
 90
        1
176
     1
 40
0.0
176
     1
 90
        0
176
     1
290
     0
176
     1
290
     1
176
     1
290
     1
176
     1
290
     0
176
     1
290
     0
176
     1
290
     0
176
     1
290
     0
176
     1
290
     0
176
     1
290
     0
176
     1
 90
       50
176
     1
 40
0.0
176
     1
 40
1.0
176
     1
 90
        0
176
     1
 62
    18
420
        0
176
     1
 90
       50
176
     1
 90
        3
176
     1
 62
     5
420
      255
176
     1
290
     0
176
     1
 90
       50
176
     1
 90
       50
176
     1
 90
       50
176
     1
290
     0
176
     1
 90
       50
176
     1
 62
   256
176
     0
 40
1.0
176
     0
 90
        2
176
     1
  1
strokes_ogs.tif
176
     1
290
     0
176
     1
 40
1.0
176
     1
 40
1.0
176
     1
  0
VISUALSTYLE
  5
3F
102
{ACAD_REACTORS
330
29
102
}
330
29
100
AcDbVisualStyle
  2
JitterOff
 70
    20
177
     3
291
     1
 70
    58
 90
        2
176
     0
 90
        2
176
     0
 90
        0
176
     0
 90
        0
176
     0
 40
0.6
176
     0
 40
30.0
176
     0
 62
     7
420
 16777215
176
     0
 90
        1
176
     0
 90
        4
176
     0
 62
     7
176
     0
 62
   257
176
     0
 90
        1
176
     0
 90
        1
176
     0
 40
1.0
176
     0
 90
       10
176
     2
 62
     7
176
     0
 40
1.0
176
     0
 90
        1
176
     0
 90
        6
176
     0
 90
        2
176
     0
 62
     7
176
     0
 90
        5
176
     0
 90
        0
176
     0
 90
        0
176
     0
290
     0
176
     0
 90
        1
176
     0
 40
0.0
176
     0
 90
        0
176
     0
290
     0
176
     0
290
     1
176
     0
290
     1
176
     0
290
     0
176
     0
290
     0
176
     0
290
     0
176
     0
290
     0
176
     0
290
     0
176
     0
290
     0
176
     0
 90
       50
176
     0
 40
0.0
176
     0
 40
1.0
176
     0
 90
        0
176
     0
 62
    18
420
        0
176
     0
 90
       50
176
     0
 90
        3
176
     0
 62
     5
420
      255
176
     0
290
     0
176
     0
 90
       50
176
     0
 90
       50
176
     0
 90
       50
176
     0
290
     0
176
     0
 90
       50
176
     0
 62
   256
176
     0
 40
1.0
176
     0
 90
        2
176
     0
  1
strokes_ogs.tif
176
     0
290
     0
176
     0
 40
1.0
176
     0
 40
1.0
176
     0
  0
VISUALSTYLE
  5
37
102
{ACAD_REACTORS
330
29
102
}
330
29
100
AcDbVisualStyle
  2
Linepattern
 70
    14
177
     3
291
     1
 70
    58
 90
        2
176
     1
 90
        2
176
     1
 90
        0
176
     1
 90
        0
176
     1
 40
0.6
176
     1
 40
30.0
176
     1
 62
     7
420
 16777215
176
     1
 90
        1
176
     1
 90
        4
176
     1
 62
     7
176
     1
 62
   257
176
     1
 90
        7
176
     1
 90
        7
176
     1
 40
1.0
176
     1
 90
        8
176
     1
 62
     7
176
     1
 40
1.0
176
     1
 90
        1
176
     1
 90
        6
176
     1
 90
        2
176
     1
 62
     7
176
     1
 90
        5
176
     1
 90
        0
176
     1
 90
        0
176
     1
290
     0
176
     1
 90
        1
176
     1
 40
0.0
176
     1
 90
        0
176
     1
290
     0
176
     1
290
     1
176
     1
290
     1
176
     1
290
     0
176
     1
290
     0
176
     1
290
     0
176
     1
290
     0
176
     1
290
     0
176
     1
290
     0
176
     1
 90
       50
176
     1
 40
0.0
176
     1
 40
1.0
176
     1
 90
        0
176
     1
 62
    18
420
        0
176
     1
 90
       50
176
     1
 90
        3
176
     1
 62
     5
420
      255
176
     1
290
     0
176
     1
 90
       50
176
     1
 90
       50
176
     1
 90
       50
176
     1
290
     0
176
     1
 90
       50
176
     1
 62
   256
176
     0
 40
1.0
176
     0
 90
        2
176
     1
  1
strokes_ogs.tif
176
     1
290
     0
176
     1
 40
1.0
176
     1
 40
1.0
176
     1
  0
VISUALSTYLE
  5
40
102
{ACAD_REACTORS
330
29
102
}
330
29
100
AcDbVisualStyle
  2
OverhangOff
 70
    21
177
     3
291
     1
 70
    58
 90
        2
176
     0
 90
        2
176
     0
 90
        0
176
     0
 90
        0
176
     0
 40
0.6
176
     0
 40
30.0
176
     0
 62
     7
420
 16777215
176
     0
 90
        1
176
     0
 90
        4
176
     0
 62
     7
176
     0
 62
   257
176
     0
 90
        1
176
     0
 90
        1
176
     0
 40
1.0
176
     0
 90
        9
176
     2
 62
     7
176
     0
 40
1.0
176
     0
 90
        1
176
     0
 90
        6
176
     0
 90
        2
176
     0
 62
     7
176
     0
 90
        5
176
     0
 90
        0
176
     0
 90
        0
176
     0
290
     0
176
     0
 90
        1
176
     0
 40
0.0
176
     0
 90
        0
176
     0
290
     0
176
     0
290
     1
176
     0
290
     1
176
     0
290
     0
176
     0
290
     0
176
     0
290
     0
176
     0
290
     0
176
     0
290
     0
176
     0
290
     0
176
     0
 90
       50
176
     0
 40
0.0
176
     0
 40
1.0
176
     0
 90
        0
176
     0
 62
    18
420
        0
176
     0
 90
       50
176
     0
 90
        3
176
     0
 62
     5
420
      255
176
     0
290
     0
176
     0
 90
       50
176
     0
 90
       50
176
     0
 90
       50
176
     0
290
     0
176
     0
 90
       50
176
     0
 62
   256
176
     0
 40
1.0
176
     0
 90
        2
176
     0
  1
strokes_ogs.tif
176
     0
290
     0
176
     0
 40
1.0
176
     0
 40
1.0
176
     0
  0
VISUALSTYLE
  5
33
102
{ACAD_REACTORS
330
29
102
}
330
29
100
AcDbVisualStyle
  2
Realistic
 70
     8
177
     3
291
     0
 70
    58
 90
        2
176
     1
 90
        3
176
     1
 90
        0
176
     1
 90
        2
176
     1
 40
0.6
176
     1
 40
30.0
176
     1
 62
     7
420
 16777215
176
     1
 90
        0
176
     1
 90
        0
176
     1
 62
     7
176
     1
 62
   257
176
     1
 90
        1
176
     1
 90
        1
176
     1
 40
1.0
176
     1
 90
        8
176
     1
 62
   257
176
     1
 40
1.0
176
     1
 90
        1
176
     1
 90
        6
176
     1
 90
        2
176
     1
 62
     7
176
     1
 90
        3
176
     1
 90
        0
176
     1
 90
        0
176
     1
290
     0
176
     1
 90
       13
176
     1
 40
0.0
176
     1
 90
        0
176
     1
290
     0
176
     1
290
     1
176
     1
290
     1
176
     1
290
     0
176
     1
290
     0
176
     1
290
     0
176
     1
290
     0
176
     1
290
     0
176
     1
290
     0
176
     1
 90
       50
176
     1
 40
0.0
176
     1
 40
1.0
176
     1
 90
        0
176
     1
 62
    18
420
        0
176
     1
 90
       50
176
     1
 90
        3
176
     1
 62
     5
420
      255
176
     1
290
     0
176
     1
 90
       50
176
     1
 90
       50
176
     1
 90
       50
176
     1
290
     0
176
     1
 90
       50
176
     1
 62
   256
176
     0
 40
1.0
176
     0
 90
        2
176
     1
  1
strokes_ogs.tif
176
     1
290
     0
176
     1
 40
1.0
176
     1
 40
1.0
176
     1
  0
VISUALSTYLE
  5
3E
102
{ACAD_REACTORS
330
29
102
}
330
29
100
AcDbVisualStyle
  2
Shaded
 70
    27
177
     3
291
     0
 70
    58
 90
        2
176
     1
 90
        2
176
     1
 90
        1
176
     1
 90
        2
176
     1
 40
0.6
176
     1
 40
30.0
176
     1
 62
     7
420
 16777215
176
     1
 90
        0
176
     1
 90
        4
176
     1
 62
     7
176
     1
 62
   257
176
     1
 90
        1
176
     1
 90
        1
176
     1
 40
1.0
176
     1
 90
        8
176
     1
 62
   257
176
     1
 40
1.0
176
     1
 90
        1
176
     1
 90
        6
176
     1
 90
        2
176
     1
 62
     8
420
  7895160
176
     1
 90
        3
176
     1
 90
        0
176
     1
 90
        0
176
     1
290
     0
176
     1
 90
        5
176
     1
 40
0.0
176
     1
 90
        0
176
     1
290
     0
176
     1
290
     1
176
     1
290
     1
176
     1
290
     0
176
     1
290
     0
176
     1
290
     0
176
     1
290
     0
176
     1
290
     0
176
     1
290
     0
176
     1
 90
       50
176
     1
 40
0.0
176
     1
 40
1.0
176
     1
 90
        0
176
     1
 62
    18
420
        0
176
     1
 90
       50
176
     1
 90
        3
176
     1
 62
     5
420
      255
176
     1
290
     0
176
     1
 90
       50
176
     1
 90
       50
176
     1
 90
       50
176
     1
290
     0
176
     1
 90
       50
176
     1
 62
   256
176
     0
 40
1.0
176
     0
 90
        2
176
     1
  1
strokes_ogs.tif
176
     1
290
     0
176
     1
 40
1.0
176
     1
 40
1.0
176
     1
  0
VISUALSTYLE
  5
3D
102
{ACAD_REACTORS
330
29
102
}
330
29
100
AcDbVisualStyle
  2
Shaded with edges
 70
    26
177
     3
291
     0
 70
    58
 90
        2
176
     1
 90
        2
176
     1
 90
        1
176
     1
 90
        2
176
     1
 40
0.6
176
     1
 40
30.0
176
     1
 62
     7
420
 16777215
176
     1
 90
        1
176
     1
 90
        2
176
     1
 62
     7
176
     1
 62
   257
176
     1
 90
        2
176
     1
 90
        1
176
     1
 40
1.0
176
     1
 90
        8
176
     1
 62
   257
176
     1
 40
1.0
176
     1
 90
        1
176
     1
 90
        6
176
     1
 90
        2
176
     1
 62
     7
176
     1
 90
        3
176
     1
 90
        0
176
     1
 90
        0
176
     1
290
     0
176
     1
 90
        5
176
     1
 40
0.0
176
     1
 90
        0
176
     1
290
     0
176
     1
290
     1
176
     1
290
     1
176
     1
290
     0
176
     1
290
     0
176
     1
290
     0
176
     1
290
     0
176
     1
290
     0
176
     1
290
     0
176
     1
 90
       50
176
     1
 40
0.0
176
     1
 40
1.0
176
     1
 90
        0
176
     1
 62
    18
420
        0
176
     1
 90
       50
176
     1
 90
        3
176
     1
 62
     5
420
      255
176
     1
290
     0
176
     1
 90
       50
176
     1
 90
       50
176
     1
 90
       50
176
     1
290
     0
176
     1
 90
       50
176
     1
 62
   256
176
     0
 40
1.0
176
     0
 90
        2
176
     1
  1
strokes_ogs.tif
176
     1
290
     0
176
     1
 40
1.0
176
     1
 40
1.0
176
     1
  0
VISUALSTYLE
  5
3A
102
{ACAD_REACTORS
330
29
102
}
330
29
100
AcDbVisualStyle
  2
Shades of Gray
 70
    23
177
     3
291
     0
 70
    58
 90
        2
176
     1
 90
        2
176
     1
 90
        3
176
     1
 90
        0
176
     1
 40
0.6
176
     1
 40
30.0
176
     1
 62
     7
420
 16777215
176
     1
 90
        2
176
     1
 90
        2
176
     1
 62
     7
176
     1
 62
     7
176
     1
 90
        1
176
     1
 90
        1
176
     1
 40
40.0
176
     1
 90
        8
176
     1
 62
     7
176
     1
 40
1.0
176
     1
 90
        1
176
     1
 90
        6
176
     1
 90
        2
176
     1
 62
     7
176
     1
 90
        3
176
     1
 90
        0
176
     1
 90
        0
176
     1
290
     0
176
     1
 90
        1
176
     1
 40
0.0
176
     1
 90
        0
176
     1
290
     0
176
     1
290
     1
176
     1
290
     1
176
     1
290
     0
176
     1
290
     0
176
     1
290
     0
176
     1
290
     0
176
     1
290
     0
176
     1
290
     0
176
     1
 90
       50
176
     1
 40
0.0
176
     1
 40
1.0
176
     1
 90
        0
176
     1
 62
    18
420
        0
176
     1
 90
       50
176
     1
 90
        3
176
     1
 62
     5
420
      255
176
     1
290
     0
176
     1
 90
       50
176
     1
 90
       50
176
     1
 90
       50
176
     1
290
     0
176
     1
 90
       50
176
     1
 62
   256
176
     0
 40
1.0
176
     0
 90
        2
176
     1
  1
strokes_ogs.tif
176
     1
290
     0
176
     1
 40
1.0
176
     1
 40
1.0
176
     1
  0
VISUALSTYLE
  5
3B
102
{ACAD_REACTORS
330
29
102
}
330
29
100
AcDbVisualStyle
  2
Sketchy
 70
    24
177
     3
291
     0
 70
    58
 90
        1
176
     1
 90
        2
176
     1
 90
        2
176
     1
 90
        0
176
     1
 40
0.6
176
     1
 40
30.0
176
     1
 62
     7
420
 16777215
176
     1
 90
        2
176
     1
 90
        2
176
     1
 62
     7
176
     1
 62
     7
176
     1
 90
        1
176
     1
 90
        1
176
     1
 40
40.0
176
     1
 90
       11
176
     1
 62
     7
176
     1
 40
1.0
176
     1
 90
        1
176
     1
 90
        6
176
     1
 90
        2
176
     1
 62
     7
176
     1
 90
        6
176
     1
 90
        0
176
     1
 90
        0
176
     1
290
     0
176
     1
 90
        1
176
     1
 40
0.0
176
     1
 90
        0
176
     1
290
     0
176
     1
290
     1
176
     1
290
     1
176
     1
290
     0
176
     1
290
     0
176
     1
290
     0
176
     1
290
     0
176
     1
290
     0
176
     1
290
     0
176
     1
 90
       50
176
     1
 40
0.0
176
     1
 40
1.0
176
     1
 90
        0
176
     1
 62
    18
420
        0
176
     1
 90
       50
176
     1
 90
        3
176
     1
 62
     5
420
      255
176
     1
290
     0
176
     1
 90
       50
176
     1
 90
       50
176
     1
 90
       50
176
     1
290
     0
176
     1
 90
       50
176
     1
 62
   256
176
     0
 40
1.0
176
     0
 90
        2
176
     1
  1
strokes_ogs.tif
176
     1
290
     0
176
     1
 40
1.0
176
     1
 40
1.0
176
     1
  0
VISUALSTYLE
  5
36
102
{ACAD_REACTORS
330
29
102
}
330
29
100
AcDbVisualStyle
  2
Thicken
 70
    13
177
     3
291
     1
 70
    58
 90
        2
176
     1
 90
        2
176
     1
 90
        0
176
     1
 90
        0
176
     1
 40
0.6
176
     1
 40
30.0
176
     1
 62
     7
420
 16777215
176
     1
 90
        1
176
     1
 90
        4
176
     1
 62
     7
176
     1
 62
   257
176
     1
 90
        1
176
     1
 90
        1
176
     1
 40
1.0
176
     1
 90
       12
176
     1
 62
     7
176
     1
 40
1.0
176
     1
 90
        1
176
     1
 90
        6
176
     1
 90
        2
176
     1
 62
     7
176
     1
 90
        5
176
     1
 90
        0
176
     1
 90
        0
176
     1
290
     0
176
     1
 90
        1
176
     1
 40
0.0
176
     1
 90
        0
176
     1
290
     0
176
     1
290
     1
176
     1
290
     1
176
     1
290
     0
176
     1
290
     0
176
     1
290
     0
176
     1
290
     0
176
     1
290
     0
176
     1
290
     0
176
     1
 90
       50
176
     1
 40
0.0
176
     1
 40
1.0
176
     1
 90
        0
176
     1
 62
    18
420
        0
176
     1
 90
       50
176
     1
 90
        3
176
     1
 62
     5
420
      255
176
     1
290
     0
176
     1
 90
       50
176
     1
 90
       50
176
     1
 90
       50
176
     1
290
     0
176
     1
 90
       50
176
     1
 62
   256
176
     0
 40
1.0
176
     0
 90
        2
176
     1
  1
strokes_ogs.tif
176
     1
290
     0
176
     1
 40
1.0
176
     1
 40
1.0
176
     1
  0
VISUALSTYLE
  5
30
102
{ACAD_REACTORS
330
29
102
}
330
29
100
AcDbVisualStyle
  2
Wireframe
 70
     5
177
     3
291
     0
 70
    58
 90
        0
176
     1
 90
        2
176
     1
 90
        0
176
     1
 90
        0
176
     1
 40
0.6
176
     1
 40
30.0
176
     1
 62
     7
420
 16777215
176
     1
 90
        1
176
     1
 90
        4
176
     1
 62
     7
176
     1
 62
   257
176
     1
 90
        1
176
     1
 90
        1
176
     1
 40
1.0
176
     1
 90
        0
176
     1
 62
   257
176
     1
 40
1.0
176
     1
 90
        1
176
     1
 90
        6
176
     1
 90
        2
176
     1
 62
     7
176
     1
 90
        3
176
     1
 90
        0
176
     1
 90
        0
176
     1
290
     0
176
     1
 90
        1
176
     1
 40
0.0
176
     1
 90
        0
176
     1
290
     0
176
     1
290
     1
176
     1
290
     1
176
     1
290
     0
176
     1
290
     0
176
     1
290
     0
176
     1
290
     0
176
     1
290
     0
176
     1
290
     0
176
     1
 90
       50
176
     1
 40
0.0
176
     1
 40
1.0
176
     1
 90
        0
176
     1
 62
    18
420
        0
176
     1
 90
       50
176
     1
 90
        3
176
     1
 62
     5
420
      255
176
     1
290
     0
176
     1
 90
       50
176
     1
 90
       50
176
     1
 90
       50
176
     1
290
     0
176
     1
 90
       50
176
     1
 62
   256
176
     0
 40
1.0
176
     0
 90
        2
176
     1
  1
strokes_ogs.tif
176
     1
290
     0
176
     1
 40
1.0
176
     1
 40
1.0
176
     1
  0
VISUALSTYLE
  5
3C
102
{ACAD_REACTORS
330
29
102
}
330
29
100
AcDbVisualStyle
  2
X-Ray
 70
    25
177
     3
291
     0
 70
    58
 90
        2
176
     1
 90
        2
176
     1
 90
        1
176
     1
 90
        1
176
     1
 40
0.5
176
     1
 40
30.0
176
     1
 62
     7
420
 16777215
176
     1
 90
        1
176
     1
 90
        0
176
     1
 62
     7
176
     1
 62
   257
176
     1
 90
        1
176
     1
 90
        1
176
     1
 40
1.0
176
     1
 90
        8
176
     1
 62
     7
176
     1
 40
1.0
176
     1
 90
        1
176
     1
 90
        6
176
     1
 90
        2
176
     1
 62
     7
176
     1
 90
        3
176
     1
 90
        0
176
     1
 90
        0
176
     1
290
     0
176
     1
 90
       13
176
     1
 40
0.0
176
     1
 90
        0
176
     1
290
     0
176
     1
290
     1
176
     1
290
     1
176
     1
290
     0
176
     1
290
     0
176
     1
290
     0
176
     1
290
     0
176
     1
290
     0
176
     1
290
     0
176
     1
 90
       50
176
     1
 40
0.0
176
     1
 40
1.0
176
     1
 90
        0
176
     1
 62
    18
420
        0
176
     1
 90
       50
176
     1
 90
        3
176
     1
 62
     5
420
      255
176
     1
290
     0
176
     1
 90
       50
176
     1
 90
       50
176
     1
 90
       50
176
     1
290
     0
176
     1
 90
       50
176
     1
 62
   256
176
     0
 40
1.0
176
     0
 90
        2
176
     1
  1
strokes_ogs.tif
176
     1
290
     0
176
     1
 40
1.0
176
     1
 40
1.0
176
     1
  0
DICTIONARYVAR
  5
C0
102
{ACAD_REACTORS
330
BB
102
}
330
BB
100
DictionaryVariables
280
     0
  1
1:1
  0
DICTIONARYVAR
  5
BD
102
{ACAD_REACTORS
330
BB
102
}
330
BB
100
DictionaryVariables
280
     0
  1
STANDARD
  0
DICTIONARYVAR
  5
BC
102
{ACAD_REACTORS
330
BB
102
}
330
BB
100
DictionaryVariables
280
     0
  1
STANDARD
  0
DICTIONARYVAR
  5
BE
102
{ACAD_REACTORS
330
BB
102
}
330
BB
100
DictionaryVariables
280
     0
  1
Imperial24
  0
DICTIONARYVAR
  5
BF
102
{ACAD_REACTORS
330
BB
102
}
330
BB
100
DictionaryVariables
280
     0
  1
Imperial24
  0
DICTIONARY
  5
1A
330
19
100
AcDbDictionary
280
     1
281
     1
  3
BUMPTILE
360
1C
  3
DIFFUSETILE
360
1B
  3
OPACITYTILE
360
1F
  3
REFLECTIONTILE
360
1E
  3
REFRACTIONTILE
360
20
  3
SPECULARTILE
360
1D
  0
DICTIONARY
  5
12
330
11
100
AcDbDictionary
280
     1
281
     1
  3
BUMPTILE
360
14
  3
DIFFUSETILE
360
13
  3
OPACITYTILE
360
17
  3
REFLECTIONTILE
360
16
  3
REFRACTIONTILE
360
18
  3
SPECULARTILE
360
15
  0
DICTIONARY
  5
22
330
21
100
AcDbDictionary
280
     1
281
     1
  3
BUMPTILE
360
24
  3
DIFFUSETILE
360
23
  3
OPACITYTILE
360
27
  3
REFLECTIONTILE
360
26
  3
REFRACTIONTILE
360
28
  3
SPECULARTILE
360
25
  0
DICTIONARY
  5
C1
330
65
100
AcDbDictionary
280
     1
281
     1
  3
ACAD_ROUNDTRIP_2008_TABLESTYLE_CELLSTYLEMAP
360
C2
  0
XRECORD
  5
1C
102
{ACAD_REACTORS
330
1A
102
}
330
1A
100
AcDbXrecord
280
     1
270
     1
271
     1
  0
XRECORD
  5
1B
102
{ACAD_REACTORS
330
1A
102
}
330
1A
100
AcDbXrecord
280
     1
270
     1
271
     1
  0
XRECORD
  5
1F
102
{ACAD_REACTORS
330
1A
102
}
330
1A
100
AcDbXrecord
280
     1
270
     1
271
     1
  0
XRECORD
  5
1E
102
{ACAD_REACTORS
330
1A
102
}
330
1A
100
AcDbXrecord
280
     1
270
     1
271
     1
  0
XRECORD
  5
20
102
{ACAD_REACTORS
330
1A
102
}
330
1A
100
AcDbXrecord
280
     1
270
     1
271
     1
  0
XRECORD
  5
1D
102
{ACAD_REACTORS
330
1A
102
}
330
1A
100
AcDbXrecord
280
     1
270
     1
271
     1
  0
XRECORD
  5
14
102
{ACAD_REACTORS
330
12
102
}
330
12
100
AcDbXrecord
280
     1
270
     1
271
     1
  0
XRECORD
  5
13
102
{ACAD_REACTORS
330
12
102
}
330
12
100
AcDbXrecord
280
     1
270
     1
271
     1
  0
XRECORD
  5
17
102
{ACAD_REACTORS
330
12
102
}
330
12
100
AcDbXrecord
280
     1
270
     1
271
     1
  0
XRECORD
  5
16
102
{ACAD_REACTORS
330
12
102
}
330
12
100
AcDbXrecord
280
     1
270
     1
271
     1
  0
XRECORD
  5
18
102
{ACAD_REACTORS
330
12
102
}
330
12
100
AcDbXrecord
280
     1
270
     1
271
     1
  0
XRECORD
  5
15
102
{ACAD_REACTORS
330
12
102
}
330
12
100
AcDbXrecord
280
     1
270
     1
271
     1
  0
XRECORD
  5
24
102
{ACAD_REACTORS
330
22
102
}
330
22
100
AcDbXrecord
280
     1
270
     1
271
     1
  0
XRECORD
  5
23
102
{ACAD_REACTORS
330
22
102
}
330
22
100
AcDbXrecord
280
     1
270
     1
271
     1
  0
XRECORD
  5
27
102
{ACAD_REACTORS
330
22
102
}
330
22
100
AcDbXrecord
280
     1
270
     1
271
     1
  0
XRECORD
  5
26
102
{ACAD_REACTORS
330
22
102
}
330
22
100
AcDbXrecord
280
     1
270
     1
271
     1
  0
XRECORD
  5
28
102
{ACAD_REACTORS
330
22
102
}
330
22
100
AcDbXrecord
280
     1
270
     1
271
     1
  0
XRECORD
  5
25
102
{ACAD_REACTORS
330
22
102
}
330
22
100
AcDbXrecord
280
     1
270
     1
271
     1
  0
CELLSTYLEMAP
  5
C2
102
{ACAD_REACTORS
330
C1
102
}
330
C1
100
AcDbCellStyleMap
 90
        3
300
CELLSTYLE
  1
TABLEFORMAT_BEGIN
 90
        5
170
     1
 91
        0
 92
    32768
 62
   257
 93
        1
300
CONTENTFORMAT
  1
CONTENTFORMAT_BEGIN
 90
        0
 91
        0
 92
      512
 93
        0
300

 40
0.0
140
1.0
 94
        5
 62
     0
340
55
144
0.25
309
CONTENTFORMAT_END
171
     0
 94
        0
309
TABLEFORMAT_END
  1
CELLSTYLE_BEGIN
 90
        1
 91
        1
300
_TITLE
309
CELLSTYLE_END
300
CELLSTYLE
  1
TABLEFORMAT_BEGIN
 90
        5
170
     1
 91
        0
 92
        0
 62
   257
 93
        1
300
CONTENTFORMAT
  1
CONTENTFORMAT_BEGIN
 90
        0
 91
        0
 92
      512
 93
        0
300

 40
0.0
140
1.0
 94
        5
 62
     0
340
55
144
0.18
309
CONTENTFORMAT_END
171
     0
 94
        0
309
TABLEFORMAT_END
  1
CELLSTYLE_BEGIN
 90
        2
 91
        1
300
_HEADER
309
CELLSTYLE_END
300
CELLSTYLE
  1
TABLEFORMAT_BEGIN
 90
        5
170
     1
 91
        0
 92
        0
 62
   257
 93
        1
300
CONTENTFORMAT
  1
CONTENTFORMAT_BEGIN
 90
        0
 91
        0
 92
      512
 93
        0
300

 40
0.0
140
1.0
 94
        2
 62
     0
340
55
144
0.18
309
CONTENTFORMAT_END
171
     0
 94
        0
309
TABLEFORMAT_END
  1
CELLSTYLE_BEGIN
 90
        3
 91
        2
300
_DATA
309
CELLSTYLE_END
  0
ENDSEC
  0
EOF
